{"glyphs":{":":{"x_min":0,"x_max":536,"ha":536,"o":"m 388 748 q 386 736 386 731 q 386 676 441 676 l 502 676 q 504 655 507 610 q 510 565 510 535 q 510 472 501 419 q 466 410 420 406 q 375 401 325 401 q 292 401 213 403 q 134 405 129 405 q 125 417 120 463 q 115 509 97 518 q 79 526 70 526 q 61 526 51 525 q 41 524 32 523 q 18 523 10 528 q 3 533 1 549 l 1 781 q 63 781 194 790 q 324 798 374 798 z m 380 376 q 385 366 386 354 q 388 343 388 325 q 388 309 388 294 q 390 278 397 265 l 508 247 l 507 0 l 128 1 q 120 12 120 30 q 120 36 121 50 q 122 64 122 71 q 122 90 114 100 q 107 110 85 112 l 10 112 q 4 145 2 179 q -1 213 -1 250 q -1 276 0 304 q 0 333 0 363 q 42 373 84 376 q 126 380 183 380 q 217 380 296 378 q 376 376 380 376 z m 55 763 q 45 741 41 716 q 37 690 37 660 q 37 603 55 559 l 344 566 q 349 591 352 618 q 356 646 356 670 q 356 695 352 718 q 348 741 338 763 z m 54 345 l 53 148 q 126 137 206 137 q 280 137 354 147 q 353 155 353 166 q 353 176 353 182 q 353 194 354 218 q 355 242 355 254 q 355 284 352 304 q 348 324 336 344 z m 312 609 q 256 601 203 601 q 145 601 87 609 q 84 617 82 636 q 79 654 79 668 q 79 708 98 720 l 312 713 z m 311 190 q 271 185 241 182 q 211 179 188 179 q 158 179 132 184 q 107 188 79 198 q 82 207 82 219 q 82 226 81 241 q 80 256 80 263 q 80 283 86 293 q 92 303 112 303 q 118 303 122 302 l 312 290 z m 277 652 l 173 652 l 173 634 l 276 634 z m 172 216 q 192 209 206 206 q 219 204 234 204 q 267 204 286 222 q 274 226 256 230 q 237 234 221 234 q 205 234 192 230 q 179 225 172 216 z"},"$":{"x_min":0,"x_max":720,"ha":720,"o":"m 372 800 l 372 783 q 372 764 377 755 q 382 746 399 749 q 403 750 409 750 q 430 750 430 727 q 478 727 532 698 q 587 668 660 585 q 670 564 676 542 q 683 521 683 499 l 468 496 q 454 527 427 538 q 400 548 362 548 q 351 548 340 548 q 329 547 318 547 l 309 538 q 334 527 439 494 q 544 461 593 425 q 601 407 646 344 q 691 280 691 242 q 691 213 660 170 q 630 127 569 101 q 508 75 433 75 l 428 5 q 417 4 397 2 q 377 0 366 0 q 349 0 339 2 q 329 5 319 12 l 319 28 q 319 41 316 48 q 312 56 300 56 l 269 56 q 262 79 219 82 q 176 86 164 95 q 96 128 48 181 q 0 234 0 299 q 20 302 44 304 q 67 305 94 305 l 132 305 q 153 305 174 305 q 194 308 203 309 q 142 321 94 377 q 45 433 14 469 q 12 485 9 514 q 6 542 6 558 q 6 592 12 618 q 19 643 37 664 q 67 692 115 707 q 163 722 259 722 q 263 727 265 738 q 267 750 267 758 q 267 769 268 780 q 268 792 271 800 z m 287 788 q 282 781 280 772 q 279 764 279 750 q 279 740 278 730 q 278 721 274 711 q 212 711 170 706 q 128 701 87 683 q 55 674 42 647 q 28 620 21 588 q 14 557 14 541 q 14 431 134 392 q 254 353 364 320 q 382 313 394 302 q 407 291 407 274 q 407 268 402 257 q 397 246 380 238 q 363 231 339 231 q 324 231 293 235 q 262 239 250 239 q 237 269 212 281 q 187 293 153 293 q 129 293 84 288 q 39 284 36 284 q 22 284 16 285 q 15 279 16 273 q 17 267 20 255 q 39 204 97 173 q 155 142 278 142 l 285 67 q 297 67 306 66 q 316 66 323 66 q 343 66 358 70 q 359 75 359 86 q 358 102 358 110 q 358 132 367 145 q 451 145 501 154 q 551 164 593 203 q 609 224 616 251 q 624 278 624 310 q 624 332 621 355 q 587 416 532 444 q 478 471 384 496 q 289 521 247 543 q 237 561 237 577 q 237 588 243 597 q 262 609 282 614 q 303 619 325 619 q 345 619 366 614 q 387 609 407 601 q 419 579 442 570 q 464 562 496 562 q 516 562 555 566 q 594 570 610 570 q 612 586 610 596 q 607 606 599 620 q 567 666 510 686 q 453 707 384 707 q 367 705 364 714 q 360 724 360 732 q 361 754 361 764 q 361 773 360 777 q 353 789 330 789 q 308 788 287 788 z m 231 301 q 227 297 227 292 q 227 287 232 280 q 236 274 242 266 q 253 260 264 258 q 276 255 292 255 q 303 255 326 257 q 349 259 359 259 q 343 265 300 280 q 257 294 231 301 z m 341 733 l 341 694 q 414 684 487 675 q 568 654 586 585 l 443 585 q 429 614 400 625 q 372 636 335 636 q 317 636 298 635 q 280 634 262 633 q 246 630 236 620 q 227 610 215 594 q 212 585 212 576 q 212 555 228 538 q 245 521 267 512 q 302 491 402 467 q 502 443 553 406 q 604 369 604 278 q 595 241 584 220 q 574 200 551 192 q 505 171 448 168 q 390 165 347 165 q 339 158 339 141 q 339 132 340 120 q 341 109 341 107 q 341 84 323 84 q 317 84 308 87 q 300 96 300 108 q 300 113 302 125 q 304 137 304 143 q 304 153 300 161 q 243 165 158 175 q 73 185 39 263 q 49 267 62 269 q 75 271 87 271 q 98 271 125 269 q 152 267 155 267 q 173 267 188 271 q 204 239 234 227 q 263 215 304 215 q 322 215 347 218 q 372 220 395 223 q 426 244 426 280 q 426 292 422 301 l 379 337 q 256 372 168 396 q 81 421 40 497 l 40 535 q 40 581 46 602 q 51 624 64 641 q 104 675 157 683 q 210 691 293 691 q 302 702 302 730 q 302 758 307 769 q 315 772 320 772 q 332 772 336 758 q 338 745 341 733 z m 204 610 q 197 609 182 609 q 171 609 160 609 q 150 609 139 610 q 125 610 111 608 q 97 607 87 597 l 209 602 q 204 608 204 610 z m 457 601 q 481 597 516 597 q 527 597 540 598 q 552 598 571 601 q 541 609 505 609 q 476 609 457 601 z m 83 555 l 79 544 l 204 544 l 204 552 q 196 553 170 554 q 145 555 144 555 z m 78 497 l 79 493 q 103 489 137 489 q 156 489 182 490 q 208 491 239 493 q 223 498 202 499 q 182 500 173 500 q 151 500 116 498 q 80 497 78 497 z m 98 449 l 117 438 l 356 441 q 331 446 292 448 q 252 450 216 450 q 186 450 156 450 q 127 449 98 449 z m 234 399 l 231 396 q 267 390 307 388 q 347 386 394 386 l 410 386 l 425 386 l 437 386 q 455 386 474 386 q 493 386 512 387 l 523 387 q 494 395 452 398 q 411 401 369 401 q 346 401 300 400 q 255 399 234 399 z m 395 343 q 415 337 441 334 q 467 331 490 331 q 521 331 536 332 q 552 334 590 340 q 573 342 542 342 q 511 342 492 343 z m 170 652 l 504 652 q 472 656 426 658 q 379 660 336 660 q 255 660 170 652 z m 464 285 q 493 281 532 281 q 564 281 593 284 q 557 294 521 294 q 491 294 464 285 z m 102 240 l 102 232 q 130 227 158 227 q 175 227 184 228 q 192 230 203 235 q 193 238 176 239 q 160 240 145 240 z m 461 239 l 456 231 q 491 226 523 226 q 544 226 554 227 q 563 228 578 234 q 566 237 547 238 q 528 239 510 239 z m 183 188 l 175 185 q 252 176 334 176 q 407 176 484 184 z"},"?":{"x_min":0,"x_max":798,"ha":798,"o":"m 659 388 q 647 374 584 355 q 522 336 522 296 q 522 284 525 269 q 477 260 416 260 q 364 260 317 266 q 315 269 310 298 q 306 328 287 328 q 281 328 275 326 q 269 325 267 325 q 255 325 249 334 q 243 342 245 355 q 245 411 247 434 q 249 456 263 481 l 73 485 q 69 492 63 524 q 57 556 33 556 q 26 556 15 553 l 1 553 q 0 559 0 566 q 0 573 0 577 q 0 662 46 724 q 96 768 161 784 q 226 801 308 801 q 348 801 420 798 q 492 794 513 794 q 594 785 666 732 q 737 679 754 630 q 772 581 772 558 q 772 511 740 469 q 709 427 659 388 z m 463 164 q 467 149 484 149 q 493 149 504 150 q 516 151 521 150 l 525 7 q 517 10 507 11 q 497 12 484 12 q 465 12 422 6 q 379 1 368 1 q 338 1 322 15 q 306 29 306 65 q 288 67 275 68 q 262 70 252 69 l 249 212 q 294 212 366 214 q 437 217 454 217 z m 321 576 q 297 570 292 545 q 288 520 288 504 q 326 512 355 524 q 384 537 445 566 q 440 574 426 578 q 413 581 391 581 q 379 581 364 580 q 350 579 321 576 z m 523 776 q 490 776 418 780 q 346 784 309 784 q 232 784 173 770 q 114 757 69 719 q 44 682 31 660 q 18 637 18 599 q 18 586 21 571 l 192 576 q 192 634 240 662 q 265 665 303 668 q 341 672 354 672 q 392 672 424 664 q 456 657 479 637 q 487 616 487 596 q 487 541 398 514 q 309 488 288 470 q 275 456 270 437 q 264 418 264 394 q 264 380 265 372 q 266 364 269 347 l 426 347 q 436 347 438 354 q 440 362 440 379 q 467 399 560 436 q 652 473 679 537 q 690 570 690 608 q 690 654 670 684 q 651 726 614 746 q 576 767 523 776 z m 436 198 q 429 199 420 199 q 411 199 406 199 q 378 199 354 197 q 330 195 296 193 q 284 194 278 194 l 269 194 l 269 89 q 302 89 324 88 q 346 87 366 86 q 395 86 417 90 q 439 93 459 102 l 443 102 z m 655 531 q 622 480 555 455 q 488 430 426 409 q 426 385 414 376 q 402 368 379 368 q 366 368 341 370 q 316 373 312 373 q 305 373 293 371 q 291 381 289 392 q 287 402 287 412 q 287 435 297 446 q 307 454 408 494 q 509 535 509 596 q 509 612 503 633 q 482 667 443 681 q 404 695 355 695 q 325 695 291 691 q 257 687 239 684 q 221 682 204 665 q 187 648 178 628 q 178 607 167 600 q 156 592 134 592 q 124 592 98 594 q 73 596 72 596 q 65 596 55 594 l 45 594 q 45 632 56 660 q 67 688 93 710 q 139 738 196 748 q 254 758 326 758 q 359 758 425 755 q 491 752 523 752 q 568 743 603 722 q 638 702 656 664 q 667 635 667 598 q 667 564 655 531 z m 420 140 l 416 112 l 293 113 q 294 119 293 134 q 292 148 292 150 q 292 172 307 174 q 317 172 324 172 q 332 172 351 174 q 370 176 380 176 q 399 176 410 169 q 420 162 420 140 z m 642 657 l 526 657 q 542 642 565 642 q 571 642 592 646 q 613 649 624 649 q 630 649 642 647 z m 546 514 q 552 514 567 513 q 582 512 589 512 q 613 512 627 521 q 616 523 602 526 q 588 528 577 528 q 552 528 546 514 z m 447 458 q 451 459 461 459 q 481 458 492 458 q 503 458 512 460 q 521 462 528 468 q 522 468 508 469 q 495 470 488 470 q 474 470 465 468 q 456 466 447 458 z m 341 399 q 354 395 374 395 q 391 395 402 399 l 402 405 q 398 404 394 404 q 390 404 388 404 q 371 405 363 405 q 351 405 341 399 z m 570 712 q 543 717 514 719 q 484 721 452 721 q 402 721 300 715 q 198 709 182 709 z m 103 642 l 169 648 l 169 652 q 152 656 146 657 q 139 658 132 658 q 112 658 103 642 z m 645 593 q 638 592 622 593 q 605 594 596 594 q 580 594 572 592 q 565 589 560 579 q 575 576 589 576 q 601 576 620 580 q 640 583 651 585 q 651 587 645 593 z m 402 136 q 398 135 388 135 q 371 136 363 136 q 345 136 340 126 l 402 126 z"},"<":{"x_min":0,"x_max":583,"ha":583,"o":"m 55 313 l 55 395 l 529 595 l 529 508 l 153 354 l 529 198 l 529 110 z"},"'":{"x_min":0,"x_max":384,"ha":384,"o":"m 289 733 l 354 721 l 235 495 q 194 483 143 483 q 93 483 52 495 q 52 502 60 520 q 68 539 68 543 q 68 555 53 560 l 3 560 q 14 619 31 680 q 48 740 69 792 q 119 803 185 803 q 213 803 244 802 q 276 800 311 796 z m 100 781 q 72 741 56 684 q 40 626 30 581 q 50 575 67 575 q 83 575 110 578 q 137 582 145 582 q 161 582 169 580 l 273 775 q 266 775 258 774 q 249 774 246 774 q 225 774 184 778 q 143 782 124 782 q 108 782 100 781 z m 224 749 q 224 723 202 686 q 181 648 161 614 q 139 609 124 606 q 109 604 91 604 q 79 604 68 607 q 68 637 81 675 q 94 713 107 749 q 112 748 122 748 q 137 748 163 750 q 189 753 194 753 q 212 753 224 749 z m 165 672 q 155 672 150 672 q 137 672 138 661 l 165 661 z"},"=":{"x_min":0,"x_max":555,"ha":555,"o":"m 426 361 q 425 358 425 352 q 425 330 444 317 q 463 304 503 304 q 509 304 523 305 l 522 198 l 97 199 q 91 203 91 212 q 91 215 92 221 q 93 227 93 230 q 93 238 87 243 q 81 248 62 250 l 0 250 l 0 358 l 27 366 q 79 363 134 362 q 189 360 263 360 l 284 360 l 302 360 l 317 360 l 332 360 l 344 360 q 362 360 380 360 q 399 360 417 361 z m 405 347 l 27 350 l 27 262 l 404 265 z m 360 328 q 365 325 367 319 q 369 313 369 307 l 369 292 l 369 284 l 62 284 q 63 287 63 293 q 63 298 62 302 q 62 307 62 312 q 62 320 64 324 q 67 329 77 332 z m 346 299 l 133 302 l 142 291 q 168 291 194 291 q 220 291 247 291 l 259 291 q 308 291 346 295 z m 426 171 q 425 168 425 162 q 425 140 444 127 q 463 114 503 114 q 509 114 523 115 l 522 8 l 97 9 q 91 13 91 22 q 91 25 92 31 q 93 37 93 40 q 93 48 87 53 q 81 58 62 60 l 0 60 l 0 168 l 27 176 q 79 173 134 172 q 189 170 263 170 l 284 170 l 302 170 l 317 170 l 332 170 l 344 170 q 362 170 380 170 q 399 170 417 171 z m 405 157 l 27 160 l 27 72 l 404 75 z m 360 138 q 365 135 367 129 q 369 123 369 117 l 369 102 l 369 94 l 62 94 q 63 97 63 103 q 63 108 62 112 q 62 117 62 122 q 62 130 64 134 q 67 139 77 142 z m 346 109 l 133 112 l 142 101 q 168 101 194 101 q 220 101 247 101 l 259 101 q 308 101 346 105 z"},"a":{"x_min":0,"x_max":1090,"ha":1090,"o":"m 756 590 q 786 534 822 457 q 859 380 895 307 q 931 234 968 174 l 1010 170 q 1011 165 1010 153 q 1009 141 1009 140 q 1009 123 1022 119 q 1037 120 1045 120 q 1059 120 1060 108 l 1055 2 l 584 0 q 579 8 579 21 l 579 33 q 579 42 576 50 l 526 58 l 527 167 l 626 174 q 627 187 622 196 q 618 206 610 210 l 374 210 q 365 208 362 198 q 358 187 355 178 q 361 171 375 171 q 387 171 400 172 q 402 168 404 142 q 407 115 424 115 q 430 115 438 118 l 450 118 l 454 3 l 54 2 q 51 25 48 40 q 45 56 28 56 l 16 54 l 5 54 q 2 65 1 83 q 0 101 0 118 l 0 165 q 7 167 20 167 q 32 167 39 168 l 54 168 q 82 168 103 173 l 341 640 l 673 639 l 702 590 z m 657 628 l 357 629 l 119 160 l 19 157 l 19 65 q 48 65 110 64 q 172 63 204 63 q 272 63 301 64 q 330 66 381 72 l 381 156 q 367 156 354 156 q 340 155 327 155 q 304 155 292 156 q 280 158 266 164 q 279 194 294 224 q 309 255 332 278 l 598 278 q 615 249 633 220 q 652 185 652 158 l 557 158 q 544 146 544 118 q 544 102 546 88 q 548 75 549 68 q 624 68 772 69 q 921 70 990 70 l 987 158 q 974 158 962 158 q 949 157 936 157 q 908 157 889 162 z m 884 139 l 976 135 l 976 90 l 560 90 l 560 134 l 679 139 q 671 177 650 220 q 630 263 603 297 l 321 298 q 299 268 280 226 q 260 184 242 145 q 253 140 270 138 q 288 136 305 136 q 320 136 335 136 q 350 136 366 137 l 366 88 l 35 89 l 35 134 q 50 138 69 138 l 99 138 q 113 138 127 141 l 357 602 q 406 602 508 603 q 609 604 654 604 z m 648 578 l 394 578 l 390 567 l 648 566 z m 439 545 q 395 447 351 350 l 577 354 q 534 455 482 553 q 467 553 461 553 q 448 553 439 545 z m 675 525 q 662 527 643 528 q 624 529 606 529 q 593 529 578 528 q 562 528 542 521 q 567 513 606 513 q 624 513 644 514 q 665 516 675 517 z m 406 526 l 362 526 l 363 514 l 386 514 q 398 514 406 518 z m 572 468 q 587 465 608 464 q 628 463 646 463 l 702 463 l 702 471 q 665 476 630 476 q 608 476 598 475 q 588 474 572 468 z m 338 472 l 337 464 q 343 462 349 461 q 355 460 363 460 q 379 460 382 472 z m 599 422 l 598 414 q 607 413 636 412 q 664 411 665 411 q 699 411 729 414 q 726 418 724 422 z m 351 422 q 334 423 325 423 q 312 423 310 412 q 327 411 336 411 q 350 411 356 414 q 356 416 354 418 q 352 421 351 422 z m 629 373 l 626 362 q 640 359 663 358 q 686 357 689 357 q 707 357 718 358 q 729 359 751 362 l 751 368 q 739 371 719 372 q 699 373 681 373 z m 329 369 l 286 369 l 286 358 q 301 357 309 357 q 321 357 329 362 z m 276 327 q 274 324 267 324 q 262 324 258 324 q 254 323 257 316 l 774 315 l 774 323 l 724 323 q 613 323 484 324 q 356 326 276 327 z m 275 267 q 257 267 248 267 q 234 267 234 255 q 251 255 260 255 q 274 255 280 259 q 275 265 275 267 z m 671 266 q 683 259 696 257 q 709 255 729 255 q 748 255 767 256 q 786 257 805 258 q 793 263 774 265 q 755 267 736 267 q 719 267 703 266 q 687 266 671 266 z m 705 215 l 705 204 q 712 203 728 202 q 743 201 768 201 q 801 201 827 204 l 832 209 q 821 213 804 215 q 788 217 772 217 q 761 217 738 216 q 716 215 705 215 z m 253 214 l 210 214 l 210 202 q 226 202 234 202 q 245 202 253 206 z m 728 163 l 728 152 l 854 152 l 854 158 q 841 161 821 162 q 801 163 782 163 z m 226 159 l 184 160 l 184 149 l 206 149 q 218 149 226 154 z m 350 115 l 313 115 l 283 115 l 258 115 l 237 115 l 218 115 l 200 115 l 185 115 l 172 115 l 160 115 q 142 115 124 115 q 105 115 87 116 l 75 116 l 76 108 q 144 108 212 108 q 281 107 350 107 z m 609 118 l 606 106 l 959 109 l 959 114 q 900 114 760 116 q 620 118 609 118 z m 553 376 l 542 368 l 378 369 q 385 405 410 450 q 435 496 458 537 l 477 534 z m 490 450 l 462 384 l 475 384 l 501 384 q 513 384 522 387 q 515 426 490 450 z"},"L":{"x_min":0,"x_max":1056,"ha":1056,"o":"m 588 799 q 591 776 594 754 q 601 731 624 731 q 628 731 640 733 l 654 732 l 654 592 l 510 583 l 505 223 q 539 208 586 208 q 609 208 664 213 q 718 218 739 218 l 746 472 l 956 472 q 962 466 962 450 q 961 433 961 425 q 961 404 978 404 l 989 406 l 1023 406 l 1022 2 l 77 0 q 72 6 72 18 q 74 34 74 42 q 74 52 70 58 q 65 65 53 66 l 11 66 q 6 86 5 102 q 4 119 4 147 q 4 162 4 176 q 4 191 5 206 q 12 209 21 210 q 30 211 42 211 q 56 211 71 210 q 86 209 101 208 q 126 208 140 215 q 154 222 159 244 l 156 576 q 146 588 102 592 q 58 596 58 621 q 58 631 64 648 q 46 642 34 642 q 15 642 8 655 q 0 668 0 691 q 0 702 2 725 q 4 748 4 758 q 4 763 4 768 q 2 774 2 776 q 2 786 6 790 q 9 795 26 800 z m 20 782 l 20 672 q 27 671 34 671 q 41 671 49 671 q 62 671 75 671 q 88 671 101 672 q 129 672 144 670 q 158 667 174 656 l 173 210 q 163 202 146 198 q 130 195 111 195 q 96 195 82 195 q 67 195 53 196 l 35 196 q 28 190 24 180 q 19 169 19 147 q 19 136 19 126 q 19 115 20 104 q 20 92 19 86 l 940 84 l 941 448 q 924 453 903 455 q 882 457 860 457 q 835 457 810 456 q 784 455 759 454 l 755 198 q 713 198 650 196 q 587 195 586 195 q 542 195 502 197 q 462 199 423 205 q 423 315 426 480 q 428 645 428 671 q 446 671 464 670 q 483 670 502 670 q 544 670 572 675 l 568 781 l 500 781 l 441 781 l 390 781 l 345 781 l 306 781 l 271 781 l 241 781 l 214 781 l 190 781 l 169 781 l 151 781 l 136 781 l 121 781 l 109 781 q 90 781 70 781 q 51 781 32 782 z m 544 757 q 549 747 549 729 q 549 721 548 714 q 548 706 548 699 q 531 697 503 696 q 475 695 461 695 l 404 695 l 396 679 l 399 175 q 466 175 606 172 q 745 170 779 170 l 787 184 l 787 424 q 807 426 828 428 q 850 430 857 430 q 876 430 892 426 q 907 423 917 414 l 917 112 l 53 110 q 49 116 49 132 q 49 147 49 162 q 57 165 72 166 q 86 167 88 167 q 96 167 114 166 q 131 165 140 165 q 166 165 180 171 q 195 177 203 196 l 194 690 l 50 696 q 44 704 44 721 q 44 734 44 748 q 99 754 157 756 q 215 759 291 759 q 333 759 418 758 q 503 757 544 757 z m 98 724 l 92 710 l 534 709 l 534 719 q 435 719 280 722 q 124 724 98 724 z m 266 661 q 265 656 257 656 q 251 656 246 656 q 243 653 246 647 q 279 641 316 641 q 350 641 380 647 l 380 655 q 365 660 352 661 q 338 662 315 662 q 303 662 290 662 q 278 661 266 661 z m 380 593 l 252 594 l 246 580 l 380 579 z m 246 528 l 246 512 l 380 511 l 380 527 z m 380 459 l 270 464 q 269 459 261 459 q 255 459 249 458 q 243 458 246 449 q 274 445 313 445 q 325 445 340 446 q 356 446 380 449 z m 251 398 l 251 383 q 287 377 319 377 q 346 377 379 383 l 379 391 q 360 396 343 397 q 326 398 299 398 z m 835 396 l 835 382 l 903 386 q 899 392 892 394 q 885 396 875 396 q 855 396 835 396 z m 385 325 q 350 330 308 330 q 291 330 280 330 q 268 330 245 326 q 258 320 276 318 q 293 315 317 315 q 335 315 355 316 q 375 318 385 319 z m 903 328 l 851 334 q 849 329 838 329 q 827 329 831 318 l 903 318 z m 385 263 q 350 266 330 268 q 310 269 306 269 q 287 269 271 266 q 255 262 245 254 q 263 251 282 249 q 301 247 321 247 q 355 247 385 253 z m 831 256 q 846 252 868 252 q 888 252 903 256 q 893 266 866 266 q 841 266 831 256 z m 831 190 l 903 190 l 903 198 q 891 204 877 204 q 863 204 852 200 q 842 197 831 190 z m 245 200 l 251 186 q 266 182 285 182 q 305 182 342 186 q 380 191 385 191 q 372 197 352 199 q 332 201 312 201 q 295 201 278 200 q 261 200 245 200 z m 902 139 l 96 137 l 96 127 l 902 125 z"},"3":{"x_min":0,"x_max":948,"ha":948,"o":"m 833 440 q 831 433 814 422 q 798 412 798 406 q 798 400 809 392 q 841 376 870 346 q 898 317 906 290 q 914 263 914 243 q 914 207 900 176 q 887 144 860 110 q 791 44 698 22 q 606 1 475 1 l 457 1 l 442 1 l 427 1 l 415 1 q 396 1 378 1 q 359 1 340 2 l 331 2 q 241 2 164 57 q 87 112 25 197 q 14 229 7 256 q 0 284 0 311 q 0 317 0 323 q 2 332 2 336 l 284 339 l 284 322 q 284 306 288 294 q 291 283 302 278 q 319 285 328 285 q 343 285 348 252 q 352 220 373 216 q 386 216 400 216 q 414 215 429 215 q 491 215 516 230 q 542 244 554 273 q 549 284 540 288 q 530 293 517 293 q 499 292 490 292 q 474 292 465 297 q 465 328 462 340 q 460 352 445 359 l 403 359 l 398 502 q 449 502 485 512 q 521 522 541 554 q 546 573 530 576 q 514 580 499 584 q 440 584 412 578 q 383 571 374 548 q 365 525 364 516 q 363 507 363 491 q 364 469 364 459 q 335 456 302 455 q 268 454 226 454 l 208 454 l 193 454 l 180 454 l 168 454 q 150 454 132 454 q 114 454 96 455 l 87 455 q 83 461 83 477 l 83 492 q 83 505 78 513 l 22 523 q 19 541 19 559 q 19 598 34 636 q 48 673 74 708 q 132 760 213 780 q 294 799 399 799 q 447 799 546 794 q 646 788 671 788 q 739 778 794 718 q 850 658 885 620 q 895 597 895 572 q 895 538 878 506 q 861 473 833 440 z m 627 778 q 583 778 502 782 q 422 785 398 785 q 294 785 216 766 q 138 746 78 690 q 64 661 50 628 q 36 596 36 568 q 36 559 36 550 q 39 541 40 537 l 236 536 q 239 540 249 540 q 262 539 268 539 q 279 539 283 543 q 287 547 284 560 q 284 593 294 618 q 305 644 336 657 q 367 670 417 670 q 466 670 507 659 q 533 650 547 628 q 561 606 561 579 q 561 563 550 536 q 540 509 506 498 q 471 488 417 488 q 415 473 413 458 q 411 444 411 430 q 411 416 414 404 q 416 391 421 379 q 488 379 517 367 q 546 355 564 331 q 574 314 574 292 q 574 260 554 235 q 530 214 498 205 q 467 196 427 196 q 403 196 381 198 q 359 201 325 206 q 292 219 280 248 q 269 277 260 326 l 29 326 q 15 313 15 296 q 15 284 25 254 q 35 223 35 213 q 63 151 118 128 q 173 104 267 87 q 315 87 392 84 q 468 82 479 82 q 572 82 644 96 q 716 109 778 148 q 806 170 818 202 q 831 235 831 272 q 831 302 823 334 q 807 374 768 399 q 730 424 684 434 q 728 463 759 487 q 790 511 802 542 q 813 572 813 612 q 813 652 794 688 q 776 724 730 748 q 683 771 627 778 z m 779 549 q 754 499 704 474 q 653 449 588 440 q 587 429 596 424 q 606 418 618 420 q 664 420 702 406 q 741 393 764 368 q 787 342 798 317 q 808 292 808 266 q 808 249 802 229 q 766 136 628 118 q 535 110 492 106 q 472 106 428 105 q 384 104 361 104 q 240 104 160 134 q 81 164 49 255 q 52 263 47 274 q 42 285 45 292 l 230 302 q 244 297 245 270 q 246 244 254 236 q 276 200 312 188 q 348 175 400 175 q 425 175 450 176 q 476 177 502 178 q 531 181 554 203 q 576 225 598 259 q 604 274 604 288 q 604 305 596 323 q 588 341 574 359 q 549 385 516 396 q 482 407 441 407 q 432 428 432 439 q 432 463 477 468 q 522 472 531 482 q 556 496 570 521 q 585 546 588 573 q 583 614 570 642 q 556 671 525 678 q 494 686 468 690 q 443 694 416 694 q 378 694 346 686 q 315 677 288 656 q 254 616 254 564 l 70 561 q 67 575 67 587 q 67 616 80 642 q 94 668 118 694 q 177 732 248 746 q 320 759 411 759 q 459 759 536 756 q 612 754 623 754 q 677 745 715 726 q 753 707 768 682 q 784 656 787 642 q 790 628 790 608 q 790 576 779 549 z m 255 708 l 690 713 q 644 717 581 720 q 518 723 466 723 q 403 723 354 720 q 305 717 255 708 z m 603 649 q 639 645 688 645 q 735 645 770 649 q 751 649 712 654 q 672 659 661 659 q 633 659 603 649 z m 145 653 q 150 654 161 654 q 170 654 190 653 q 209 652 219 652 q 239 652 250 654 q 262 657 272 666 q 266 665 254 665 q 245 665 226 666 q 207 667 197 667 q 178 667 166 664 q 155 662 145 653 z m 642 593 l 642 577 q 648 578 656 578 q 664 578 668 578 q 683 578 696 578 q 708 577 718 577 q 735 577 750 579 q 764 581 775 587 q 757 592 741 593 q 725 594 698 594 q 684 594 670 594 q 656 593 642 593 z m 108 597 l 113 583 q 119 584 126 584 q 133 584 137 584 q 149 584 161 584 q 173 583 185 583 q 201 583 216 586 q 230 588 241 593 q 227 596 212 597 q 196 598 175 598 q 158 598 142 598 q 125 597 108 597 z m 626 516 q 658 510 686 510 q 716 510 742 521 l 741 525 q 723 531 701 531 q 682 531 660 526 q 639 522 626 516 z m 496 449 l 496 435 q 501 435 515 434 q 529 433 537 433 q 550 433 559 436 q 568 438 574 445 q 559 450 535 450 q 525 450 516 450 q 506 449 496 449 z m 554 397 q 573 390 592 388 q 611 385 640 385 q 657 385 674 385 q 690 385 707 386 q 689 393 670 396 q 652 398 622 398 q 605 398 588 398 q 571 397 554 397 z m 779 331 q 764 332 740 334 q 717 336 704 336 q 684 336 668 333 q 652 330 642 321 q 659 321 676 320 q 693 320 711 320 q 728 320 746 321 q 763 322 779 325 z m 655 267 l 649 253 q 660 253 684 252 q 708 251 720 251 q 744 251 761 254 q 778 256 793 263 q 778 266 754 267 q 729 268 725 268 q 707 268 690 268 q 672 267 655 267 z m 101 265 l 107 251 l 230 250 l 230 260 q 217 263 196 264 q 175 265 155 265 z m 618 196 l 617 192 l 717 187 q 723 191 746 191 q 766 193 769 201 l 694 201 q 675 201 655 200 q 635 199 618 196 z m 121 193 q 154 183 201 183 q 248 183 278 193 q 236 199 198 199 q 162 199 121 193 z m 233 142 q 279 137 336 134 q 393 131 448 131 q 504 131 553 134 q 602 137 652 145 q 551 145 444 144 q 338 143 233 142 z"},";":{"x_min":0,"x_max":556,"ha":556,"o":"m 418 799 q 427 782 427 765 q 427 757 426 744 q 424 732 424 731 q 424 721 427 709 q 446 696 468 692 q 491 687 524 687 l 529 479 q 501 472 464 468 q 427 465 385 465 q 341 465 272 468 q 202 470 194 470 q 198 486 198 503 q 198 537 178 557 q 158 577 124 577 q 113 577 107 576 l 91 576 q 91 592 90 628 q 89 664 89 683 q 89 722 92 749 q 96 776 107 800 z m 427 432 l 395 346 l 485 330 l 320 16 q 268 1 193 1 q 122 1 68 17 q 68 26 78 50 q 89 74 89 83 q 89 100 68 107 l 0 107 q 15 187 38 269 q 61 351 91 427 q 123 434 168 438 q 212 442 249 442 q 290 442 328 440 q 366 437 427 432 z m 390 768 l 135 778 q 126 763 122 744 q 119 726 119 701 q 119 691 120 670 q 121 648 121 637 q 121 629 120 620 q 119 612 119 607 l 390 607 z m 135 411 q 99 362 80 302 q 62 243 37 135 q 48 131 62 129 q 75 127 88 127 q 105 127 144 132 q 182 137 196 137 q 212 137 230 134 l 374 405 q 351 402 330 402 q 299 402 238 408 q 178 414 171 414 q 153 414 135 411 z m 353 731 q 359 719 359 697 q 358 677 358 668 q 358 656 359 650 q 343 642 321 638 q 299 635 273 635 q 255 635 238 635 q 220 635 203 636 q 182 636 172 635 q 166 640 161 651 q 156 662 156 678 q 156 685 157 699 q 158 713 158 720 q 158 728 157 732 z m 305 367 q 305 331 275 280 q 245 228 218 181 q 180 173 164 170 q 148 168 125 168 q 105 168 90 172 l 90 187 q 90 223 108 272 q 127 322 144 368 q 150 367 164 367 q 174 367 209 370 q 244 374 261 374 q 287 374 305 367 z m 331 672 q 314 676 300 679 q 285 682 273 682 q 241 682 241 657 l 255 657 q 274 656 284 656 q 312 656 331 666 z m 224 262 q 211 262 203 262 q 185 262 187 246 l 224 246 z"},"J":{"x_min":0,"x_max":1038,"ha":1038,"o":"m 930 799 q 935 795 937 788 q 939 781 939 773 q 938 759 938 753 q 938 730 956 730 l 968 732 l 1001 732 q 999 714 999 707 q 999 696 1002 668 q 1006 641 1006 628 q 1006 608 1001 593 l 858 585 q 853 558 852 534 q 851 509 851 468 q 851 449 852 406 q 853 364 853 342 q 853 231 826 157 q 799 83 732 51 q 665 19 606 10 q 546 0 479 0 q 416 0 364 6 q 311 11 221 23 q 135 54 70 118 q 4 182 4 262 l 0 401 l 24 410 q 33 408 52 406 q 70 405 90 405 q 110 405 158 407 q 205 409 209 409 q 225 409 242 408 q 259 407 276 404 q 280 378 284 358 q 287 337 314 342 l 341 342 q 344 306 348 266 q 351 225 381 213 q 423 217 442 223 q 462 229 480 252 q 498 285 506 324 q 513 364 513 408 q 513 437 509 494 q 505 551 505 576 q 493 590 472 590 q 451 588 440 588 l 423 590 q 419 596 419 612 l 419 627 q 419 640 414 648 q 399 644 386 644 q 367 644 360 654 q 353 665 353 684 q 353 694 356 717 q 359 740 359 751 q 359 770 352 781 q 358 783 358 795 q 450 795 680 797 q 911 799 930 799 z m 920 779 q 834 779 744 778 q 653 778 559 778 q 465 777 372 777 l 376 672 q 391 665 411 665 q 426 665 450 668 q 474 670 478 670 q 495 670 504 668 q 513 665 525 657 l 518 280 q 510 255 489 234 q 468 213 442 205 q 414 200 390 200 q 368 200 348 205 q 329 210 313 223 q 272 251 268 318 q 263 384 262 390 l 18 391 q 18 318 20 285 q 21 252 31 210 q 44 176 73 147 q 102 118 136 104 q 199 95 278 88 q 356 82 418 82 q 498 82 559 90 q 620 97 680 117 q 735 160 754 224 q 774 287 774 378 q 774 413 770 485 q 767 557 767 581 q 767 600 767 614 q 767 627 771 657 l 781 671 q 800 671 819 670 q 838 670 857 670 q 877 670 897 670 q 913 673 920 674 z m 890 756 q 896 746 896 728 l 896 710 l 896 698 q 886 696 868 694 q 849 693 830 693 q 819 693 794 694 q 769 695 753 695 l 743 681 l 738 228 q 727 196 704 170 q 680 143 650 133 q 602 122 548 118 q 494 113 430 113 q 376 113 286 116 q 196 118 180 118 q 124 133 79 176 q 52 209 46 248 q 41 287 41 357 q 59 363 81 366 q 103 368 133 368 q 151 368 176 368 q 201 367 232 366 q 232 302 256 252 q 279 202 333 181 q 350 179 367 177 q 384 175 399 175 q 428 175 452 182 q 475 188 494 205 q 527 231 538 270 q 550 310 550 363 q 550 379 549 411 q 548 443 548 457 l 549 685 q 532 692 514 694 q 497 697 470 697 q 458 697 434 696 q 410 695 400 695 q 396 701 396 717 q 396 732 396 747 q 495 747 678 752 q 861 756 890 756 z m 458 723 l 448 709 q 489 705 523 704 q 557 703 602 703 q 657 703 755 706 q 853 708 882 708 l 882 718 q 786 718 634 720 q 482 723 458 723 z m 729 657 q 706 661 683 661 q 669 661 635 659 q 601 657 596 657 l 596 647 q 628 641 663 641 q 697 641 729 647 z m 723 593 q 707 593 689 594 q 671 595 653 596 q 634 596 620 592 q 605 589 596 580 q 631 575 666 575 q 704 575 733 585 z m 600 528 l 600 514 l 733 518 q 723 524 706 526 q 689 528 672 528 l 618 528 z m 614 466 q 613 462 602 462 q 591 462 596 451 q 609 449 629 448 q 649 447 668 447 q 701 447 733 450 q 725 457 713 459 q 701 461 685 461 l 653 461 q 630 461 614 466 z m 595 389 q 624 379 665 379 q 705 379 732 389 q 703 399 662 399 q 621 399 595 389 z m 218 332 q 208 332 184 333 q 159 334 146 334 q 128 334 113 331 q 98 328 89 319 q 124 314 159 314 q 203 314 228 325 z m 599 332 l 600 318 l 668 318 q 685 318 701 319 q 717 320 732 323 q 720 329 702 331 q 683 333 663 333 q 646 333 630 332 q 614 332 599 332 z m 238 261 q 225 267 213 269 q 201 271 187 271 q 172 271 146 268 q 119 266 112 266 q 103 267 98 267 l 89 267 l 89 257 q 106 254 132 253 q 159 252 163 252 q 179 252 196 252 q 212 252 229 253 l 238 253 z m 599 270 q 597 266 589 265 q 581 264 585 256 q 618 250 657 250 q 695 250 728 256 l 728 266 q 720 268 702 270 q 685 271 665 271 q 648 271 632 270 q 615 270 599 270 z m 103 206 l 95 196 q 116 189 136 186 q 156 184 186 184 q 199 184 226 185 q 252 186 265 186 l 285 195 q 265 202 239 205 q 213 208 187 208 q 173 208 144 207 q 116 206 103 206 z m 555 204 l 547 189 l 694 188 q 708 190 708 204 z m 174 142 l 166 138 q 271 122 396 122 q 514 122 619 137 q 526 137 366 140 q 206 142 174 142 z"},"V":{"x_min":0,"x_max":1311,"ha":1311,"o":"m 574 793 q 578 788 578 777 q 576 761 576 754 q 576 744 580 738 q 585 732 597 731 l 639 731 l 645 588 q 638 585 629 584 q 620 583 608 583 l 582 583 q 566 583 560 582 q 553 580 543 574 q 596 439 672 311 q 711 365 742 430 q 772 495 802 577 q 793 574 787 574 q 763 574 761 616 q 759 659 739 659 q 727 659 707 649 q 701 658 699 668 q 697 677 697 690 q 697 705 700 728 q 702 752 702 756 q 702 775 697 789 l 711 797 l 1209 795 q 1214 789 1214 776 q 1213 760 1213 752 q 1213 742 1218 736 q 1223 730 1236 730 l 1274 730 q 1280 697 1280 660 q 1280 623 1274 590 l 1113 581 l 834 0 l 528 1 q 511 30 498 50 q 485 70 461 70 q 453 70 442 67 l 428 67 l 181 575 q 170 581 156 583 q 143 585 127 585 q 118 585 99 584 q 80 583 71 583 q 67 610 63 638 q 57 654 39 654 q 33 654 24 651 l 8 651 q 3 675 2 697 q 0 719 0 754 l 0 791 q 40 795 97 797 q 154 799 209 799 q 271 799 394 796 q 517 793 574 793 z m 741 783 l 717 773 l 721 669 q 729 668 748 668 q 762 668 776 668 q 790 668 805 669 q 824 669 840 667 q 857 665 868 659 q 814 541 756 416 q 698 292 638 196 l 620 210 l 414 636 l 414 664 q 429 664 445 664 q 461 663 477 663 q 503 663 519 664 q 535 665 553 670 q 556 684 558 698 q 560 713 560 729 q 560 755 554 779 l 24 781 q 24 768 24 754 q 23 739 23 724 q 23 709 24 694 q 25 678 28 665 q 44 665 61 665 q 78 665 96 666 q 112 666 128 665 q 145 664 161 661 l 442 81 q 469 81 528 80 q 586 79 616 79 q 663 79 702 81 q 742 83 781 90 l 1035 625 q 1039 651 1054 660 q 1069 670 1093 670 q 1103 670 1128 668 q 1154 666 1156 666 q 1177 666 1188 672 l 1185 778 q 1159 781 1119 782 q 1079 783 1073 783 q 1015 783 951 780 q 887 778 845 777 q 791 777 741 783 z m 530 749 l 533 698 q 522 695 508 694 q 494 693 476 693 l 435 693 q 410 693 400 692 q 389 690 372 684 l 614 176 q 619 172 633 172 q 645 172 658 172 q 722 296 785 427 q 848 558 902 687 l 745 693 q 740 702 740 718 q 741 736 741 745 l 755 755 l 1165 754 q 1171 744 1171 727 l 1171 709 l 1171 700 q 1158 694 1136 692 q 1114 690 1110 690 q 1099 690 1077 691 q 1055 692 1045 692 l 767 114 l 457 110 q 403 220 350 326 q 296 433 252 524 q 207 614 175 684 q 169 690 154 692 q 140 694 137 694 q 127 694 106 692 q 85 690 76 690 q 62 690 50 694 q 38 697 38 715 q 38 729 48 750 z m 104 723 l 96 709 l 516 708 l 516 718 q 429 718 282 720 q 134 723 104 723 z m 1151 720 l 796 721 l 792 707 l 1151 706 z m 243 655 l 247 641 l 366 640 l 366 650 q 354 653 334 654 q 314 655 296 655 z m 1003 653 l 945 653 l 949 639 l 961 639 l 977 639 q 993 639 1003 645 z m 945 591 q 941 586 926 586 q 911 586 911 582 q 911 578 915 573 q 921 574 934 573 q 948 572 950 572 q 960 572 966 574 q 971 577 973 587 q 953 591 945 591 z m 280 589 l 286 575 l 400 579 q 395 586 396 588 z m 430 521 q 426 520 417 520 q 405 520 382 522 q 358 525 353 525 q 338 525 330 522 q 321 520 314 511 q 338 507 372 507 q 406 507 429 511 z m 884 510 l 939 509 l 939 519 q 931 521 920 524 q 910 526 903 526 q 884 526 884 510 z m 342 449 q 365 444 397 444 q 408 444 418 444 q 428 445 461 449 q 437 459 399 459 q 363 459 342 449 z m 911 458 q 910 458 898 458 q 887 458 875 459 q 854 459 853 444 q 875 444 886 444 q 904 444 911 448 z m 491 391 l 385 397 l 375 383 q 402 377 433 377 q 464 377 491 383 z m 819 382 q 830 376 842 376 q 854 376 864 380 q 875 384 883 390 q 871 392 860 394 q 848 396 845 396 q 824 396 819 382 z m 405 330 q 414 321 428 318 q 442 314 463 314 q 474 314 484 315 q 494 316 525 319 q 518 326 519 329 z m 791 329 l 791 319 l 835 315 q 849 315 849 329 z m 552 264 l 443 268 l 437 254 q 464 248 498 248 q 529 248 552 254 z m 811 267 q 789 268 778 268 q 758 268 763 253 q 782 253 792 253 q 809 253 815 257 q 816 259 815 262 q 814 264 811 267 z m 471 200 l 471 186 l 586 186 l 586 196 q 574 199 560 200 q 546 201 528 201 q 513 201 499 200 q 485 200 471 200 z m 787 199 q 781 198 770 199 q 759 200 749 201 q 730 201 729 186 q 748 185 758 185 q 776 185 787 191 z m 508 138 l 500 124 q 528 121 572 120 q 616 119 621 119 l 636 119 l 650 119 l 662 119 q 680 119 698 119 q 716 119 734 120 l 743 120 l 757 134 q 730 137 686 138 q 643 139 636 139 q 604 139 572 138 q 540 138 508 138 z"},"\"":{"x_min":0,"x_max":740,"ha":740,"o":"m 289 733 l 354 721 l 235 495 q 194 483 143 483 q 93 483 52 495 q 52 502 60 520 q 68 539 68 543 q 68 555 53 560 l 3 560 q 14 619 31 680 q 48 740 69 792 q 119 803 185 803 q 213 803 244 802 q 276 800 311 796 z m 100 781 q 72 741 56 684 q 40 626 30 581 q 50 575 67 575 q 83 575 110 578 q 137 582 145 582 q 161 582 169 580 l 273 775 q 266 775 258 774 q 249 774 246 774 q 225 774 184 778 q 143 782 124 782 q 108 782 100 781 z m 224 749 q 224 723 202 686 q 181 648 161 614 q 139 609 124 606 q 109 604 91 604 q 79 604 68 607 q 68 637 81 675 q 94 713 107 749 q 112 748 122 748 q 137 748 163 750 q 189 753 194 753 q 212 753 224 749 z m 165 672 q 155 672 150 672 q 137 672 138 661 l 165 661 z m 629 733 l 694 721 l 575 495 q 534 483 483 483 q 433 483 392 495 q 392 502 400 520 q 408 539 408 543 q 408 555 393 560 l 343 560 q 354 619 371 680 q 388 740 409 792 q 459 803 525 803 q 553 803 584 802 q 616 800 651 796 z m 440 781 q 412 741 396 684 q 380 626 370 581 q 390 575 407 575 q 423 575 450 578 q 477 582 485 582 q 501 582 509 580 l 613 775 q 606 775 598 774 q 589 774 586 774 q 565 774 524 778 q 483 782 464 782 q 448 782 440 781 z m 564 749 q 564 723 542 686 q 521 648 501 614 q 479 609 464 606 q 449 604 431 604 q 419 604 408 607 q 408 637 421 675 q 434 713 447 749 q 452 748 462 748 q 477 748 503 750 q 529 753 534 753 q 552 753 564 749 z m 505 672 q 495 672 490 672 q 477 672 478 661 l 505 661 z"},"7":{"x_min":0,"x_max":945,"ha":945,"o":"m 842 798 q 843 794 843 786 q 842 770 842 762 q 842 753 844 746 q 847 740 856 736 q 878 737 889 737 q 898 737 902 734 q 907 732 909 722 l 903 627 l 470 4 l 431 4 l 395 4 l 364 4 l 337 4 l 313 4 l 292 4 l 274 4 l 258 4 l 243 4 l 231 4 q 212 4 194 4 q 175 4 156 5 l 147 5 q 147 14 162 30 q 176 47 176 53 q 176 61 161 68 l 113 72 l 461 575 q 448 582 434 584 q 421 587 399 587 q 390 587 371 586 q 352 585 343 585 q 337 574 335 558 q 333 541 333 525 l 333 486 q 333 470 332 462 l 67 457 q 62 465 62 479 l 62 494 q 62 509 59 513 q 56 517 47 520 l 5 521 l 0 790 l 10 800 z m 824 780 q 722 780 572 779 q 422 778 288 778 q 153 777 20 776 q 17 752 16 714 q 15 676 15 642 l 15 544 l 247 544 q 247 591 249 610 q 251 628 261 671 l 529 670 l 543 662 q 490 581 410 468 q 331 354 260 253 q 190 152 147 86 l 418 86 q 487 177 556 276 q 625 375 696 479 q 767 583 828 669 z m 801 757 l 794 655 l 412 109 l 198 110 q 249 193 311 284 q 373 376 470 514 q 566 651 590 686 l 576 694 l 238 694 q 230 684 226 670 q 223 657 223 639 q 223 631 224 612 q 225 594 225 585 q 225 573 224 568 q 182 562 136 562 q 91 562 47 568 l 44 752 q 167 752 296 753 q 426 754 555 756 q 684 757 801 757 z m 106 730 q 105 726 97 725 q 89 724 92 716 l 785 718 l 785 722 q 697 722 571 724 q 445 726 320 728 q 195 730 106 730 z m 210 653 q 195 655 174 656 q 154 658 144 658 q 126 658 112 655 q 99 652 91 643 l 210 643 z m 634 656 l 628 642 q 634 643 646 643 q 656 643 677 642 q 698 641 708 641 q 727 641 744 644 q 760 648 771 656 z m 723 590 l 604 595 l 580 581 l 723 584 z m 92 605 l 96 589 q 103 590 110 590 q 116 590 119 590 q 129 590 140 590 q 151 589 162 589 q 178 589 190 591 q 202 593 211 599 q 194 604 180 605 q 166 606 142 606 q 129 606 116 606 q 104 605 92 605 z m 675 527 q 669 526 657 526 q 648 526 626 527 q 605 528 594 528 q 574 528 560 525 q 546 522 538 513 l 675 513 z m 633 462 l 495 462 l 491 452 q 498 453 506 453 q 515 453 520 453 q 536 453 552 452 q 568 452 584 452 q 599 452 615 452 q 627 455 633 456 z m 447 385 q 453 386 460 386 q 468 386 472 386 q 485 386 499 386 q 513 385 528 385 q 551 385 563 386 q 575 388 590 394 q 564 396 538 398 q 512 400 505 400 q 485 400 470 396 q 455 393 447 385 z m 542 333 l 403 333 l 403 320 l 542 323 z m 355 266 l 355 252 q 362 252 370 252 q 379 253 382 253 q 395 253 408 252 q 422 252 436 252 q 459 252 472 254 q 486 257 498 266 z m 450 200 q 429 200 398 202 q 368 205 365 205 q 350 205 336 202 q 322 200 308 195 q 320 189 337 187 q 354 185 375 185 q 392 185 413 187 q 434 189 450 191 z m 415 147 q 398 149 380 151 q 363 153 348 153 q 321 153 302 150 q 284 146 266 137 l 415 143 z"},"S":{"x_min":0,"x_max":1002,"ha":1002,"o":"m 222 340 q 144 367 85 428 q 26 489 1 567 q 0 574 0 588 q 0 624 12 654 q 25 685 49 715 q 110 760 190 780 q 269 800 363 800 q 444 800 519 788 q 594 775 665 751 l 681 794 l 880 794 q 884 789 885 782 q 886 776 886 767 q 886 759 886 750 q 887 742 890 736 l 952 726 l 951 487 q 913 487 846 482 q 779 478 766 478 q 771 474 870 398 q 969 323 969 247 q 969 218 941 147 q 913 76 810 38 q 708 0 563 0 q 491 0 427 16 q 363 31 305 64 q 301 56 301 36 q 301 27 300 18 q 300 8 296 1 l 89 1 q 91 13 91 18 q 91 46 72 58 q 52 70 18 73 l 18 304 q 33 307 56 308 q 78 309 81 309 q 99 309 148 306 q 197 302 220 302 z m 67 710 q 44 686 33 658 q 22 630 15 591 q 28 532 36 510 q 44 487 72 465 q 135 427 207 408 q 279 389 394 369 q 508 349 560 335 l 598 297 q 603 283 603 279 q 603 275 603 270 q 603 242 584 221 q 558 205 528 198 q 497 190 460 190 q 419 190 378 200 q 336 209 301 226 q 279 264 241 278 q 203 293 152 293 q 126 293 84 290 q 42 288 38 288 l 38 83 l 215 88 q 211 121 229 136 q 299 112 384 96 q 470 79 548 79 q 635 79 712 99 q 788 119 847 163 q 890 214 890 286 q 890 329 869 368 q 848 406 805 431 q 762 456 716 468 q 669 481 523 506 q 377 530 306 566 q 297 580 297 597 q 297 627 316 646 q 367 666 434 666 q 523 666 599 631 q 628 593 664 580 q 700 566 748 566 q 770 566 814 570 q 858 573 871 573 q 871 591 872 626 q 873 662 873 679 q 873 708 871 732 q 869 756 862 780 l 705 781 q 698 779 694 774 q 690 769 690 756 l 690 740 q 690 725 681 717 q 538 784 366 784 q 281 784 207 766 q 133 749 67 710 z m 599 566 q 579 566 532 572 q 484 579 468 579 q 443 579 427 574 q 411 570 393 556 l 728 488 q 707 516 672 536 q 637 557 599 566 z m 220 302 q 295 250 343 227 q 391 204 447 204 q 468 204 492 208 q 515 212 540 221 q 551 228 562 236 q 568 242 564 249 l 222 340 z m 469 752 q 524 752 584 730 q 644 709 704 675 q 718 682 718 705 q 717 725 717 734 q 717 741 719 751 l 842 750 q 841 741 841 725 q 841 710 844 682 q 847 654 847 640 q 847 631 846 620 q 845 609 842 597 l 688 593 q 640 646 572 668 q 504 691 423 691 q 384 691 336 686 q 306 668 293 658 q 280 648 274 628 q 268 614 268 602 q 268 571 298 543 l 350 513 q 396 501 509 484 q 622 467 689 450 q 756 433 817 392 q 839 366 853 336 q 867 307 867 277 q 867 258 861 238 q 825 163 754 136 q 683 108 581 108 q 544 108 475 112 q 406 116 376 116 q 337 121 288 142 q 240 164 195 184 q 192 176 191 166 q 190 156 190 147 q 190 125 185 112 q 163 110 142 108 q 122 106 117 106 q 99 106 85 109 q 71 112 62 121 l 62 260 l 210 264 q 254 213 316 190 q 378 168 453 168 q 504 168 542 174 q 579 181 597 202 q 615 222 626 249 q 626 288 611 317 q 596 346 551 364 q 506 382 382 398 q 257 415 182 440 q 106 464 53 533 q 43 554 43 582 q 43 601 48 622 q 54 644 63 663 q 105 717 169 736 q 233 754 320 754 q 356 754 392 753 q 429 752 466 751 z m 121 653 l 115 639 l 254 638 q 258 637 263 642 q 268 646 268 652 z m 693 659 l 632 665 q 637 649 658 649 q 665 649 676 652 q 688 654 693 655 z m 688 613 q 704 607 721 604 q 738 602 762 602 q 774 602 786 602 q 797 603 828 607 l 828 617 q 811 617 794 617 q 776 617 758 618 q 739 618 721 617 q 703 616 688 613 z m 101 591 l 97 575 q 115 575 134 574 q 152 574 171 574 l 183 574 q 227 574 258 581 l 258 585 q 236 590 208 591 q 180 592 168 592 q 151 592 134 592 q 118 591 101 591 z m 828 685 l 766 685 l 770 669 l 782 669 l 800 669 q 818 669 828 675 z m 106 519 l 106 513 l 306 513 q 289 518 266 520 q 244 522 220 522 q 191 522 162 521 q 134 520 106 519 z m 178 461 l 178 455 q 209 449 242 447 q 274 445 312 445 q 334 445 378 446 q 422 447 445 447 q 414 457 382 460 q 350 464 306 464 q 274 464 242 463 q 210 462 178 461 z m 469 403 q 496 396 529 392 q 562 389 600 389 q 636 389 680 390 q 723 392 751 393 q 717 400 684 402 q 650 405 600 405 q 578 405 534 404 q 490 403 469 403 z m 646 321 q 695 310 753 310 q 808 310 847 320 q 801 330 742 330 q 687 330 646 321 z m 226 704 l 589 703 q 499 720 402 720 q 305 720 226 704 z m 847 262 l 680 263 l 679 249 l 847 254 z m 233 226 l 114 232 l 114 216 l 233 216 z m 703 201 q 697 196 684 196 q 672 197 667 197 q 653 197 649 187 q 668 187 703 184 q 738 182 746 182 q 767 182 786 186 q 804 189 817 197 z m 171 168 q 145 170 132 170 q 123 170 116 166 q 110 163 109 155 l 177 154 q 177 166 171 168 z m 258 177 l 258 169 l 344 162 q 336 172 324 174 q 312 177 305 177 q 282 176 272 176 q 262 176 258 177 z m 372 136 q 445 120 535 120 q 621 120 693 135 z"},"}":{"x_min":0,"x_max":333,"ha":333,"o":"m 306 299 l 306 219 q 268 218 244 198 q 221 179 213 146 q 205 112 204 30 q 204 -51 202 -77 q 197 -118 185 -142 q 173 -167 156 -182 q 138 -197 111 -205 q 92 -210 50 -210 l 23 -210 l 23 -134 l 38 -134 q 89 -134 106 -116 q 122 -97 122 -33 q 122 89 126 122 q 134 176 158 208 q 181 241 224 259 q 168 286 145 330 q 122 374 122 479 q 122 574 120 593 q 116 625 100 638 q 84 651 38 651 l 23 651 l 23 728 l 50 728 q 98 728 120 720 q 151 709 172 684 q 192 659 198 620 q 204 582 204 494 q 205 406 213 372 q 221 339 244 320 q 268 300 306 299 z"},"Z":{"x_min":0,"x_max":1101,"ha":1101,"o":"m 294 462 q 243 462 166 460 q 88 459 79 459 q 75 464 74 470 q 73 477 73 486 l 73 499 q 73 510 69 518 q 63 522 47 522 q 35 522 26 522 q 18 523 11 528 l 8 796 l 994 798 q 998 791 998 780 q 997 766 997 759 q 997 740 1011 735 l 1060 731 l 1059 621 q 990 564 906 498 q 821 431 730 362 q 638 292 553 228 q 569 220 588 216 q 607 213 631 213 q 657 213 697 216 q 737 218 740 218 q 758 218 766 217 q 773 235 776 253 q 778 271 778 298 q 778 309 777 334 q 776 358 776 371 q 821 375 884 375 q 911 375 930 375 q 950 375 993 371 q 995 365 998 331 q 1000 297 1022 297 q 1031 297 1045 303 l 1059 303 l 1058 0 l 68 2 q 62 10 62 28 q 62 41 62 54 q 36 71 0 71 l 0 215 l 296 449 z m 32 786 l 22 772 l 25 541 l 208 545 q 209 551 209 558 q 209 565 209 569 q 209 579 208 590 q 208 600 208 611 q 208 634 210 646 q 213 658 224 671 l 598 664 q 516 593 454 544 q 391 496 237 378 q 83 261 14 205 l 20 85 l 976 86 l 982 341 l 972 361 l 794 357 q 794 345 795 319 q 796 293 796 280 q 796 254 794 235 q 791 216 784 197 l 395 204 q 469 269 538 323 q 607 377 742 478 q 877 578 925 616 l 945 645 l 949 639 q 967 648 974 664 q 980 679 980 702 q 980 719 976 749 q 973 779 973 784 z m 296 449 l 454 579 q 437 582 412 583 q 387 584 382 584 q 364 584 346 584 q 328 583 310 583 q 300 564 297 532 q 294 501 294 462 z m 319 180 q 374 180 553 176 q 732 173 808 173 q 819 199 819 256 q 819 312 824 333 l 948 333 l 948 110 l 48 113 q 45 126 42 142 q 39 158 39 173 q 39 190 44 199 q 147 273 222 332 q 298 390 458 517 q 618 644 675 688 q 622 694 567 696 q 512 698 449 698 q 385 698 288 696 q 191 695 190 695 q 185 678 184 663 q 183 648 183 623 q 183 609 183 596 q 183 582 184 569 q 168 567 146 566 q 123 564 112 564 q 91 564 76 568 q 61 571 49 580 l 56 758 l 949 756 l 949 669 q 863 599 722 494 q 582 390 490 320 q 398 249 319 180 z m 165 667 q 159 665 143 667 q 127 669 122 669 q 101 669 97 654 l 169 654 q 169 664 165 667 z m 905 660 l 723 660 l 709 646 l 887 640 z m 165 599 q 163 599 150 599 q 138 599 124 600 q 112 600 106 598 q 99 595 97 585 l 169 585 q 169 598 165 599 z m 636 592 l 622 578 l 805 578 q 819 578 819 592 z m 940 722 l 98 720 l 98 714 l 939 712 z m 736 526 l 568 530 q 566 526 551 525 q 536 524 540 510 l 722 510 z m 468 462 l 458 448 q 475 448 518 446 q 560 444 564 444 q 594 444 612 446 q 629 449 650 458 q 629 461 596 462 q 563 463 559 463 q 536 463 514 462 q 491 462 468 462 z m 382 397 q 376 397 370 394 q 365 390 367 383 q 397 383 442 380 q 487 378 491 378 q 520 378 531 380 q 542 381 564 386 l 564 396 l 543 396 l 523 396 l 505 396 l 490 396 l 478 396 l 466 396 q 448 396 430 396 q 411 396 393 397 z m 295 335 l 285 319 l 467 318 l 481 328 q 452 333 428 334 q 405 335 365 335 z m 199 257 q 218 254 247 253 q 276 252 304 252 l 381 252 l 395 266 q 373 266 331 268 q 289 271 280 271 q 251 271 234 268 q 218 266 199 257 z m 938 265 l 886 269 q 885 264 877 264 q 872 264 868 264 q 863 263 866 255 q 881 251 903 251 q 925 251 938 255 z m 127 205 l 117 191 q 144 188 167 186 q 190 184 214 184 q 254 184 295 190 q 299 189 304 194 q 309 198 309 204 z m 938 203 q 934 202 924 202 q 916 202 908 202 q 901 202 894 203 q 871 203 866 189 l 938 189 z m 938 135 l 131 143 q 126 138 108 138 q 89 138 86 127 q 262 127 386 126 q 511 124 689 122 q 867 121 938 121 z"},"x":{"x_min":0,"x_max":1042,"ha":1042,"o":"m 493 639 q 497 633 497 618 q 497 600 501 593 q 507 589 520 589 q 533 589 539 588 q 546 596 548 610 q 549 625 550 638 l 957 638 q 956 635 956 632 q 956 628 956 627 q 956 577 1009 583 l 1009 469 l 880 469 l 696 328 q 725 296 758 269 q 791 242 890 171 l 955 171 q 955 141 966 128 q 976 115 993 115 q 997 115 1005 117 l 1012 2 l 523 0 q 519 6 519 22 l 519 34 q 519 44 516 50 q 514 55 504 58 q 483 62 472 50 q 462 37 462 14 l 462 3 l 57 4 q 56 9 56 21 q 56 39 54 48 q 51 56 38 58 l 7 58 q 5 68 4 88 q 3 109 3 120 l 3 169 q 22 165 44 165 q 122 165 209 246 q 296 326 328 345 q 305 369 269 398 q 233 428 168 470 q 157 473 144 473 q 131 473 110 470 q 88 468 85 468 q 68 468 58 474 q 49 481 49 499 q 49 507 50 512 q 45 516 34 520 q 17 524 1 529 q 1 543 0 557 q 0 571 0 586 q 0 618 9 640 z m 479 626 l 23 627 q 19 620 17 608 q 15 596 15 585 q 15 562 20 537 l 115 536 l 355 348 q 320 327 257 269 q 194 211 150 183 q 107 155 54 155 q 37 155 19 158 q 19 146 18 134 q 18 121 18 109 q 18 93 19 86 q 20 78 26 66 q 83 66 208 69 q 333 72 393 72 l 396 126 q 397 130 397 134 q 397 137 397 138 q 397 150 390 156 q 384 163 363 163 q 353 163 341 162 q 329 161 317 160 q 302 160 294 165 q 348 215 381 242 q 414 268 440 282 q 490 247 526 220 q 561 193 588 164 q 534 160 481 156 l 486 72 l 944 70 l 940 160 l 849 160 l 607 347 q 726 440 845 534 l 933 534 q 946 546 946 576 q 946 592 944 605 q 942 618 941 625 l 566 626 l 563 554 q 566 542 576 538 q 587 534 608 534 l 643 534 q 661 534 673 530 q 604 462 519 413 q 447 472 375 531 q 392 535 416 535 l 450 535 q 467 535 482 538 z m 520 462 q 521 456 529 452 q 537 449 538 448 q 542 452 570 469 q 599 486 599 503 q 599 508 596 516 q 579 526 569 526 q 556 526 555 492 q 554 459 536 459 q 531 459 520 462 z m 481 225 l 416 172 q 415 155 415 147 q 415 134 420 126 l 458 130 q 454 141 454 151 q 454 174 485 177 q 511 178 538 180 q 529 195 514 206 q 500 218 481 225 z m 926 557 l 837 554 l 582 352 q 612 318 654 284 q 697 250 757 205 q 817 160 844 136 l 926 136 l 925 90 l 516 88 q 499 88 499 104 q 499 111 500 120 q 501 130 500 134 q 506 135 520 136 q 535 136 547 137 l 585 137 q 606 137 618 138 q 631 139 645 145 q 612 181 538 235 q 463 289 443 306 q 363 251 318 216 q 273 180 237 146 q 249 141 268 139 q 288 137 308 137 q 324 137 340 137 q 357 137 374 138 q 378 130 378 118 q 377 103 377 96 q 349 92 300 90 q 251 88 214 88 l 193 88 l 175 88 l 157 88 l 142 88 l 130 88 q 111 88 92 88 q 72 88 53 89 l 41 89 q 37 97 37 110 q 38 127 38 135 l 126 143 q 213 209 270 253 q 326 297 382 345 l 374 359 l 118 555 l 39 559 l 39 605 l 463 604 l 462 558 q 445 558 428 558 q 412 558 395 559 q 366 559 351 558 q 336 556 318 550 q 359 516 413 472 q 467 429 517 390 q 555 410 582 430 q 608 449 730 549 q 711 555 680 557 q 650 559 645 559 q 630 559 615 558 q 600 558 586 558 l 586 603 l 922 602 q 927 594 927 580 q 926 565 926 557 z m 219 528 l 218 517 q 233 517 248 516 q 264 516 279 516 q 292 516 306 516 q 325 519 334 520 q 323 525 306 527 q 288 529 272 529 q 258 529 245 528 q 232 528 219 528 z m 749 515 l 760 516 q 766 515 772 516 q 777 517 776 523 q 771 526 767 526 q 753 526 749 515 z m 910 576 l 624 577 l 627 566 l 910 565 z m 282 474 l 282 467 q 307 463 343 463 q 354 463 366 464 q 379 464 398 467 q 388 471 370 473 q 352 475 338 475 q 324 475 310 474 q 296 474 282 474 z m 684 462 l 697 462 q 702 464 706 466 q 711 467 708 473 q 700 475 692 472 q 683 468 684 462 z m 347 421 q 364 409 397 409 q 409 409 433 411 q 457 413 467 413 q 456 418 438 420 q 419 422 402 422 q 388 422 374 422 q 361 421 347 421 z m 615 413 q 626 412 631 412 q 639 412 642 420 q 631 421 626 421 q 618 421 615 413 z m 421 371 l 421 363 q 463 358 502 358 q 516 358 534 358 q 551 359 577 366 q 572 370 567 370 q 564 370 552 364 q 540 357 535 358 q 525 365 510 368 q 496 371 482 371 q 469 371 458 370 q 448 370 440 370 q 427 370 421 371 z m 462 318 q 476 311 498 308 q 520 306 527 306 q 545 306 564 307 q 582 308 601 309 q 554 321 504 321 q 483 321 462 318 z m 405 306 q 424 306 424 318 q 416 319 408 316 q 400 312 405 306 z m 336 257 q 355 257 358 263 q 355 267 350 267 q 338 267 336 257 z m 550 268 l 558 257 q 573 257 588 256 q 604 256 620 256 l 632 256 q 649 256 664 259 q 650 265 627 267 q 604 269 601 269 q 588 269 576 268 q 563 268 550 268 z m 78 578 l 77 566 l 451 569 l 451 574 q 388 574 238 576 q 89 578 78 578 z m 614 214 q 628 207 640 204 q 652 202 670 202 q 685 202 709 204 q 733 205 734 205 q 722 212 710 214 q 699 217 681 217 q 665 217 648 216 q 631 215 614 214 z m 270 206 q 290 206 294 214 q 284 215 279 215 q 270 215 270 206 z m 202 154 q 210 152 216 154 q 223 156 225 162 q 220 168 212 164 q 203 160 202 154 z m 683 164 l 691 153 q 707 153 722 152 q 738 152 754 152 q 778 152 798 155 q 784 161 761 163 q 738 165 734 165 q 721 165 708 164 q 696 164 683 164 z m 913 106 q 883 109 838 110 q 793 111 787 111 q 735 111 646 108 q 558 106 538 106 q 659 102 744 100 q 828 98 902 98 z m 363 107 q 315 107 202 109 q 88 111 79 111 l 79 100 l 362 104 z"},")":{"x_min":0,"x_max":459,"ha":459,"o":"m 404 625 q 404 574 418 452 q 432 329 432 286 q 432 194 404 126 q 377 59 306 19 q 265 6 214 4 q 164 1 90 1 q 80 7 80 24 l 80 43 q 80 52 76 59 q 56 54 46 54 q 25 54 17 66 q 9 79 9 102 q 9 112 12 142 q 16 171 16 184 q 16 200 12 208 q 25 213 45 213 q 52 213 68 212 q 83 211 91 211 q 112 211 124 217 q 137 223 143 241 l 134 578 q 127 582 110 582 q 99 582 88 582 q 77 583 68 588 q 67 592 67 600 q 68 617 68 625 q 68 645 54 650 l 6 650 l 0 799 q 27 796 54 796 q 83 796 111 797 q 139 798 167 799 q 209 799 239 794 q 269 788 299 770 z m 240 780 q 210 780 178 781 q 146 782 114 783 q 94 783 71 782 q 48 782 14 774 q 15 768 15 754 q 15 744 14 734 q 14 724 14 714 q 14 701 16 689 q 19 677 24 668 q 30 667 42 667 q 51 667 60 667 q 69 667 78 668 q 111 668 126 660 q 142 652 150 636 l 163 241 q 151 205 107 197 q 68 192 29 187 q 29 172 28 158 q 28 143 28 128 q 28 102 32 83 q 57 83 103 80 q 149 78 159 78 q 220 78 263 94 q 306 110 331 155 q 341 252 341 365 q 341 450 336 526 q 332 603 322 702 q 311 731 290 752 q 270 773 240 780 z m 302 688 l 317 187 q 301 138 263 121 q 225 104 166 104 q 141 104 116 105 q 91 106 67 107 q 57 111 57 130 q 57 146 57 163 q 127 177 154 188 q 180 199 187 241 l 178 626 q 170 649 152 668 q 134 686 110 692 l 44 698 q 43 704 43 717 q 43 738 50 750 q 57 761 76 761 q 82 761 88 760 q 94 759 103 759 q 112 759 121 759 q 133 759 146 759 q 159 759 172 760 q 226 760 258 746 q 290 733 302 688 z m 92 722 l 92 712 q 102 710 115 709 q 128 708 139 708 q 158 708 194 712 q 230 716 250 716 q 225 721 206 722 q 188 723 159 723 q 139 723 122 722 q 105 722 92 722 z m 202 660 l 202 650 q 214 648 228 646 q 241 644 253 644 q 267 644 277 646 q 287 648 294 654 q 282 659 271 660 q 260 661 241 661 q 231 661 222 660 q 212 660 202 660 z m 230 582 q 242 578 263 578 q 282 578 294 582 l 294 592 q 280 594 274 595 q 268 596 263 596 q 251 596 244 594 q 237 591 230 582 z m 230 516 l 294 515 l 294 523 q 282 526 272 528 q 261 530 253 530 q 233 530 230 516 z m 236 461 l 236 452 q 250 446 268 446 q 287 446 298 457 q 290 461 270 461 q 253 461 236 461 z m 297 395 q 284 397 274 398 q 263 400 260 400 q 238 400 235 385 q 258 385 269 385 q 289 385 297 389 z m 297 331 q 291 330 280 330 q 270 331 261 332 q 250 332 244 330 q 239 329 235 323 l 297 323 z m 235 255 q 244 252 254 250 q 263 249 272 249 q 291 249 301 259 q 283 265 264 265 q 243 265 235 255 z m 301 197 q 286 199 271 201 q 256 203 252 203 q 239 203 230 200 q 221 196 215 187 l 301 193 z m 109 150 l 105 136 q 122 136 152 134 q 181 133 182 133 q 206 133 222 136 q 239 140 254 150 z"},"&":{"x_min":0,"x_max":1122,"ha":1122,"o":"m 836 635 q 837 629 837 623 q 837 617 837 611 q 837 572 826 540 q 816 507 792 479 l 701 408 q 702 396 714 385 q 725 374 735 365 q 755 365 794 391 q 833 417 852 417 q 865 417 876 408 q 887 399 897 378 q 901 384 910 384 q 917 384 924 384 q 936 366 978 331 q 1019 296 1025 269 q 1001 257 962 230 q 923 203 914 198 q 999 103 1085 8 l 740 9 q 716 38 692 50 q 668 61 639 61 q 604 61 526 30 q 449 0 407 0 q 387 0 364 6 q 351 5 342 4 q 332 4 326 4 q 246 4 177 40 q 108 75 43 139 q 23 163 12 193 q 0 223 0 253 q 0 274 13 317 q 26 360 84 398 q 142 436 223 461 q 193 498 163 536 q 132 580 132 622 q 132 634 133 640 q 133 671 150 700 q 167 730 220 765 q 341 787 396 794 q 452 800 506 800 q 622 800 706 764 q 790 727 836 635 z m 613 772 q 570 772 500 775 q 430 778 429 778 q 340 778 277 760 q 214 741 167 688 q 153 660 153 631 q 153 579 206 514 q 244 471 261 451 q 194 425 127 400 q 50 364 36 318 q 23 272 23 250 q 23 195 57 153 q 105 115 167 98 q 229 81 302 81 q 376 81 446 94 q 516 108 592 132 q 620 105 655 94 q 690 83 732 83 q 754 83 812 88 q 870 94 889 94 q 916 94 937 90 q 924 113 870 164 q 816 216 811 222 q 823 246 868 272 q 914 298 924 307 q 895 363 839 392 l 717 321 l 593 436 l 593 450 q 668 488 696 508 q 723 529 741 558 q 747 585 750 606 q 754 626 754 642 q 754 659 752 666 q 751 674 740 698 q 730 722 693 744 q 656 765 613 772 z m 721 564 q 696 528 648 503 q 599 478 555 456 q 582 417 624 376 q 665 336 707 297 q 728 297 775 330 q 822 364 839 364 q 853 364 866 354 q 878 345 891 321 l 891 313 l 772 236 l 886 117 l 663 108 q 650 134 634 146 q 618 157 599 157 q 582 157 532 138 q 483 118 463 118 q 427 118 356 114 q 284 109 271 109 q 190 109 134 130 q 79 150 47 210 q 42 232 42 248 q 42 300 74 334 q 105 367 166 392 q 226 417 298 446 q 288 459 230 520 q 173 582 173 633 q 173 658 186 684 q 230 725 289 740 q 348 754 427 754 q 458 754 520 751 q 582 748 613 748 q 645 737 678 727 q 714 711 726 677 q 732 650 732 625 q 732 593 721 564 z m 319 707 l 664 707 q 587 717 491 717 q 396 717 319 707 z m 427 670 q 418 659 412 644 q 405 629 405 617 q 405 607 409 599 q 446 555 460 540 q 473 526 498 517 q 533 546 556 568 q 578 591 578 621 q 578 629 575 640 q 565 664 542 676 q 518 688 489 688 q 453 688 427 670 z m 386 650 q 366 650 346 650 q 326 650 307 651 q 288 651 268 650 q 248 649 228 646 l 228 640 l 386 646 z m 607 653 q 615 645 626 642 q 638 639 653 639 q 666 639 685 642 q 704 644 712 645 q 703 651 685 653 q 667 655 663 655 q 654 655 635 654 q 616 653 607 653 z m 247 579 q 282 573 321 573 q 360 573 393 579 q 359 589 319 589 q 280 589 247 579 z m 627 588 l 626 574 q 632 574 647 573 q 662 572 670 572 q 694 572 707 582 q 697 587 688 588 q 678 589 662 589 q 653 589 644 588 q 635 588 627 588 z m 314 522 l 314 512 l 456 512 q 438 520 418 522 q 397 523 378 523 q 362 523 346 522 q 330 522 314 522 z m 565 511 q 570 512 580 512 q 589 512 596 512 q 604 511 610 511 q 631 511 640 521 q 635 521 622 522 q 608 523 601 523 q 589 523 580 520 q 571 518 565 511 z m 521 456 l 379 460 l 375 450 q 406 446 449 446 q 492 446 521 450 z m 403 389 q 448 383 496 383 q 543 383 588 389 q 559 399 526 399 q 506 399 461 394 q 416 389 403 389 z m 257 386 q 266 380 277 380 q 288 380 297 384 q 306 387 314 393 q 307 392 298 392 q 288 393 280 394 q 264 394 257 386 z m 362 385 q 321 370 281 356 q 236 336 219 299 q 217 285 217 278 q 217 227 260 196 q 306 176 364 176 q 454 176 527 219 q 492 264 450 306 q 409 348 362 385 z m 128 319 q 137 319 148 318 q 159 318 172 317 q 180 317 188 319 q 195 321 203 328 q 186 333 169 333 q 141 333 128 319 z m 507 332 l 507 322 l 650 321 q 635 328 616 330 q 598 333 571 333 q 554 333 538 332 q 522 332 507 332 z m 800 308 q 818 307 827 307 q 841 307 847 316 q 828 317 819 317 q 803 317 800 308 z m 568 260 q 585 255 604 253 q 623 251 642 251 q 673 251 715 257 q 757 263 778 266 q 753 266 729 266 q 705 266 683 267 q 646 267 623 266 q 600 265 568 260 z m 185 267 q 180 266 168 266 q 158 266 148 266 q 139 266 130 267 q 115 267 108 264 q 102 262 100 252 l 189 251 q 189 264 185 267 z m 574 195 l 782 195 q 736 205 677 205 q 618 205 574 195 z m 104 200 q 113 192 128 188 q 144 185 165 185 q 185 185 208 187 q 225 190 232 190 q 220 196 204 198 q 189 200 173 200 l 122 200 z m 497 156 q 503 157 515 157 l 527 157 q 541 157 546 158 q 552 160 558 166 q 549 169 538 169 q 514 169 497 156 z m 700 132 q 712 127 726 125 q 740 123 754 123 q 774 123 810 127 q 847 131 849 131 q 835 137 822 139 q 809 141 795 141 q 777 141 744 136 q 710 132 700 132 z m 195 139 l 189 129 q 222 129 280 126 q 339 124 351 124 q 369 124 391 124 q 413 125 446 132 q 408 137 376 138 q 343 139 289 139 z m 555 616 q 537 580 523 562 q 509 545 484 545 q 477 554 452 578 q 428 603 428 621 q 428 628 434 640 q 439 653 454 656 q 470 660 484 664 q 520 660 539 652 q 558 644 555 616 z m 487 223 q 459 214 427 208 q 395 202 367 202 q 308 202 256 228 q 237 247 237 276 q 237 295 247 308 q 264 326 307 344 q 350 362 351 362 q 388 330 425 299 q 467 260 487 223 z m 389 284 q 356 272 334 262 q 313 251 313 223 q 328 220 338 219 q 347 218 365 218 q 421 218 450 243 q 432 262 419 275 q 406 288 389 284 z"},"_":{"x_min":0,"x_max":770,"ha":770,"o":"m 599 -19 q 597 -22 597 -28 q 597 -50 624 -63 q 651 -76 707 -76 q 715 -76 735 -75 l 734 -182 l 136 -181 q 128 -177 128 -168 q 128 -165 130 -159 q 131 -153 131 -150 q 131 -142 122 -137 q 114 -132 87 -130 l 0 -130 l 0 -22 l 38 -14 q 111 -17 188 -18 q 266 -20 370 -20 l 399 -20 l 424 -20 l 445 -20 l 467 -20 l 483 -20 q 509 -20 535 -20 q 561 -20 586 -19 z m 569 -33 l 38 -30 l 38 -118 l 568 -115 z m 506 -52 q 513 -55 516 -61 q 519 -67 519 -73 l 519 -88 l 519 -96 l 87 -96 q 89 -93 89 -87 q 89 -82 88 -78 q 87 -73 87 -68 q 87 -60 90 -56 q 94 -51 108 -48 z m 486 -81 l 187 -78 l 200 -89 q 236 -89 272 -89 q 309 -89 347 -89 l 364 -89 q 433 -89 486 -85 z"},"v":{"x_min":0,"x_max":1049,"ha":1049,"o":"m 459 634 q 463 629 463 620 q 462 609 462 603 q 462 586 478 585 l 511 585 l 516 470 q 512 469 503 468 q 494 467 487 467 q 473 467 458 466 q 444 466 434 459 q 477 352 538 249 q 568 292 593 344 q 618 397 642 462 q 632 460 629 460 q 611 460 609 493 q 607 526 591 526 q 581 526 566 519 q 560 528 558 536 q 557 545 557 553 q 557 561 559 583 q 561 605 561 607 q 561 619 558 631 l 569 638 l 967 636 q 971 631 971 621 q 970 608 970 602 q 970 584 989 584 l 1019 584 q 1022 572 1023 559 q 1024 546 1024 527 q 1024 510 1023 500 q 1022 490 1019 472 l 890 465 l 667 0 l 422 1 q 408 25 398 41 q 387 57 369 57 q 363 57 354 54 l 342 54 l 145 460 q 137 464 126 466 q 115 468 104 468 q 96 468 80 467 q 64 466 57 466 q 54 491 51 507 q 48 523 31 523 l 19 521 l 6 521 q 3 538 2 558 q 0 578 0 603 l 0 633 q 36 636 94 637 q 153 638 161 638 q 212 638 334 636 q 455 634 459 634 z m 593 626 l 574 618 l 577 535 l 594 535 q 604 535 615 535 q 626 535 638 536 q 661 536 672 534 q 683 533 694 527 q 596 312 575 270 q 554 228 510 157 l 496 168 l 331 509 l 331 531 l 382 531 q 418 531 442 536 q 448 557 448 583 q 448 603 443 623 l 19 625 q 19 614 18 602 q 18 591 18 579 q 18 567 18 558 q 18 549 22 532 q 35 532 49 532 q 63 532 77 533 q 106 533 129 529 l 354 65 q 376 65 422 64 q 469 63 493 63 q 518 63 549 64 q 580 64 625 72 l 828 500 q 831 521 843 528 q 855 536 875 536 q 887 536 900 535 q 912 534 925 533 q 941 533 950 538 l 948 622 q 908 626 856 626 q 824 626 752 624 q 679 622 677 622 l 665 622 q 624 622 593 626 z m 424 599 l 426 558 q 420 557 402 556 q 383 555 382 555 q 360 555 338 554 q 315 554 298 547 l 491 141 q 498 137 506 137 q 516 137 526 138 q 631 338 722 550 l 596 554 q 593 560 593 575 l 593 596 l 604 604 l 932 603 q 936 596 936 581 q 936 567 937 560 q 928 556 916 554 q 903 552 891 552 q 883 552 864 553 q 846 554 836 554 l 614 91 l 366 88 q 319 184 290 242 q 261 299 211 400 q 161 501 140 547 q 131 556 109 556 q 101 556 80 554 q 60 552 59 552 q 31 552 31 572 q 31 583 38 600 z m 83 578 l 77 567 l 413 566 l 413 574 q 356 574 224 576 q 92 578 83 578 z m 921 576 l 637 577 l 634 566 l 921 565 z m 194 524 l 198 513 l 293 512 l 293 520 q 283 522 264 523 q 244 524 232 524 z m 802 522 l 756 522 l 759 511 q 763 512 771 512 l 783 512 q 796 512 802 516 z m 756 473 q 739 469 732 468 q 726 466 732 458 q 737 459 744 458 q 752 458 760 458 q 776 458 778 470 z m 224 471 l 229 460 l 320 463 q 316 468 317 470 z m 344 417 q 335 415 313 418 q 291 421 283 421 q 260 421 251 409 q 257 408 272 407 q 286 406 298 406 q 322 406 343 409 z m 707 408 l 751 407 l 751 415 q 743 417 734 419 q 725 421 722 421 q 708 421 707 408 z m 274 359 q 293 355 317 355 q 332 355 348 355 q 363 358 369 359 q 360 363 346 365 q 333 367 320 367 q 293 367 274 359 z m 729 366 q 710 367 700 367 q 683 367 682 355 q 701 355 709 355 q 723 355 729 358 z m 393 313 l 308 318 l 300 306 q 320 302 347 302 q 374 302 393 306 z m 655 306 q 663 302 673 302 q 682 302 691 304 q 700 307 706 312 q 686 317 675 317 q 659 317 655 306 z m 324 264 q 331 257 342 254 q 353 252 371 252 q 383 252 396 253 q 408 254 420 255 q 414 261 415 263 z m 633 263 l 633 255 l 668 252 q 679 252 679 263 z m 442 211 l 354 214 l 350 203 q 358 201 377 200 q 396 199 398 199 q 407 199 418 200 q 428 200 442 203 z m 649 214 q 631 214 622 214 q 606 214 610 202 q 626 202 634 202 q 645 202 652 206 q 653 208 649 214 z m 377 160 l 377 149 l 469 149 l 469 157 q 461 159 446 159 q 431 159 422 160 z m 630 159 q 609 161 599 161 q 584 161 583 149 q 599 148 607 148 q 621 148 630 153 z m 406 110 l 400 99 q 410 98 434 97 q 459 96 497 96 l 594 96 l 606 107 q 569 111 516 111 q 488 111 460 110 q 433 110 406 110 z"},"O":{"x_min":0,"x_max":1080,"ha":1080,"o":"m 1021 553 q 1055 484 1055 398 q 1055 328 1032 261 q 1009 194 954 126 q 898 58 799 30 q 700 2 561 2 q 515 2 468 3 q 422 4 376 5 q 268 23 170 99 q 72 175 20 277 q 10 317 4 360 q -1 402 -1 445 q -1 514 15 570 q 31 626 69 669 q 129 745 218 774 q 306 802 424 802 q 466 802 549 798 q 632 794 671 794 q 772 794 833 742 q 894 691 1021 553 z m 661 781 q 613 781 538 784 q 462 786 450 786 q 329 786 242 762 q 154 739 102 683 q 51 627 32 566 q 14 504 14 435 q 14 335 48 253 q 87 174 162 129 q 238 84 323 84 q 360 84 440 80 q 520 77 551 77 q 682 77 774 108 q 865 140 906 204 q 948 269 960 318 q 973 368 973 423 q 973 526 935 605 q 900 687 824 734 q 748 781 661 781 z m 915 591 q 946 518 946 429 q 946 369 932 319 q 919 269 890 226 q 832 156 748 130 q 665 104 553 104 q 502 104 398 110 q 294 116 280 116 q 203 140 148 174 q 94 209 68 271 q 57 309 49 357 q 41 405 41 446 q 41 501 54 552 q 68 602 97 641 q 152 709 234 734 q 315 759 424 759 q 477 759 572 754 q 667 750 675 750 q 755 737 820 698 q 884 659 915 591 z m 296 709 l 753 708 q 694 716 638 720 q 581 724 516 724 q 400 724 296 709 z m 354 645 q 311 607 294 554 q 276 502 276 435 q 276 396 281 348 q 290 295 325 248 q 360 200 409 184 q 452 174 488 174 q 543 174 591 195 q 639 216 670 259 q 706 336 706 430 q 706 494 688 548 q 670 601 632 640 q 576 691 488 691 q 406 691 354 645 z m 647 650 q 672 643 696 640 q 721 638 759 638 q 776 638 810 639 q 843 640 859 640 l 859 650 q 812 660 750 660 q 690 660 647 650 z m 176 655 l 166 641 l 320 641 q 334 641 334 655 z m 117 579 q 156 573 200 573 q 243 573 282 579 l 282 589 q 268 589 237 591 q 206 593 190 593 q 164 593 149 590 q 134 588 117 579 z m 715 592 l 715 578 l 901 577 l 901 587 q 877 591 854 592 q 832 593 801 593 q 779 593 758 592 q 736 592 715 592 z m 921 523 l 766 530 q 763 525 754 525 q 748 525 744 525 q 739 525 742 516 q 765 513 790 511 q 815 509 839 509 q 882 509 921 515 z m 261 525 l 97 525 l 93 517 q 108 511 124 508 q 140 506 162 506 q 186 506 223 508 q 260 511 261 511 z m 257 459 q 217 463 172 463 q 147 463 122 463 q 99 460 89 459 l 89 449 q 130 443 176 443 q 218 443 257 449 z m 763 461 l 756 447 l 931 447 l 931 457 q 912 460 882 461 q 852 462 847 462 q 826 462 805 462 q 784 461 763 461 z m 931 395 q 887 395 850 394 q 814 394 756 389 l 756 385 q 798 379 844 379 q 889 379 931 385 z m 261 390 q 239 393 215 395 q 191 397 165 397 q 119 397 89 387 q 125 377 175 377 q 224 377 261 387 z m 762 331 l 752 317 q 769 314 796 313 q 824 312 828 312 q 845 312 862 312 q 879 312 897 313 l 906 313 q 920 313 920 327 q 902 330 874 331 q 845 332 841 332 q 821 332 802 332 q 782 331 762 331 z m 103 329 l 103 315 q 128 315 166 312 q 203 310 210 310 q 231 310 241 311 q 251 312 271 318 q 268 323 265 328 z m 285 266 q 272 266 242 267 q 212 268 196 268 q 172 268 152 266 q 133 264 116 257 q 152 246 204 246 q 225 246 252 248 q 278 250 299 252 z m 890 265 l 732 265 l 728 251 l 890 255 z m 673 187 q 688 187 726 185 q 764 183 768 183 q 795 183 810 186 q 825 188 842 197 q 815 203 786 203 q 759 203 731 198 q 703 194 673 187 z m 150 198 q 169 190 194 187 q 218 184 249 184 q 278 184 312 186 q 346 187 367 188 q 342 195 316 198 q 290 200 252 200 q 235 200 200 199 q 166 198 150 198 z m 288 136 l 285 132 q 332 124 386 120 q 441 115 500 115 q 612 115 707 131 q 610 131 463 134 q 316 136 288 136 z m 660 558 q 669 525 675 488 q 681 452 681 416 q 681 368 669 326 q 657 285 630 254 q 603 223 564 210 q 524 198 473 198 q 428 198 388 224 q 349 250 323 294 q 300 361 300 430 q 300 514 334 589 q 359 625 398 642 q 438 660 488 665 q 548 659 593 634 q 638 608 660 558 z m 526 582 q 483 576 449 555 q 415 534 402 497 q 381 446 381 385 q 381 290 429 222 q 459 212 492 212 q 577 212 632 279 q 648 306 656 341 q 663 376 663 418 q 663 499 636 558 q 592 583 544 583 q 532 583 526 582 z"},"(":{"x_min":0,"x_max":465,"ha":465,"o":"m 366 737 l 428 731 l 427 587 q 420 584 408 583 q 395 582 392 582 q 382 582 372 582 q 363 582 353 583 q 325 583 309 574 q 293 566 289 539 l 288 226 q 292 219 298 215 q 305 211 316 211 q 321 211 328 212 q 335 212 345 213 q 351 213 354 212 q 353 208 353 204 q 353 200 353 198 q 353 172 370 159 q 387 146 414 146 l 426 146 q 431 127 432 111 q 433 95 433 67 q 433 52 432 38 q 432 23 432 9 l 418 1 q 405 3 390 3 q 375 3 367 3 q 350 3 316 2 q 282 1 266 1 q 222 1 192 6 q 162 10 110 42 q 57 73 28 145 q -1 217 -1 316 q -1 365 9 478 q 19 591 19 627 q 19 645 19 664 q 16 688 15 700 q 25 731 46 756 q 68 781 97 790 q 125 796 154 798 q 183 801 223 801 q 244 801 288 800 q 331 799 352 799 z m 115 776 q 84 771 63 741 q 42 711 35 676 q 35 601 32 488 q 30 374 30 359 q 30 284 32 255 q 33 226 38 171 q 58 120 104 102 q 150 84 216 84 q 236 84 277 86 q 318 88 336 88 l 336 194 q 288 198 256 200 q 223 202 206 232 l 203 621 q 210 651 233 660 q 256 669 296 669 l 324 669 q 331 676 334 688 q 338 701 338 717 q 338 732 336 752 q 333 771 332 779 q 307 782 278 784 q 249 786 219 786 q 190 786 166 784 q 143 782 115 776 z m 314 755 q 318 746 318 733 q 317 718 317 711 q 317 703 318 699 q 273 699 240 686 q 206 672 193 641 q 187 598 185 550 q 183 503 183 448 q 183 395 184 342 q 185 289 186 236 q 189 218 204 202 q 220 187 240 178 l 316 170 l 316 116 q 299 116 255 112 q 211 108 186 108 q 136 108 102 123 q 67 138 52 179 l 59 704 q 74 736 100 748 q 127 760 165 760 q 183 760 222 756 q 261 752 280 752 q 297 752 314 755 z m 197 689 l 115 690 l 115 676 q 125 676 136 676 q 147 675 158 675 q 182 675 197 680 z m 163 622 q 153 624 142 626 q 130 628 128 628 q 107 628 107 612 q 126 611 136 611 q 153 611 163 617 z m 107 545 q 128 544 139 544 q 148 544 154 546 q 160 548 163 555 q 157 557 146 558 q 136 560 129 560 q 107 560 107 545 z m 106 483 q 111 483 118 482 q 126 482 136 482 q 153 482 163 487 q 146 498 129 498 q 110 498 106 483 z m 106 429 l 106 419 q 108 419 120 417 q 133 415 138 415 q 157 415 162 425 q 155 429 137 429 q 121 429 106 429 z m 158 367 q 136 368 125 368 q 106 368 106 353 q 127 353 137 353 q 155 353 162 357 q 163 359 162 362 q 161 364 158 367 z m 106 299 l 110 285 q 129 284 138 284 q 154 284 162 290 q 157 300 138 300 q 122 299 106 299 z m 106 222 l 168 222 l 168 233 q 159 237 144 237 q 130 237 119 233 q 108 229 106 222 z m 110 170 l 110 154 q 123 154 137 154 q 151 153 165 153 q 189 153 203 154 q 217 156 230 160 q 220 166 205 168 q 190 170 175 170 l 125 170 z"},"C":{"x_min":0,"x_max":1068,"ha":1068,"o":"m 730 753 q 740 756 740 771 q 740 783 740 796 l 955 795 q 958 791 959 784 q 960 776 960 767 q 960 745 962 738 q 964 731 979 731 q 985 731 988 732 l 1012 732 l 1011 497 q 992 497 941 490 q 890 483 863 483 q 819 483 786 498 q 754 512 733 551 q 689 566 644 576 q 599 586 559 586 q 520 586 486 576 q 452 567 424 546 q 397 521 386 488 q 374 454 374 412 q 374 373 382 336 q 390 298 404 260 q 416 235 438 226 q 459 217 489 217 q 506 217 535 220 q 564 222 568 222 q 606 222 640 248 q 673 275 701 316 l 709 343 l 984 343 l 978 286 l 1030 278 q 1030 210 978 152 q 926 95 846 47 q 766 27 676 14 q 587 0 507 0 q 403 0 315 24 q 227 49 164 106 q 82 159 42 247 q 1 335 1 439 q 1 548 44 636 q 88 725 180 764 q 242 780 315 790 q 388 800 458 800 q 533 800 601 789 q 669 778 730 753 z m 810 786 q 799 789 792 789 q 771 789 766 758 q 760 727 750 719 q 689 752 610 768 q 532 785 449 785 q 305 785 180 744 q 135 718 97 672 q 59 627 44 580 q 24 498 24 422 q 24 351 41 293 q 58 235 97 192 q 136 148 184 126 q 232 105 296 92 q 339 92 433 86 q 527 80 576 80 q 652 80 712 91 q 771 102 825 132 q 879 162 916 218 q 954 273 954 329 l 739 329 l 672 249 q 644 223 603 210 q 562 197 518 197 q 461 197 416 215 q 370 233 338 270 q 307 308 296 350 q 293 388 292 400 q 292 411 292 439 q 292 511 310 561 q 329 611 370 634 q 410 656 442 664 q 475 671 514 671 q 557 671 600 662 q 644 652 683 635 q 700 598 728 586 q 757 573 799 573 q 814 573 845 575 q 876 577 891 577 q 911 577 931 574 q 934 601 936 629 q 938 657 938 686 q 938 735 932 779 q 901 779 868 781 q 835 783 810 786 z m 773 682 q 783 693 783 716 q 783 721 782 734 q 781 746 781 753 q 792 755 808 756 q 825 757 840 757 q 857 757 874 756 q 891 756 908 756 q 914 743 916 730 q 918 717 918 703 q 918 685 916 657 q 913 629 913 624 q 913 609 914 601 l 763 598 q 717 649 654 671 q 592 693 517 693 q 475 693 434 687 q 390 673 352 642 q 314 612 293 570 q 283 532 278 495 q 272 458 272 420 q 272 371 282 330 q 293 290 323 251 q 353 212 400 194 q 446 175 504 175 q 529 175 554 178 q 580 180 621 189 q 661 209 694 238 q 727 267 739 302 l 931 302 q 919 255 886 215 q 854 175 809 151 q 744 129 666 118 q 588 108 507 108 q 445 108 398 111 q 352 114 263 123 q 209 133 161 167 q 113 201 81 251 q 63 292 54 340 q 44 387 44 439 q 44 490 54 537 q 64 584 98 642 q 132 699 208 727 q 285 755 388 755 q 436 755 530 749 q 625 743 632 743 q 680 725 712 712 q 745 699 773 682 z m 293 711 l 659 710 q 566 722 473 722 q 432 722 385 719 q 338 716 293 711 z m 894 719 q 881 721 870 722 q 860 724 857 724 q 848 724 842 720 q 835 717 834 709 l 894 709 z m 166 646 q 184 646 219 644 q 254 641 262 641 q 284 641 302 644 q 319 647 334 656 q 320 656 289 658 q 258 660 242 660 q 215 660 200 658 q 185 655 166 646 z m 715 662 q 722 658 739 658 l 759 658 l 771 658 q 762 662 751 666 q 740 671 732 671 q 720 671 715 662 z m 830 661 l 891 661 l 890 671 q 883 673 872 674 q 862 676 854 676 q 833 676 830 661 z m 773 625 l 773 611 l 894 611 l 894 621 q 880 624 858 625 q 836 626 833 626 q 818 626 803 626 q 788 625 773 625 z m 132 594 l 122 580 q 136 580 174 578 q 211 576 215 576 q 240 576 254 578 q 268 581 283 589 q 268 592 244 593 q 219 594 196 594 z m 255 529 l 109 529 l 105 515 l 255 515 z m 250 462 l 114 468 l 95 452 q 130 448 177 448 q 218 448 249 452 z m 249 397 l 108 402 l 98 388 q 136 382 175 382 q 214 382 249 388 z m 108 335 l 104 327 q 119 322 144 319 q 169 316 191 316 q 230 316 263 321 l 263 331 q 245 334 218 335 q 190 336 186 336 q 166 336 146 336 q 127 335 108 335 z m 128 270 l 122 261 l 296 256 l 296 264 q 273 269 253 270 q 233 271 199 271 q 181 271 163 270 q 145 270 128 270 z m 772 255 l 883 255 q 887 254 893 258 q 899 261 897 269 q 890 268 884 268 q 877 268 874 268 q 861 268 848 268 q 836 268 824 269 q 804 269 792 266 q 781 264 772 255 z m 155 204 l 161 190 q 215 190 266 191 q 316 192 366 193 q 340 200 313 202 q 286 205 247 205 q 224 205 201 204 q 178 204 155 204 z m 842 202 l 719 202 l 715 189 q 732 189 750 188 q 768 188 786 188 q 803 188 821 188 q 836 191 842 192 z m 286 139 q 391 122 508 122 q 625 122 715 138 z"},"W":{"x_min":0,"x_max":1788,"ha":1788,"o":"m 1690 794 q 1693 773 1696 752 q 1702 727 1719 727 q 1727 727 1741 733 l 1755 733 q 1757 717 1759 695 q 1761 673 1761 654 q 1761 610 1751 584 l 1618 584 q 1583 507 1552 422 q 1520 337 1478 214 q 1435 90 1406 10 q 1382 5 1352 3 q 1321 1 1288 1 q 1258 1 1188 3 q 1118 5 1117 5 l 1083 68 l 1022 73 q 953 249 884 426 q 851 373 824 294 q 798 214 772 134 q 745 55 713 2 l 441 3 q 428 25 416 48 q 397 75 370 75 q 361 75 346 70 q 317 136 278 240 q 239 344 202 449 q 164 554 157 574 q 148 584 135 586 q 122 589 115 589 q 105 589 96 588 q 87 588 78 588 l 66 588 q 66 597 66 605 q 66 613 67 625 q 67 647 52 650 l 5 656 q 2 672 1 696 q 0 720 0 724 q 0 741 0 758 q 0 775 1 792 l 548 791 l 556 736 l 613 730 l 619 593 q 607 582 590 582 q 581 582 566 584 q 551 587 548 587 q 536 587 528 583 q 527 578 527 568 q 527 539 542 505 q 557 471 571 440 q 599 488 648 627 q 697 766 709 791 q 787 791 908 794 q 1029 796 1047 796 l 1075 734 l 1143 728 q 1199 583 1255 439 q 1276 483 1290 515 q 1303 547 1303 575 q 1269 571 1263 616 q 1257 660 1234 660 q 1222 660 1204 653 l 1204 790 q 1241 794 1294 796 q 1347 798 1398 798 q 1448 798 1566 796 q 1683 794 1690 794 z m 29 784 q 23 773 21 760 q 19 746 19 730 q 19 717 21 700 q 23 683 25 669 q 36 664 54 664 q 66 664 87 666 q 108 669 113 669 q 123 669 132 667 q 140 665 148 659 l 340 118 l 364 84 l 665 93 l 823 545 l 851 582 q 894 478 942 344 q 991 210 1036 86 l 1192 86 l 1210 86 q 1268 86 1345 91 l 1551 666 q 1585 666 1625 668 q 1665 669 1670 669 q 1676 695 1676 726 q 1676 756 1670 780 l 1222 775 l 1228 666 q 1234 665 1240 665 q 1246 665 1253 665 q 1265 665 1278 665 q 1290 665 1303 666 q 1320 666 1334 664 q 1349 662 1361 656 q 1340 610 1312 522 q 1284 434 1265 384 q 1246 333 1217 286 q 1173 383 1126 518 q 1080 652 1038 776 l 999 776 l 963 776 l 933 776 l 906 776 l 882 776 l 861 776 l 843 776 l 828 776 l 815 776 l 803 776 q 785 776 767 776 q 749 776 732 777 l 723 777 q 632 530 541 284 q 504 369 468 464 q 432 558 399 659 q 409 665 424 667 q 439 669 453 669 q 462 669 472 668 q 482 668 492 668 q 513 668 528 672 q 528 683 530 711 q 532 739 532 742 q 532 767 524 783 z m 1642 757 q 1645 754 1648 748 q 1651 741 1651 730 q 1650 714 1650 699 l 1537 690 q 1511 624 1464 497 q 1418 370 1391 292 q 1364 214 1331 119 q 1312 115 1284 113 q 1255 111 1227 111 q 1187 111 1124 114 q 1061 116 1050 116 l 851 654 l 827 620 l 649 117 l 380 112 l 356 146 l 161 689 q 149 693 129 693 q 120 693 111 692 q 102 692 93 692 q 77 692 64 696 q 50 699 42 707 l 43 751 l 504 754 q 509 745 509 729 q 508 711 508 702 q 498 696 483 694 q 468 692 452 692 q 443 692 434 692 q 426 692 418 693 q 403 693 390 691 q 377 689 366 683 q 451 449 537 216 l 561 250 l 738 749 l 1018 752 q 1119 483 1221 215 q 1239 267 1277 369 q 1315 471 1342 548 q 1370 625 1388 686 q 1354 689 1308 692 q 1262 694 1245 694 l 1246 752 q 1344 752 1479 754 q 1614 757 1642 757 z m 1632 717 q 1512 717 1436 716 q 1359 715 1293 714 l 1293 710 l 1632 709 z m 96 721 l 96 707 l 490 706 l 490 716 q 401 716 260 718 q 118 721 96 721 z m 780 719 l 776 711 l 1018 711 l 1018 715 q 991 718 948 719 q 905 720 899 720 q 869 720 839 720 q 809 719 780 719 z m 229 645 q 261 639 296 639 q 330 639 362 645 q 334 661 295 661 q 255 661 229 645 z m 752 644 l 817 644 l 817 654 q 809 654 794 656 q 780 659 778 659 q 760 659 752 644 z m 912 657 l 912 644 q 930 642 950 640 q 970 638 986 638 q 1009 638 1018 640 q 1027 641 1041 647 q 1027 654 1005 656 q 983 659 975 659 q 964 659 942 658 q 921 657 912 657 z m 1493 656 q 1492 656 1480 656 q 1469 656 1457 657 q 1437 657 1432 642 l 1499 646 q 1499 649 1496 652 q 1494 655 1493 656 z m 381 587 q 364 590 345 592 q 326 594 307 594 q 273 594 252 584 q 266 578 280 576 q 293 574 309 574 q 320 574 344 576 q 368 578 381 578 z m 799 586 q 788 588 776 590 q 763 592 759 592 q 736 592 732 577 l 799 582 z m 1061 586 l 936 592 l 936 576 l 1061 576 z m 1469 591 q 1466 590 1458 590 q 1441 591 1433 591 q 1412 591 1412 575 l 1427 575 l 1446 575 q 1465 575 1475 581 q 1471 587 1469 591 z m 409 530 l 276 522 q 289 516 305 514 q 321 511 344 511 q 376 511 409 516 z m 1412 527 q 1409 522 1402 522 q 1396 522 1391 523 q 1385 522 1388 514 q 1405 509 1423 509 q 1440 509 1451 513 l 1451 523 q 1441 522 1431 524 q 1421 525 1412 527 z m 708 511 q 713 512 726 511 q 739 510 747 510 q 769 510 775 525 q 773 525 760 525 q 748 525 735 526 q 723 526 716 524 q 710 521 708 511 z m 1085 524 l 956 525 l 960 511 l 1085 510 z m 428 458 q 398 464 366 464 q 345 464 333 463 q 321 462 300 459 l 300 451 q 330 445 364 445 q 398 445 428 451 z m 684 450 q 704 444 720 444 q 743 444 751 458 q 747 459 737 462 q 727 464 716 464 q 692 464 684 450 z m 1108 457 q 1089 459 1070 461 q 1051 463 1035 463 q 1018 463 1004 461 q 990 459 979 453 q 992 447 1007 445 q 1022 443 1041 443 q 1056 443 1074 445 q 1093 447 1108 449 z m 1364 448 q 1369 448 1382 447 q 1396 446 1403 446 q 1423 446 1431 456 q 1419 458 1406 460 q 1394 462 1390 462 q 1368 462 1364 448 z m 323 397 l 327 383 l 452 383 l 452 393 q 444 394 426 396 q 407 398 387 398 q 371 398 355 398 q 339 397 323 397 z m 666 396 l 666 383 q 674 383 683 382 q 692 382 702 382 q 718 382 727 386 q 720 397 699 397 q 682 396 666 396 z m 1007 395 l 1007 382 q 1024 382 1041 382 q 1058 381 1076 381 q 1093 381 1111 381 q 1126 384 1132 385 q 1120 392 1106 394 q 1091 397 1068 397 q 1058 397 1037 396 q 1016 395 1007 395 z m 1340 385 l 1394 381 q 1398 381 1402 386 q 1407 390 1407 395 q 1405 395 1394 395 q 1382 395 1370 396 q 1349 396 1340 385 z m 351 336 l 347 322 q 361 322 391 320 q 421 317 428 317 q 448 317 456 318 q 464 320 476 326 q 465 332 450 334 q 434 336 418 336 l 367 336 z m 642 321 l 704 321 l 703 331 q 690 333 680 334 q 669 336 666 336 q 642 336 642 321 z m 1031 334 l 1031 320 l 1155 320 l 1155 330 q 1141 333 1118 334 q 1096 335 1093 335 q 1077 335 1062 334 q 1046 334 1031 334 z m 1383 333 l 1322 333 l 1322 320 q 1330 320 1339 320 q 1348 319 1357 319 q 1372 319 1383 323 z m 1322 272 q 1319 267 1310 267 q 1304 267 1300 267 q 1295 267 1298 258 q 1310 252 1324 252 q 1334 252 1344 254 q 1353 257 1364 262 q 1359 267 1343 267 q 1328 267 1322 272 z m 371 268 l 375 254 l 499 254 l 499 264 q 491 265 472 267 q 454 269 434 269 q 418 269 402 268 q 386 268 371 268 z m 680 268 l 622 268 l 622 254 l 679 254 z m 1050 267 q 1058 260 1072 256 q 1086 253 1103 253 q 1120 253 1148 256 q 1176 258 1179 258 q 1168 264 1150 266 q 1131 268 1112 268 q 1096 268 1080 268 q 1065 267 1050 267 z m 388 203 l 398 189 q 407 189 430 188 q 452 187 464 187 q 482 187 496 189 q 510 191 523 197 q 508 203 492 206 q 475 208 452 208 q 432 208 421 207 q 410 206 388 203 z m 594 193 l 646 188 q 660 186 660 202 q 654 203 642 205 q 629 207 622 207 q 599 207 594 193 z m 1203 201 l 1078 205 l 1078 191 q 1108 185 1141 185 q 1173 185 1203 191 z m 1340 200 q 1325 205 1304 205 q 1283 205 1274 195 q 1287 191 1308 191 q 1328 191 1340 195 z m 422 141 l 418 131 l 636 131 l 636 135 q 606 140 580 141 q 554 142 512 142 q 489 142 466 142 q 444 141 422 141 z m 1316 139 l 1098 140 l 1098 130 l 1316 129 z"},"A":{"x_min":0,"x_max":1362,"ha":1362,"o":"m 945 737 q 974 683 1033 560 q 1092 437 1130 362 q 1167 287 1210 217 l 1262 213 q 1263 209 1263 200 q 1262 183 1262 175 q 1262 160 1265 156 q 1268 152 1277 149 q 1296 150 1306 150 q 1323 150 1325 135 l 1319 2 l 730 0 q 724 10 724 28 l 724 42 q 724 54 720 62 l 658 72 l 659 209 l 782 218 q 784 229 779 242 q 774 255 762 262 l 468 262 q 456 259 452 247 q 447 235 444 223 q 451 214 469 214 q 477 214 486 215 q 495 216 500 215 q 503 209 506 176 q 508 144 530 144 q 536 144 547 147 l 563 147 l 567 4 q 483 4 400 4 q 318 3 235 2 q 152 2 67 2 q 63 31 60 50 q 56 70 35 70 q 29 70 20 67 l 6 67 q 1 87 0 103 q -1 119 -1 147 q -1 162 0 176 q 0 191 0 206 q 8 208 25 209 q 42 210 49 210 l 69 210 q 79 210 92 210 q 106 211 129 216 l 426 800 l 841 799 l 878 737 z m 821 785 l 446 786 l 149 200 l 24 196 l 24 81 q 61 81 138 80 q 215 79 254 79 q 318 79 370 81 q 423 83 476 90 l 476 195 q 465 195 442 194 q 419 193 407 193 q 391 193 372 194 q 353 196 333 205 q 360 267 374 294 q 388 321 415 348 l 748 347 q 770 310 792 274 q 815 231 815 198 l 696 198 q 686 190 683 178 q 680 166 680 147 q 680 133 682 114 q 685 94 686 85 q 825 85 963 86 q 1101 87 1238 88 l 1234 197 q 1220 197 1206 196 q 1193 196 1179 196 q 1156 196 1142 198 q 1127 199 1111 203 z m 1105 174 l 1220 169 l 1220 112 l 700 113 l 700 167 l 849 174 q 839 225 814 276 q 789 327 754 371 l 401 372 q 370 330 340 264 q 310 197 302 181 q 319 174 337 172 q 355 169 383 169 q 396 169 422 170 q 447 171 458 171 l 458 110 l 44 111 l 44 168 q 53 171 68 172 q 82 173 84 173 q 93 173 103 172 q 113 172 123 172 q 144 172 159 176 l 446 752 q 539 752 632 753 q 725 754 817 755 z m 810 722 l 493 723 l 487 709 l 810 708 z m 549 681 q 494 559 439 437 l 721 442 q 669 566 602 691 q 584 691 577 691 q 560 691 549 681 z m 844 656 q 801 661 757 661 q 710 661 677 651 q 694 645 714 643 q 733 641 757 641 q 799 641 844 646 z m 507 657 l 453 657 l 454 643 q 472 642 481 642 q 497 642 507 647 z m 715 585 q 741 580 760 579 q 778 578 808 578 q 822 578 838 578 q 853 578 869 579 l 878 579 l 878 589 q 859 591 834 593 q 810 595 790 595 q 768 595 749 593 q 730 591 715 585 z m 422 590 l 421 580 q 441 575 453 575 q 473 575 477 590 z m 749 528 l 748 518 q 767 515 798 514 q 829 513 833 513 q 879 513 911 517 q 908 522 905 527 z m 439 528 q 417 529 407 529 q 390 529 388 515 q 397 515 405 514 q 413 514 420 514 q 434 514 445 518 q 445 521 442 524 q 440 527 439 528 z m 786 466 l 782 452 q 820 446 861 446 q 901 446 939 452 l 939 460 q 918 465 900 466 q 881 467 851 467 q 835 467 818 466 q 802 466 786 466 z m 411 461 l 358 461 l 358 447 q 376 447 385 447 q 401 447 411 453 z m 345 409 q 342 404 335 404 q 329 404 324 404 q 318 403 321 395 l 968 394 l 968 404 l 905 404 q 768 404 564 406 q 359 409 345 409 z m 344 334 q 341 333 333 333 q 317 334 310 334 q 292 334 292 319 q 299 320 308 319 q 317 318 324 318 q 340 318 350 324 q 345 330 344 334 z m 839 333 q 852 325 870 322 q 888 318 911 318 q 931 318 966 320 q 1001 323 1006 323 q 988 330 969 332 q 950 335 920 335 q 906 335 878 334 q 851 333 839 333 z m 881 269 l 881 255 q 897 253 918 252 q 939 251 960 251 q 974 251 991 252 q 1008 252 1034 255 l 1040 261 q 1023 267 1004 269 q 984 271 962 271 q 948 271 920 270 q 893 269 881 269 z m 316 267 l 262 267 l 262 253 q 282 253 292 253 q 309 253 316 257 z m 910 204 l 910 190 l 1067 190 l 1067 198 q 1049 201 1024 202 q 999 204 969 204 z m 282 199 l 230 200 l 230 186 q 248 186 258 186 q 274 186 282 192 z m 437 144 l 391 144 l 354 144 l 322 144 l 295 144 l 271 144 l 250 144 l 232 144 l 216 144 l 201 144 l 189 144 l 177 144 q 159 144 141 144 q 123 144 105 145 l 94 145 l 95 135 l 437 134 z m 761 147 l 757 133 l 1199 136 l 1199 142 q 1100 142 944 144 q 787 147 761 147 z m 691 470 l 677 460 l 473 461 q 482 506 512 563 q 543 620 572 671 l 596 667 z m 612 562 l 578 480 q 588 480 598 480 q 608 479 618 479 q 639 479 653 484 q 649 505 638 527 q 626 549 612 562 z"},"f":{"x_min":0,"x_max":900,"ha":900,"o":"m 817 593 l 867 582 q 867 546 868 511 q 869 476 870 441 q 870 405 867 369 l 697 369 q 697 422 653 422 l 644 422 q 645 440 645 449 q 645 464 633 469 l 409 469 q 402 463 400 456 q 397 449 397 439 q 397 430 398 422 q 399 415 401 407 l 546 404 q 542 393 542 385 q 542 369 566 355 q 589 341 594 331 l 598 242 q 580 237 552 235 q 523 233 495 233 l 483 233 q 463 233 444 233 q 425 233 406 234 q 398 227 398 211 q 398 196 398 181 q 402 174 408 172 q 414 169 425 169 q 443 169 462 170 q 465 166 465 156 q 464 143 464 137 q 464 120 481 118 l 514 118 l 514 4 q 401 4 286 3 q 171 2 57 1 q 53 7 53 24 q 53 40 49 46 q 43 50 26 50 q 10 50 3 54 q 3 62 2 82 q 1 103 1 115 q 1 136 2 146 q 3 155 9 170 q 15 171 29 171 q 38 171 48 170 q 58 170 68 170 q 86 170 98 172 q 111 175 122 182 l 122 458 q 115 470 94 470 q 80 469 73 469 q 54 469 50 484 q 54 491 54 499 q 54 510 46 518 q 39 525 28 522 l 5 522 q 1 543 1 573 q 1 588 1 602 q 1 617 2 632 l 24 640 l 811 638 q 818 632 818 618 q 817 605 817 593 z m 795 627 l 39 629 l 18 621 q 18 613 17 596 q 16 580 16 572 q 16 547 23 534 q 38 534 53 534 q 68 534 83 535 q 104 535 114 534 q 123 532 137 526 l 133 159 q 120 159 101 160 q 82 161 74 161 q 47 161 16 152 l 16 69 l 450 67 l 450 150 q 444 154 434 156 q 425 158 416 158 q 404 158 392 157 q 379 156 367 155 q 347 155 333 162 q 331 189 330 203 q 329 217 329 229 q 329 256 330 268 q 332 280 338 299 l 503 298 q 519 296 526 304 q 532 313 532 329 q 532 341 531 354 q 530 366 529 378 q 529 386 530 389 q 515 391 484 392 q 454 393 438 393 l 411 393 q 365 393 334 397 q 332 410 331 430 q 330 449 330 467 q 330 480 330 496 q 331 512 338 534 q 382 534 450 536 q 519 539 529 539 q 604 539 659 528 q 659 515 658 502 q 658 490 658 477 q 658 450 662 430 l 798 434 l 803 614 z m 784 457 q 775 455 756 454 q 738 453 727 453 l 682 453 q 676 464 676 484 q 676 493 676 502 q 676 511 677 520 q 677 542 670 555 l 323 556 l 315 545 l 314 378 l 326 370 l 511 370 l 511 321 l 322 321 l 314 310 l 314 143 q 335 135 367 135 q 377 135 398 136 q 418 137 427 137 q 431 129 431 113 q 431 98 432 91 l 35 92 q 34 110 34 119 q 34 136 46 138 q 61 138 81 137 q 101 136 104 136 q 121 136 133 138 q 145 141 155 148 l 153 548 q 139 554 114 556 q 90 558 86 558 q 74 558 62 558 q 50 557 39 557 q 38 559 37 564 q 36 568 36 577 l 36 598 l 47 606 l 779 603 z m 80 578 l 77 567 l 768 566 l 768 574 q 679 574 552 574 q 426 575 310 576 q 195 577 80 578 z m 198 538 l 193 530 q 203 526 218 524 q 233 522 247 522 q 260 522 276 524 q 292 525 300 526 l 300 533 q 289 536 272 537 q 256 538 240 538 z m 768 535 l 719 535 l 719 524 q 736 523 745 523 q 759 523 768 527 z m 716 478 q 720 472 719 470 q 737 470 746 470 q 760 470 768 474 l 768 482 l 755 482 l 740 482 q 725 482 716 478 z m 198 485 l 198 474 q 211 474 226 474 q 240 473 255 473 l 267 473 q 283 473 300 476 q 291 481 276 483 q 261 485 247 485 q 222 485 198 485 z m 300 432 q 280 434 270 435 q 260 436 241 436 q 226 436 214 434 q 202 432 193 425 q 205 422 225 421 q 245 420 248 420 q 279 420 300 424 z m 198 382 l 197 371 q 208 369 222 368 q 237 367 252 367 q 271 367 280 368 q 289 370 302 375 q 294 379 278 381 q 261 383 248 383 q 235 383 222 382 q 210 382 198 382 z m 206 345 l 193 338 q 223 334 263 332 q 303 330 340 330 q 366 330 419 331 q 472 332 500 332 l 500 340 q 433 340 328 342 q 222 345 206 345 z m 198 300 l 198 289 q 210 285 225 285 q 238 285 264 288 q 290 292 300 292 q 293 296 280 298 q 266 300 254 300 l 211 300 z m 193 240 q 216 236 247 236 q 263 236 280 236 q 294 239 300 240 q 278 244 262 246 q 246 248 231 248 q 208 248 193 240 z m 300 194 q 281 196 270 197 q 260 198 242 198 q 224 198 214 196 q 203 193 193 186 q 216 182 247 182 q 263 182 280 182 q 294 185 300 186 z m 295 145 q 290 144 278 144 q 268 144 258 144 q 248 144 238 145 q 222 145 212 142 q 201 140 193 133 q 219 130 251 130 q 271 130 280 132 q 289 133 302 138 z m 408 118 l 84 119 l 73 108 q 127 108 239 105 q 351 102 408 102 l 419 110 z"},"Q":{"x_min":0,"x_max":1098,"ha":1098,"o":"m 1031 548 q 1062 480 1062 396 q 1062 332 1044 273 q 1025 214 989 167 q 982 155 953 128 q 924 100 920 81 l 1093 -93 q 1086 -92 1072 -92 q 1054 -92 1013 -96 q 972 -100 950 -100 q 909 -100 881 -88 q 853 -77 833 -44 q 785 -36 751 -30 q 717 -24 699 9 q 663 4 620 1 q 577 -2 538 -2 q 392 -2 274 43 q 156 88 96 164 q 35 239 16 304 q -3 368 -3 436 q -3 505 14 574 q 32 643 98 706 q 165 768 248 779 q 330 790 390 795 q 450 800 517 800 q 625 800 711 782 q 797 765 870 720 z m 714 769 q 666 769 565 776 q 464 783 414 783 q 318 783 246 765 q 173 747 109 696 q 60 649 37 583 q 14 517 14 441 q 14 392 23 346 q 32 299 49 256 q 84 190 147 146 q 210 102 280 93 q 323 77 382 77 q 412 77 474 83 q 536 89 565 89 q 631 89 676 68 q 721 46 751 -15 l 929 -12 q 869 52 810 117 q 845 136 876 168 q 908 200 934 239 q 976 325 976 437 q 976 486 968 528 q 959 569 934 620 q 909 672 848 713 q 788 754 714 769 z m 916 260 q 897 219 864 193 q 832 167 766 124 l 872 12 q 848 2 825 2 q 777 2 735 40 q 693 78 666 104 q 638 108 600 109 q 561 110 513 110 q 382 110 308 118 q 235 125 166 165 q 98 205 60 296 q 51 327 45 365 q 39 403 39 438 q 39 496 54 548 q 68 600 112 655 q 156 710 238 735 q 319 760 429 760 q 482 760 578 756 q 674 751 681 751 q 747 738 796 714 q 846 691 882 649 q 918 607 936 550 q 953 493 953 431 q 953 336 916 260 z m 296 708 q 411 708 524 709 q 636 710 748 711 q 679 717 628 720 q 577 723 510 723 q 389 723 296 708 z m 461 688 q 407 678 360 644 q 312 609 296 560 q 289 527 285 495 q 281 463 281 430 q 281 367 298 314 q 315 260 353 222 q 383 201 420 188 q 458 175 496 175 q 533 175 565 188 q 561 198 518 240 q 474 282 474 302 l 579 302 q 590 295 613 270 q 636 246 657 240 q 673 254 685 286 q 697 317 703 325 q 707 348 710 379 q 713 410 713 436 q 713 503 695 556 q 677 608 632 645 q 602 666 566 678 q 531 691 494 691 q 478 691 461 688 z m 165 651 l 165 640 l 324 640 q 328 640 334 646 q 339 651 339 657 q 316 657 294 657 q 271 657 250 658 q 207 658 165 651 z m 657 650 q 678 644 705 641 q 732 638 757 638 q 780 638 804 640 q 828 641 865 645 q 845 651 818 654 q 790 657 767 657 q 740 657 707 654 q 674 651 657 650 z m 133 592 l 122 578 q 164 572 203 572 q 218 572 232 572 q 246 573 286 577 l 286 587 q 266 591 247 592 q 228 593 203 593 q 185 593 168 592 q 150 592 133 592 z m 718 591 l 724 577 l 907 582 q 886 588 864 590 q 842 593 811 593 q 794 593 770 592 q 747 592 718 591 z m 926 514 l 926 523 q 909 525 884 526 q 860 527 837 527 q 815 527 798 527 q 782 527 752 523 q 750 509 765 509 q 786 509 790 504 q 799 508 808 510 q 817 511 833 511 q 848 511 867 510 q 886 509 889 509 q 912 509 926 514 z m 268 525 l 102 526 l 102 511 l 268 515 z m 99 464 l 93 448 q 114 448 135 448 q 156 447 177 447 q 216 447 261 454 l 261 459 q 245 462 218 463 q 192 464 167 464 z m 767 463 l 767 445 l 934 451 q 918 458 892 461 q 865 464 840 464 q 821 464 803 464 q 785 463 767 463 z m 790 398 q 789 393 781 393 q 775 393 770 392 q 765 392 767 384 q 808 378 855 378 q 904 378 934 389 q 925 391 914 392 q 902 393 874 393 l 853 393 q 836 393 820 394 q 804 395 790 398 z m 93 396 l 93 381 l 261 386 q 243 393 224 396 q 204 398 173 398 q 160 398 133 397 q 106 396 93 396 z m 99 323 q 132 312 181 312 q 201 312 226 314 q 251 316 271 318 l 271 326 q 247 329 217 332 q 187 334 176 334 q 132 334 99 323 z m 763 330 l 758 317 q 776 315 801 313 q 826 311 848 311 q 883 311 895 312 q 907 314 926 320 q 908 327 889 330 q 870 332 842 332 q 829 332 802 331 q 775 330 763 330 z m 121 265 l 121 251 l 300 250 l 300 261 q 279 264 246 265 q 214 266 210 266 q 187 266 165 266 q 143 265 121 265 z m 560 264 l 565 250 q 579 249 586 249 q 598 249 603 254 q 598 265 584 265 q 572 264 560 264 z m 895 263 l 736 264 l 736 249 l 895 254 z m 163 203 l 156 193 q 200 182 267 182 q 329 182 366 192 q 344 199 316 202 q 287 205 258 205 q 232 205 200 204 q 168 203 163 203 z m 631 202 l 627 192 l 844 191 l 844 197 q 822 200 785 201 q 748 202 716 202 z m 736 133 l 291 134 q 344 124 400 120 q 457 117 533 117 q 567 117 635 118 q 703 119 736 119 z m 761 71 q 756 56 778 56 q 797 56 805 61 q 797 68 788 70 q 779 71 761 71 z m 667 567 q 677 530 682 493 q 688 456 688 418 q 688 375 680 342 q 673 310 652 278 q 627 310 599 320 q 571 331 533 331 q 522 331 497 330 q 472 329 459 329 l 444 329 q 438 329 432 329 q 424 331 420 331 l 405 322 l 517 206 q 497 201 482 201 q 455 201 430 211 q 404 221 373 240 q 336 275 320 321 q 304 367 304 422 q 304 455 310 490 q 315 526 325 564 q 340 604 378 629 q 417 654 465 665 q 483 667 492 667 q 546 667 590 640 q 635 614 667 567 z m 402 290 q 406 263 419 242 q 432 221 454 221 q 465 221 474 225 z m 638 563 q 617 568 587 573 q 557 578 538 578 q 499 578 468 564 q 438 550 411 515 q 387 474 387 409 q 387 397 388 387 q 388 377 392 346 q 400 345 408 344 q 415 344 425 344 q 447 344 486 346 q 524 349 532 349 q 572 349 598 341 q 625 333 646 307 q 672 365 672 444 q 672 489 663 528 z"},"w":{"x_min":0,"x_max":1430,"ha":1430,"o":"m 1352 635 q 1354 618 1356 602 q 1361 582 1376 582 q 1384 582 1393 586 l 1404 586 q 1409 558 1409 524 q 1409 501 1408 491 q 1407 481 1401 467 l 1294 467 q 1266 404 1240 334 q 1214 263 1176 154 q 1139 46 1125 8 q 1105 4 1085 2 q 1065 1 1031 1 q 996 1 962 2 q 927 3 894 4 l 866 54 l 818 58 q 762 199 707 341 q 680 297 638 171 q 596 45 570 2 l 353 2 q 343 20 333 39 q 318 60 297 60 q 286 60 277 56 q 242 137 202 247 q 162 357 126 459 q 119 466 112 468 q 105 471 92 471 q 72 470 53 470 q 54 491 54 501 q 54 518 42 520 l 4 525 q 2 534 2 552 q 1 569 1 580 l 1 634 l 438 633 l 445 589 l 490 584 l 495 474 q 486 466 472 466 q 467 466 454 468 q 440 470 439 470 q 429 470 422 466 q 421 462 421 454 q 421 431 433 404 q 445 377 457 352 q 482 394 514 492 q 546 590 567 633 q 614 633 722 635 q 831 637 838 637 l 860 587 l 914 582 q 959 466 1004 351 q 1007 360 1024 397 q 1042 434 1042 460 q 1014 457 1010 492 q 1006 528 988 528 q 980 528 963 522 l 963 632 q 1001 636 1036 637 q 1072 638 1121 638 q 1179 638 1236 637 q 1294 636 1352 635 z m 23 627 q 19 619 17 608 q 15 596 15 584 q 15 569 16 560 q 17 551 20 535 q 29 531 43 531 q 51 531 70 533 q 88 535 89 535 q 106 535 118 527 l 272 94 l 291 67 l 532 74 l 658 436 l 681 466 q 706 403 731 336 q 756 268 778 208 q 800 148 829 69 q 873 69 970 71 q 1068 73 1076 73 l 1241 533 q 1262 533 1290 534 q 1318 535 1336 535 q 1340 554 1340 581 q 1340 589 1340 599 q 1339 609 1336 624 l 978 620 l 982 533 q 989 532 1003 532 q 1012 532 1021 532 q 1030 532 1039 533 q 1058 533 1066 532 q 1075 531 1089 525 q 1031 377 974 229 q 949 285 927 344 q 905 404 874 494 q 843 585 830 621 l 798 621 l 771 621 l 747 621 l 726 621 l 708 621 l 692 621 l 677 621 l 665 621 q 646 621 628 621 q 609 621 590 622 l 578 622 q 505 424 433 227 q 404 292 375 370 q 346 448 319 527 q 327 531 340 533 q 354 535 365 535 l 395 535 q 408 535 422 538 q 422 551 423 566 q 424 581 425 596 q 425 615 419 626 z m 1314 606 q 1321 599 1321 585 q 1320 572 1320 559 l 1230 552 q 1209 499 1173 400 q 1137 302 1114 236 q 1091 171 1065 95 q 1046 91 1028 90 q 1010 89 985 89 q 961 89 904 91 q 846 93 840 93 l 681 523 l 662 496 l 519 94 l 304 90 l 285 117 l 129 551 q 118 555 103 555 q 82 554 72 554 q 59 554 50 556 q 41 559 34 566 l 34 601 l 403 603 q 407 596 407 584 q 406 569 406 562 q 398 557 384 555 q 371 553 357 553 l 332 553 q 319 553 310 552 q 302 550 293 546 q 361 359 430 173 l 449 200 l 590 599 l 814 602 q 895 387 977 172 q 1002 243 1032 323 q 1061 403 1078 451 q 1095 499 1110 549 q 1091 549 1053 552 q 1015 555 996 555 l 997 602 q 1059 602 1180 604 q 1300 606 1314 606 z m 1306 574 q 1210 574 1148 573 q 1087 572 1034 571 q 1087 569 1163 568 q 1239 567 1306 567 z m 77 577 l 77 566 l 392 565 l 392 573 q 339 573 213 575 q 87 577 77 577 z m 624 575 l 621 569 l 814 569 q 792 572 762 574 q 732 575 696 575 z m 183 516 q 206 512 237 512 q 253 512 270 512 q 284 515 290 516 q 267 529 236 529 q 205 529 183 516 z m 602 515 l 654 515 l 654 523 q 649 523 638 525 q 627 527 622 527 q 609 527 602 515 z m 730 526 l 730 515 q 758 510 786 510 q 807 510 814 512 q 822 513 833 518 q 824 523 809 525 q 794 527 779 527 q 767 527 754 526 q 742 526 730 526 z m 1194 525 q 1175 526 1166 526 q 1150 526 1146 514 l 1199 517 q 1199 520 1194 525 z m 305 470 q 275 475 246 475 q 218 475 202 467 q 211 463 223 461 q 235 459 247 459 q 261 459 282 460 q 304 462 305 462 z m 586 462 l 639 466 q 630 469 620 472 q 611 474 605 474 q 589 474 586 462 z m 849 469 l 749 474 l 749 461 l 849 461 z m 1175 473 q 1157 473 1147 473 q 1130 473 1130 460 q 1134 461 1144 461 l 1159 461 q 1174 461 1180 465 q 1176 471 1175 473 z m 327 424 l 221 418 q 232 413 246 411 q 260 409 277 409 q 289 409 304 410 q 320 412 327 413 z m 1130 422 q 1129 418 1122 418 q 1117 418 1112 418 q 1108 417 1110 411 q 1121 407 1138 407 q 1150 407 1161 410 l 1161 418 q 1155 417 1145 419 q 1135 421 1130 422 z m 566 409 q 587 408 597 408 q 615 408 620 420 q 598 421 587 421 q 568 421 566 409 z m 868 419 l 765 420 l 768 409 l 868 408 z m 342 366 q 332 369 320 370 q 309 371 293 371 q 261 371 240 367 l 240 361 q 252 358 270 357 q 289 356 292 356 q 307 356 316 357 q 325 358 342 361 z m 547 360 q 560 355 577 355 q 594 355 601 366 q 588 371 571 371 q 554 371 547 360 z m 886 366 q 860 369 852 370 q 845 370 829 370 q 812 370 804 368 q 795 367 783 362 q 792 358 805 356 q 818 354 832 354 q 858 354 886 359 z m 1091 358 q 1112 358 1122 358 q 1139 358 1145 365 q 1132 367 1122 368 q 1113 370 1111 370 q 1094 370 1091 358 z m 258 318 l 262 306 l 362 306 l 362 314 q 352 316 332 317 q 313 318 303 318 z m 533 317 l 533 306 q 551 305 560 305 q 574 305 582 309 q 576 317 560 317 q 546 317 533 317 z m 806 316 l 806 306 q 820 306 834 306 q 848 305 863 305 l 875 305 q 891 305 906 308 q 898 313 883 315 q 868 317 853 317 q 841 317 829 316 q 817 316 806 316 z m 1072 308 l 1115 305 q 1117 305 1122 308 q 1126 311 1126 316 q 1106 316 1096 316 q 1086 316 1081 315 q 1076 314 1072 308 z m 281 269 l 278 258 q 289 258 314 256 q 338 253 344 253 q 368 253 381 261 q 373 265 360 267 q 346 269 335 269 l 293 269 z m 514 257 l 563 257 l 562 265 q 548 269 532 269 q 514 269 514 257 z m 825 267 l 825 256 l 924 256 l 924 264 q 916 266 900 266 q 884 266 874 267 z m 1106 266 l 1058 266 l 1058 256 q 1077 255 1086 255 q 1100 255 1106 258 z m 1058 218 q 1056 214 1048 214 q 1044 214 1040 214 q 1037 213 1038 206 q 1046 202 1058 202 q 1068 202 1074 204 q 1080 205 1091 210 q 1087 214 1074 214 q 1062 214 1058 218 z m 297 214 l 300 203 l 399 203 l 399 211 q 379 215 352 215 q 338 215 324 214 q 310 214 297 214 z m 544 214 l 498 214 l 498 203 l 543 203 z m 840 214 q 847 208 858 206 q 868 203 883 203 q 898 203 913 204 q 928 205 943 206 q 936 210 922 212 q 907 214 894 214 q 867 214 840 214 z m 310 162 l 318 151 q 331 151 344 150 q 357 150 371 150 q 399 150 418 158 q 395 166 362 166 q 348 166 340 166 q 332 165 310 162 z m 475 154 l 517 150 q 528 150 528 162 q 521 164 514 165 q 508 166 497 166 q 479 166 475 154 z m 962 161 l 862 164 l 862 153 q 873 150 884 149 q 896 148 912 148 q 927 148 936 149 q 945 150 962 153 z m 1072 160 q 1063 164 1043 164 q 1026 164 1019 156 q 1023 155 1034 154 q 1046 153 1047 153 q 1061 153 1072 156 z m 338 113 l 334 105 l 509 105 q 490 109 458 111 q 426 113 402 113 z m 1053 111 l 878 112 l 878 104 l 1053 103 z"},"-":{"x_min":0,"x_max":555,"ha":555,"o":"m 426 508 q 425 502 425 491 q 425 449 444 424 q 463 400 503 400 q 509 400 523 402 l 522 198 l 97 199 q 91 207 91 225 q 91 231 92 242 q 93 254 93 259 q 93 275 87 284 q 81 294 62 297 l 0 297 l 0 503 l 27 518 q 79 512 134 510 q 189 507 263 507 l 284 507 l 302 507 l 317 507 l 332 507 l 344 507 q 362 507 380 507 q 399 507 417 508 z m 405 482 l 27 488 l 27 320 l 404 325 z m 360 446 q 365 439 367 428 q 369 417 369 405 l 369 378 l 369 361 l 62 362 q 63 367 63 379 q 63 388 62 397 q 62 406 62 415 q 62 430 64 439 q 67 448 77 453 z m 346 390 l 133 397 l 142 376 q 168 376 194 376 q 220 375 247 375 l 259 375 q 308 375 346 382 z"},"E":{"x_min":0,"x_max":1122,"ha":1122,"o":"m 1038 737 l 1079 736 l 1084 467 q 1063 461 1038 459 q 1013 457 983 457 q 959 457 926 459 q 894 461 871 463 q 865 468 865 480 q 866 495 866 502 q 866 522 848 524 l 804 524 q 799 532 799 546 l 799 562 q 799 581 785 585 l 507 586 q 497 575 497 551 q 497 533 497 515 q 516 509 538 507 q 560 505 588 505 q 604 505 634 506 q 664 507 677 507 q 677 477 686 458 q 695 438 720 438 q 724 438 734 440 l 743 440 q 747 409 747 368 q 747 345 747 323 q 744 306 743 298 q 717 295 675 294 q 633 293 628 293 q 606 293 563 294 q 520 295 501 295 q 500 288 498 272 q 496 257 496 249 q 496 235 498 228 q 501 220 510 214 l 784 213 q 794 225 796 245 q 799 265 799 271 l 799 292 q 799 312 802 324 q 804 335 814 345 l 1017 345 q 1016 327 1016 317 q 1016 296 1022 286 q 1029 275 1050 278 l 1078 277 l 1083 10 q 964 10 776 8 q 588 6 398 4 q 207 2 71 2 q 66 10 60 40 q 55 71 35 71 q 25 71 14 67 l 0 67 l 0 209 q 20 214 36 215 q 52 216 79 216 q 93 216 108 216 q 123 215 138 215 l 146 228 l 147 579 q 143 583 136 586 q 129 588 116 588 l 98 588 q 83 588 75 590 q 67 593 62 603 q 61 609 61 616 q 61 624 62 632 q 62 648 49 654 l 1 654 l 1 720 q 1 739 2 758 q 3 778 6 800 l 1014 798 q 1019 792 1019 781 q 1017 766 1017 759 q 1017 750 1022 744 q 1026 738 1038 737 z m 994 784 l 25 786 q 15 753 15 726 q 15 699 25 668 l 163 668 l 171 650 l 162 201 q 146 197 126 197 q 110 197 93 198 q 76 199 59 200 q 36 200 20 195 l 20 83 l 38 83 l 997 89 l 993 325 q 952 331 908 331 q 863 331 824 325 l 814 199 q 720 199 571 202 q 422 204 412 204 q 412 211 412 220 q 413 228 413 231 q 413 247 411 277 q 409 307 409 321 q 409 349 416 374 l 659 383 q 661 392 661 410 q 661 427 662 438 q 662 467 659 491 l 426 492 l 413 502 l 413 663 q 444 667 488 669 q 531 671 571 671 q 628 671 718 668 q 807 666 819 666 q 823 650 823 626 q 823 614 822 603 q 822 592 822 581 q 822 556 828 544 l 994 544 z m 974 756 q 974 737 977 697 q 980 657 980 637 q 980 600 970 567 l 848 568 q 844 577 843 586 q 842 594 842 607 q 842 617 842 627 q 842 637 843 647 q 843 666 840 679 q 836 692 825 700 l 399 697 l 390 681 l 389 474 q 418 467 447 464 q 476 462 519 462 q 538 462 577 463 q 616 464 635 464 q 639 457 639 439 l 639 419 l 639 407 l 399 403 l 389 390 l 388 181 l 402 171 l 827 170 q 837 180 840 199 q 842 218 842 225 l 842 252 q 842 270 844 282 q 847 294 855 302 l 973 301 l 979 128 l 969 108 l 47 111 q 45 115 44 125 q 43 135 43 141 l 43 168 q 51 170 68 172 q 86 173 106 173 q 117 173 142 172 q 166 171 179 171 l 189 185 l 191 687 q 174 694 158 696 q 141 699 115 699 q 104 699 82 698 q 60 697 49 697 q 43 705 43 722 q 43 730 45 741 q 47 752 49 758 z m 96 725 l 92 711 l 947 709 l 960 719 q 782 719 656 720 q 529 721 348 723 q 168 725 96 725 z m 952 671 q 937 676 922 676 q 899 676 896 664 q 916 658 932 658 q 952 658 961 667 q 956 672 952 671 z m 371 677 l 243 677 l 243 663 l 371 663 z m 371 612 l 259 616 q 250 612 246 609 q 241 606 243 598 q 259 598 276 598 q 292 597 309 597 q 324 597 340 598 q 356 599 371 602 z m 896 596 l 957 596 l 957 606 q 944 608 934 610 q 923 611 920 611 q 896 611 896 596 z m 371 545 q 345 549 330 550 q 315 551 299 551 q 281 551 266 549 q 251 547 239 541 q 252 535 268 533 q 285 531 304 531 q 321 531 341 532 q 361 534 371 535 z m 243 484 l 239 474 q 265 464 301 464 q 317 464 336 466 q 354 468 371 470 l 371 480 q 357 483 334 484 q 310 485 307 485 q 291 485 275 484 q 259 484 243 484 z m 247 431 l 247 417 l 619 417 l 619 426 q 535 426 402 428 q 269 431 247 431 z m 371 376 l 243 377 l 243 361 l 371 361 z m 371 309 l 259 314 q 250 310 246 308 q 241 306 243 296 l 371 296 z m 955 270 q 951 269 942 269 q 925 270 917 270 q 909 270 902 268 q 895 266 894 254 l 959 260 q 960 261 955 270 z m 371 243 l 259 249 q 257 245 248 244 q 240 243 243 235 q 261 231 277 230 q 293 228 318 228 q 331 228 344 228 q 358 228 371 229 z m 955 203 q 953 203 941 203 q 929 203 916 204 q 894 204 894 189 l 959 193 q 960 195 959 198 q 958 200 955 203 z m 248 182 l 249 164 q 259 164 282 163 q 305 162 317 162 q 335 162 350 164 q 365 166 377 172 q 362 179 346 182 q 331 184 308 184 q 298 184 278 183 q 257 182 248 182 z m 108 138 q 107 133 100 133 q 95 133 90 133 q 88 131 91 124 q 219 124 372 124 q 525 125 668 126 q 811 127 959 128 l 959 132 q 783 132 659 133 q 535 134 357 136 q 179 138 108 138 z"},"s":{"x_min":0,"x_max":802,"ha":802,"o":"m 178 272 q 116 294 68 344 q 20 393 10 426 q 0 460 0 472 q 0 500 10 524 q 19 547 39 572 q 87 607 152 624 q 218 640 291 640 q 351 640 414 630 q 477 619 532 601 l 545 635 l 704 635 q 709 627 709 615 q 709 594 712 589 l 762 581 l 761 390 q 737 390 684 386 q 631 382 613 382 q 614 381 694 320 q 775 258 775 197 q 775 173 753 117 q 731 61 648 30 q 565 0 450 0 q 393 0 342 12 q 291 24 244 51 q 240 44 240 33 l 240 15 q 240 7 237 1 l 71 1 q 72 5 72 9 q 72 13 72 15 q 72 38 56 48 q 41 58 14 58 l 14 243 q 37 247 67 247 q 90 247 130 244 q 169 242 176 242 z m 54 568 q 36 550 26 526 q 17 502 12 473 q 22 426 28 408 q 35 390 58 372 q 128 330 238 308 q 347 287 448 268 l 478 238 q 482 229 482 215 q 482 192 467 177 q 448 164 421 158 q 394 152 367 152 q 333 152 301 160 q 269 167 241 181 q 223 212 193 223 q 163 234 122 234 q 107 234 70 232 q 32 230 30 230 l 30 66 l 172 70 q 169 96 183 109 q 240 89 308 76 q 376 64 439 64 q 509 64 570 80 q 631 96 678 130 q 712 169 712 228 q 712 262 696 294 q 679 326 646 345 q 612 364 508 389 q 405 414 245 453 q 238 463 238 478 q 238 502 253 517 q 294 533 346 533 q 420 533 479 505 q 501 475 532 464 q 562 453 600 453 q 621 453 656 456 q 691 458 697 458 q 697 471 698 500 q 699 529 699 544 q 699 575 698 588 q 696 601 690 624 l 564 625 q 552 622 552 603 l 552 590 q 552 579 545 574 q 431 627 294 627 q 228 627 166 612 q 105 598 54 568 z m 479 453 q 462 453 424 458 q 385 464 374 464 q 338 464 314 445 l 582 390 q 565 413 538 429 q 511 445 479 453 z m 176 242 q 236 201 274 182 q 313 163 357 163 q 394 163 432 177 q 443 183 449 188 q 455 192 451 199 l 178 272 z m 563 540 q 575 546 575 566 q 574 582 574 590 q 574 598 575 601 l 674 600 q 673 593 673 588 q 673 582 673 580 q 673 566 676 542 q 678 518 678 511 q 678 503 678 496 q 675 484 674 478 l 550 474 q 511 516 456 535 q 401 554 337 554 q 324 554 314 554 q 303 553 269 549 q 250 538 236 528 q 223 517 219 502 q 215 493 215 481 q 215 455 238 434 l 280 410 q 281 410 435 384 q 589 357 654 314 q 673 290 683 268 q 693 247 693 220 q 693 214 692 205 q 690 196 689 190 q 660 130 603 108 q 546 87 465 87 q 437 87 381 90 q 325 93 301 93 q 270 97 231 114 q 192 131 156 147 q 152 136 152 117 q 152 100 148 90 q 128 88 114 86 q 99 85 95 85 q 83 85 72 86 q 60 88 50 97 l 50 208 l 168 211 q 204 170 253 152 q 302 134 362 134 q 400 134 431 140 q 462 145 477 161 q 492 177 501 199 q 501 231 489 254 q 477 276 440 291 q 403 306 302 320 q 200 334 142 352 q 85 371 42 426 q 35 443 35 466 q 35 498 50 530 q 85 574 135 589 q 185 604 255 604 q 285 604 314 603 q 344 602 373 601 q 418 602 467 584 q 516 566 563 540 z m 97 522 l 92 511 l 203 510 q 214 508 214 522 z m 554 527 l 506 532 q 510 519 526 519 q 536 519 544 521 q 551 523 554 524 z m 550 490 q 561 486 577 484 q 593 482 608 482 q 631 482 644 484 q 656 486 662 486 l 662 494 l 606 494 q 591 494 580 494 q 569 494 550 490 z m 206 467 q 192 470 172 472 q 153 473 129 473 l 81 473 l 78 460 l 137 460 q 155 460 173 461 q 191 462 206 465 z m 662 548 l 613 548 l 616 535 q 620 536 628 536 l 643 536 q 656 536 662 540 z m 85 415 l 85 410 l 245 410 q 230 415 216 416 q 201 417 175 417 q 160 417 130 416 q 99 415 85 415 z m 142 369 l 142 364 q 162 360 190 358 q 219 356 245 356 q 263 356 300 357 q 337 358 356 358 q 334 365 302 368 q 270 371 242 371 q 225 371 192 370 q 158 369 142 369 z m 375 322 q 398 316 422 314 q 447 311 481 311 q 511 311 541 312 q 571 313 601 314 q 579 319 546 321 q 513 323 482 323 q 455 323 428 322 q 401 322 375 322 z m 517 257 q 555 248 604 248 q 644 248 678 256 q 662 260 638 262 q 615 264 593 264 q 548 264 517 257 z m 181 563 l 471 562 q 399 576 321 576 q 243 576 181 563 z m 678 210 l 544 210 l 543 199 l 678 203 z m 186 181 l 91 186 l 91 173 l 186 173 z m 562 161 q 557 157 547 157 q 537 158 533 158 q 523 158 519 150 q 536 148 559 146 q 582 145 592 145 q 609 145 624 147 q 638 149 654 158 z m 137 134 q 115 136 104 136 q 88 136 87 124 l 142 123 q 142 133 137 134 z m 206 142 l 206 135 l 275 130 q 265 142 242 142 q 224 142 206 142 z m 298 109 q 356 96 428 96 q 497 96 554 108 z"},">":{"x_min":0,"x_max":583,"ha":583,"o":"m 529 313 l 55 110 l 55 198 l 430 354 l 55 508 l 55 595 l 529 395 z"},"l":{"x_min":0,"x_max":845,"ha":845,"o":"m 470 639 q 472 621 475 603 q 480 585 499 585 q 507 585 512 586 l 523 586 l 523 474 l 408 466 l 404 178 q 431 166 469 166 q 488 166 533 170 q 578 174 591 174 l 597 378 l 765 378 q 770 373 770 361 q 769 346 769 339 q 769 324 782 324 q 788 324 791 325 l 818 325 l 818 2 l 62 0 q 58 5 58 14 q 59 26 59 32 q 59 51 42 53 l 9 53 q 6 64 5 82 q 4 100 4 118 l 4 165 q 8 167 15 168 q 22 170 33 170 q 45 170 58 169 q 70 168 83 167 q 101 167 112 172 q 123 178 127 195 l 125 461 q 117 470 82 473 q 47 476 47 496 q 47 506 51 518 q 39 514 28 514 q 13 514 6 524 q 0 535 0 553 q 0 566 1 580 q 2 593 3 607 q 3 617 2 621 q 2 630 6 634 q 11 637 21 640 z m 16 626 l 16 538 q 22 537 28 537 q 34 537 41 537 q 51 537 62 537 q 72 537 83 538 q 96 538 110 536 q 125 535 139 525 l 138 168 q 130 161 115 158 q 100 155 85 155 q 76 155 56 156 q 37 157 28 157 q 21 151 18 140 q 15 129 15 118 q 15 109 15 100 q 15 92 16 84 q 16 74 15 69 l 752 67 l 753 358 q 738 363 724 364 q 711 365 688 365 q 673 365 646 364 q 618 363 607 363 l 604 158 q 582 158 537 157 q 492 156 468 156 q 418 156 398 158 q 377 159 338 164 q 338 231 340 379 q 342 527 342 537 q 357 537 372 536 q 387 536 402 536 q 419 536 437 536 q 452 539 458 540 l 454 625 l 400 625 l 353 625 l 311 625 l 275 625 l 244 625 l 217 625 l 193 625 l 172 625 l 153 625 l 135 625 l 120 625 l 108 625 l 96 625 q 78 625 60 625 q 43 625 25 626 z m 435 606 q 439 598 439 585 q 438 567 438 559 q 426 557 406 556 q 386 556 375 556 l 323 556 l 317 543 l 319 140 q 363 140 484 138 q 605 136 623 136 l 630 147 l 630 339 q 643 341 660 342 q 677 344 686 344 q 705 344 715 342 q 725 339 734 331 l 734 90 l 42 88 q 39 93 39 105 q 39 117 39 130 q 51 134 70 134 q 76 134 90 133 q 105 132 113 132 q 133 132 144 136 q 156 141 162 157 l 155 552 l 40 557 q 36 563 36 577 q 36 591 35 598 q 72 603 131 605 q 190 607 244 607 q 292 607 340 606 q 387 606 435 606 z m 78 579 l 74 568 l 427 567 l 427 575 q 368 575 228 577 q 89 579 78 579 z m 213 529 q 212 525 205 525 q 201 525 198 524 q 194 524 197 518 q 223 514 232 514 q 242 513 254 513 q 269 513 278 514 q 287 515 304 518 l 304 524 q 295 527 280 528 q 266 529 252 529 z m 304 474 l 202 475 l 197 464 l 304 463 z m 197 422 l 197 410 l 304 409 l 304 422 z m 304 367 l 216 371 q 215 368 202 368 q 195 368 197 359 q 206 357 223 356 q 240 356 251 356 q 278 356 304 359 z m 201 318 l 201 306 q 228 302 256 302 q 270 302 284 302 q 297 305 303 306 l 303 313 q 293 316 276 317 q 259 318 244 318 z m 668 317 l 668 306 l 722 309 q 717 317 700 317 q 684 317 668 317 z m 308 260 q 285 264 245 264 q 219 264 196 261 q 207 256 222 254 q 238 252 255 252 q 268 252 282 253 q 295 254 308 255 z m 722 262 l 681 267 q 680 263 670 263 q 661 263 665 254 l 722 254 z m 308 210 q 294 212 275 214 q 256 215 247 215 q 229 215 218 212 q 206 210 196 203 q 229 198 259 198 q 274 198 290 198 q 303 201 308 202 z m 665 205 q 669 204 678 203 q 686 202 694 202 q 710 202 722 205 q 718 209 710 211 q 702 213 692 213 q 673 213 665 205 z m 665 152 l 722 152 l 722 158 q 714 162 702 162 q 693 162 683 159 q 673 156 665 152 z m 196 160 l 201 149 q 213 145 228 145 q 240 145 270 149 q 299 153 308 153 q 299 157 283 159 q 267 161 252 161 q 238 161 224 160 q 210 160 196 160 z m 722 111 l 77 110 l 77 102 l 722 100 z"},"8":{"x_min":0,"x_max":933,"ha":933,"o":"m 784 718 q 793 705 840 648 q 886 591 886 543 q 886 528 885 521 q 884 514 878 499 q 878 478 841 447 q 804 416 804 400 q 804 389 813 377 q 866 324 878 306 q 891 287 896 266 q 900 245 900 232 q 900 206 891 184 q 882 161 846 107 q 775 51 688 26 q 600 0 498 0 q 420 0 344 14 q 268 27 192 52 q 172 70 94 114 q 15 158 8 200 q 0 242 0 260 q 0 312 24 358 q 47 404 90 430 q 86 449 62 470 q 39 491 34 507 q 14 543 14 590 q 14 659 52 710 q 112 763 189 782 q 266 802 365 802 q 417 802 512 798 q 607 793 615 793 q 667 785 708 768 q 750 750 784 718 z m 615 775 q 565 775 471 780 q 377 784 364 784 q 276 784 208 770 q 141 757 85 720 q 58 699 49 674 q 40 648 28 596 q 28 546 56 502 q 85 458 132 440 q 127 430 103 418 q 79 407 71 393 q 45 373 32 340 q 18 306 18 268 q 18 234 27 204 q 52 155 95 133 q 138 111 208 95 q 249 95 344 90 q 440 85 477 85 q 573 85 646 101 q 720 117 779 161 q 800 189 812 222 q 825 254 825 287 q 825 301 818 328 q 812 355 780 388 q 749 421 708 435 q 714 447 739 464 q 764 480 770 486 q 810 537 810 603 q 810 618 807 633 q 800 695 744 728 q 689 762 615 775 z m 776 657 q 786 624 786 588 q 786 567 782 550 q 777 533 762 512 q 746 491 710 472 q 674 452 600 439 q 600 425 614 425 q 674 425 720 405 q 766 385 789 334 q 798 310 798 280 q 798 233 779 198 q 726 146 652 126 q 577 106 482 106 q 439 106 336 112 q 233 119 202 119 q 168 130 135 141 q 96 156 78 176 q 59 197 50 222 q 42 247 42 274 q 42 302 56 342 q 71 381 131 405 q 206 425 240 435 q 155 457 110 480 q 65 503 57 564 q 57 608 62 638 q 68 667 98 698 q 129 730 201 742 q 287 750 328 756 q 366 756 428 758 q 489 761 501 761 q 597 761 664 740 q 732 719 776 657 z m 237 709 l 676 708 q 566 719 448 719 q 333 719 237 709 z m 402 689 q 341 680 306 664 q 270 649 262 621 q 253 593 253 581 q 253 526 297 496 q 347 471 417 471 q 504 471 563 510 q 591 543 591 583 q 591 591 591 599 q 588 607 578 633 q 568 659 520 674 q 472 689 402 689 z m 605 651 q 638 641 680 641 q 697 641 720 643 q 744 645 760 647 q 746 653 719 655 q 692 657 687 657 q 669 657 646 655 q 623 653 605 651 z m 256 652 l 122 652 l 118 643 l 256 642 z m 108 592 l 104 578 q 121 578 138 578 q 155 577 173 577 q 191 577 210 577 q 225 580 232 581 q 222 587 206 589 q 190 591 173 591 l 132 591 q 116 591 108 592 z m 770 590 l 642 590 q 649 582 660 579 q 670 576 683 576 q 694 576 717 579 q 740 582 751 582 q 758 582 770 580 z m 634 515 l 746 519 q 720 530 683 530 q 644 530 634 515 z m 246 524 l 114 525 q 122 518 136 514 q 150 511 168 511 q 186 511 215 514 q 244 516 246 516 z m 228 470 q 229 463 236 459 q 242 455 261 455 q 277 455 288 457 q 299 459 303 460 q 296 466 288 468 q 279 471 266 471 q 247 470 228 470 z m 589 462 q 598 462 602 462 q 609 462 613 468 q 608 475 602 470 q 595 466 589 462 z m 580 429 l 287 429 l 287 422 l 580 421 z m 500 392 q 488 392 458 393 q 429 394 413 394 q 352 394 312 381 q 271 368 250 327 q 245 307 245 290 q 245 262 254 242 q 264 221 287 209 q 318 198 359 190 q 400 182 435 182 q 474 182 508 192 q 542 201 570 222 q 583 235 590 255 q 597 275 597 293 q 597 307 592 329 q 587 351 564 365 q 541 379 500 392 z m 138 355 q 145 356 159 356 q 169 356 180 356 q 190 355 201 355 q 215 355 228 357 q 240 359 250 365 q 245 363 239 363 q 233 363 230 363 q 220 363 202 366 q 184 369 176 369 q 163 369 155 366 q 147 362 138 355 z m 618 368 l 618 358 q 643 356 655 355 q 667 354 690 354 q 710 354 726 356 q 742 358 752 364 z m 216 304 q 209 303 202 303 q 196 303 193 303 q 181 303 170 303 q 158 303 147 304 q 125 304 114 302 q 104 299 98 288 q 111 288 124 288 q 138 287 152 287 q 176 287 190 288 q 205 289 222 294 q 223 297 216 304 z m 657 303 l 657 293 l 783 297 q 766 302 751 303 q 736 304 710 304 q 696 304 683 304 q 670 303 657 303 z m 671 240 q 667 235 660 235 q 652 235 644 235 q 641 234 641 226 l 775 226 q 769 234 758 238 q 747 241 730 241 q 718 241 706 240 q 695 240 684 240 z m 94 237 l 98 223 l 239 227 q 225 234 208 236 q 191 239 164 239 q 144 239 120 238 q 97 237 94 237 z m 106 177 q 150 167 210 167 q 269 167 309 177 q 286 177 237 182 q 188 187 173 187 q 155 187 140 185 q 126 183 106 177 z m 587 175 q 598 175 624 174 q 651 173 665 173 q 692 173 704 174 q 716 176 735 182 q 709 184 684 186 q 659 189 650 189 q 627 189 614 186 q 601 184 587 175 z m 192 139 q 314 126 428 126 q 489 126 536 129 q 584 132 633 141 q 558 141 409 140 q 260 139 192 139 z m 553 344 q 563 335 568 323 q 573 311 573 299 q 573 285 568 270 q 564 254 562 246 q 537 224 500 214 q 464 203 423 203 q 363 203 306 223 q 267 246 267 292 q 267 307 273 321 q 293 351 326 365 q 360 379 402 379 q 442 379 478 370 q 515 361 553 344 z m 540 638 q 567 613 567 574 q 567 550 553 533 q 529 511 498 502 q 468 492 432 492 q 400 492 366 500 q 333 507 303 520 q 289 529 284 544 q 279 558 279 578 q 280 594 280 601 q 292 633 320 645 q 348 657 398 666 q 444 662 480 659 q 516 656 540 638 z m 411 288 q 387 279 371 268 q 355 258 355 243 q 355 239 358 233 l 491 226 q 510 235 530 244 q 553 258 553 279 q 514 288 497 290 q 480 293 455 293 q 442 293 434 292 q 426 291 411 288 z m 402 577 q 379 564 367 554 q 355 544 355 529 q 355 525 358 520 q 394 514 426 514 q 457 514 492 520 q 511 526 528 538 q 544 550 544 568 q 544 574 543 577 q 510 581 472 581 q 455 581 444 581 q 432 581 402 577 z"},"\\":{"x_min":0,"x_max":277,"ha":277,"o":"m 208 -12 l 0 728 l 71 728 l 278 -12 z"},"e":{"x_min":0,"x_max":898,"ha":898,"o":"m 830 590 l 863 589 l 867 374 q 851 369 836 368 q 822 367 796 367 q 770 367 746 368 q 721 369 697 370 q 692 375 692 385 q 693 397 693 402 q 693 418 678 419 l 643 419 q 639 424 639 435 q 640 446 640 451 q 640 465 628 468 l 406 469 q 402 465 400 457 q 398 449 398 441 q 398 426 398 412 q 411 408 430 406 q 448 404 467 404 q 481 404 506 405 q 532 406 542 406 q 542 381 549 366 q 556 351 576 351 q 583 351 587 352 l 594 352 q 596 343 596 324 q 596 305 597 294 q 597 265 594 238 q 581 237 554 236 q 527 235 504 235 l 491 235 l 479 235 q 459 235 440 235 q 420 235 401 236 q 399 223 398 216 q 397 210 397 199 q 397 177 408 171 l 627 170 q 635 179 638 190 q 640 201 640 219 l 640 235 q 640 253 642 260 q 643 268 651 276 l 814 276 q 813 262 813 255 q 813 238 818 229 q 823 220 840 222 l 862 222 l 866 8 q 710 8 590 6 q 471 5 298 4 q 124 2 57 2 q 56 4 50 30 q 43 57 26 57 q 20 57 11 54 l 0 54 l 0 167 q 11 170 29 171 q 47 172 64 172 l 110 172 l 117 182 l 118 463 q 110 471 93 471 q 80 470 74 470 q 57 470 50 482 q 49 487 49 494 q 49 500 50 506 q 50 518 39 523 l 1 523 l 1 584 q 1 600 1 617 q 4 633 5 640 l 811 638 q 815 633 815 624 q 814 613 814 608 q 814 592 830 590 z m 795 627 l 20 629 q 16 614 14 603 q 12 592 12 579 q 12 561 20 534 l 130 534 l 137 520 l 130 161 q 117 157 100 157 q 87 157 74 158 q 60 159 47 160 q 29 160 16 156 l 16 66 l 30 66 l 798 71 l 794 260 q 781 262 762 263 q 744 264 726 264 q 709 264 697 264 q 685 264 659 260 l 651 159 q 596 159 486 161 q 376 163 330 163 q 330 178 328 214 q 326 249 326 250 q 326 277 333 299 l 527 306 q 530 327 530 350 q 530 373 527 393 l 341 394 l 330 402 l 330 530 q 362 534 392 535 q 423 536 464 536 q 513 536 560 535 q 608 534 655 533 q 659 520 659 501 q 659 490 658 480 q 658 470 658 461 q 658 444 662 435 l 795 435 z m 779 605 q 779 585 782 550 q 784 515 784 509 q 784 478 776 454 l 678 454 q 674 466 674 484 q 675 506 675 517 q 675 531 672 542 q 669 553 660 560 l 319 558 l 312 545 l 311 379 q 330 374 360 372 q 389 370 417 370 l 429 370 q 446 370 464 370 q 481 370 499 371 l 508 371 q 509 368 510 361 q 510 354 511 348 l 511 326 l 319 322 l 311 312 l 310 145 l 322 137 l 662 136 q 669 143 672 153 q 674 163 674 179 q 673 197 673 206 q 673 218 675 226 q 677 235 684 242 l 778 241 l 783 102 l 775 86 l 38 89 q 34 97 34 116 l 34 134 q 55 138 84 138 q 99 138 114 138 q 128 137 143 137 l 151 148 l 153 550 q 142 555 126 557 q 109 559 92 559 q 78 559 65 558 q 52 558 39 558 q 34 563 34 578 q 34 594 39 606 z m 77 580 l 74 569 l 758 567 l 768 575 q 609 575 362 578 q 115 580 77 580 z m 762 537 q 753 541 738 541 q 720 541 717 531 q 729 526 744 526 q 761 526 769 534 q 764 537 762 537 z m 297 542 l 194 542 l 194 530 l 297 530 z m 297 490 l 207 493 q 200 489 196 487 q 192 485 194 478 l 247 478 q 262 478 278 478 q 291 481 297 482 z m 717 477 l 766 477 l 766 485 q 752 489 735 489 q 717 489 717 477 z m 297 436 q 267 441 239 441 q 210 441 191 433 q 199 429 215 427 q 231 425 244 425 q 257 425 270 426 q 284 427 297 428 z m 194 387 l 191 379 q 199 375 212 373 q 226 371 240 371 q 267 371 297 376 l 297 384 q 289 386 272 386 q 256 386 246 387 z m 198 345 l 198 334 l 495 334 l 495 341 q 446 341 327 343 q 208 345 198 345 z m 297 301 l 194 302 l 194 289 l 297 289 z m 297 247 l 207 251 q 201 248 196 246 q 193 243 194 237 l 297 237 z m 764 216 q 761 215 754 215 q 740 216 733 216 q 716 216 715 203 l 767 208 q 768 210 764 216 z m 297 194 l 207 199 q 206 196 199 196 q 192 196 194 188 q 205 185 222 184 q 238 183 254 183 l 297 183 z m 764 162 q 743 163 733 163 q 716 163 715 151 l 767 154 q 768 157 766 159 q 765 161 764 162 z m 198 146 l 199 131 q 212 131 226 130 q 239 130 253 130 q 274 130 282 132 q 290 133 302 138 q 292 143 276 145 q 261 147 246 147 q 234 147 222 146 q 210 146 198 146 z m 86 110 q 85 107 81 107 q 77 107 75 107 q 73 107 72 106 q 71 104 73 99 q 191 99 305 100 q 419 100 558 101 q 698 102 767 102 l 767 106 q 678 106 553 106 q 428 107 314 108 q 200 109 86 110 z"},"b":{"x_min":0,"x_max":929,"ha":929,"o":"m 827 567 q 848 561 860 538 q 873 516 881 502 q 884 485 884 470 q 884 429 866 392 q 847 356 813 330 q 817 305 857 274 q 897 244 899 224 q 901 203 901 195 q 901 144 878 102 q 854 61 814 38 q 773 15 732 8 q 692 1 638 1 q 621 1 604 1 q 587 1 570 2 l 52 2 q 48 7 48 18 q 49 33 49 40 q 49 51 45 55 q 41 59 27 56 l 0 56 l 0 170 l 109 172 l 117 183 l 118 458 q 107 465 95 468 q 83 471 72 471 l 53 471 q 61 523 11 523 l 2 523 l 5 634 l 95 634 l 173 634 l 239 634 l 298 634 l 349 634 l 394 634 l 433 634 l 468 634 l 498 634 l 525 634 l 549 634 l 570 634 l 588 634 l 603 634 l 617 634 l 629 634 q 647 634 665 634 q 683 634 702 635 l 711 635 q 740 635 779 603 q 818 571 827 567 z m 722 621 q 612 621 496 622 q 379 623 262 624 q 144 626 28 626 q 15 615 15 589 q 16 566 16 556 q 16 546 15 542 q 23 536 31 534 q 39 531 51 531 q 63 531 82 534 q 101 536 105 536 q 123 536 136 528 l 132 162 l 14 154 l 19 70 l 623 69 l 648 69 q 719 69 750 81 q 782 93 804 118 q 820 144 829 168 q 838 191 838 217 q 838 244 826 265 q 811 297 782 320 q 752 344 718 349 q 744 363 762 376 q 781 389 793 406 q 805 423 810 443 q 816 463 816 485 q 816 514 808 541 q 801 568 776 590 q 752 612 722 621 z m 767 401 q 741 384 726 376 q 710 369 688 369 q 682 369 670 371 q 660 367 658 360 q 657 352 657 338 q 668 331 718 326 q 767 320 786 295 q 821 257 821 213 q 821 203 816 168 q 810 132 755 103 l 698 92 l 34 94 l 34 135 q 43 137 60 137 q 78 137 89 138 l 143 138 l 151 150 l 152 546 q 137 552 119 554 q 101 555 88 555 q 76 555 64 554 q 51 554 39 554 q 31 559 31 568 q 33 580 34 588 q 36 596 34 599 q 204 599 373 600 q 542 601 711 602 q 739 597 764 575 q 789 553 798 526 q 801 506 801 487 q 801 459 794 438 q 786 418 767 401 z m 77 572 l 77 566 l 194 566 q 232 566 270 565 q 308 564 344 561 q 344 553 336 553 q 324 553 322 550 l 322 377 q 343 377 396 375 q 450 373 456 373 q 492 373 522 378 q 553 384 578 398 q 595 412 602 432 q 608 451 608 477 q 599 523 570 539 q 542 555 493 555 q 469 555 444 554 q 420 553 396 552 q 380 552 368 553 q 356 554 344 558 l 733 570 z m 299 539 q 287 543 271 543 q 256 543 231 540 q 206 538 203 538 q 191 538 186 539 l 186 531 l 300 531 z m 600 545 l 607 534 q 632 534 656 533 q 680 532 704 531 q 741 531 773 538 q 758 542 732 544 q 705 546 684 546 q 663 546 642 546 q 621 545 600 545 z m 664 496 q 663 493 650 493 q 648 493 647 492 q 646 490 648 485 q 686 480 723 480 q 735 480 746 480 q 757 481 788 485 q 776 492 758 495 q 741 498 726 498 q 716 498 695 497 q 674 496 664 496 z m 198 479 q 211 477 229 476 q 247 474 256 474 q 285 474 300 486 q 286 488 268 490 q 249 491 240 491 q 209 491 198 479 z m 667 444 q 664 440 658 440 q 653 439 656 431 l 777 431 l 777 439 q 766 442 748 443 q 730 444 713 444 z m 202 437 l 199 426 q 212 426 226 426 q 239 425 253 425 q 280 425 299 429 q 291 434 278 436 q 264 438 249 438 q 237 438 225 438 q 213 437 202 437 z m 299 385 l 213 388 q 212 384 206 384 q 202 384 198 384 q 195 383 198 377 q 210 374 228 373 q 247 372 250 372 q 265 372 274 373 q 283 374 299 377 z m 618 394 l 615 382 q 620 383 631 383 q 640 383 650 382 q 659 382 669 382 q 684 382 694 384 q 705 387 713 394 z m 642 344 l 208 345 q 207 343 200 342 q 194 341 198 334 l 638 333 z m 200 305 l 197 292 q 208 288 223 288 q 236 288 258 290 q 279 293 283 293 q 293 293 298 292 l 298 300 q 289 303 273 304 q 257 305 242 305 z m 322 320 l 317 153 l 325 142 l 566 150 l 597 171 q 623 199 623 234 q 623 247 618 262 q 614 276 600 290 q 586 304 567 314 z m 646 305 l 646 294 q 677 290 707 290 q 725 290 734 291 q 743 292 763 297 q 752 302 733 304 q 714 306 696 306 q 683 306 670 306 q 658 305 646 305 z m 298 251 q 287 251 264 254 q 240 256 235 256 q 221 256 211 253 q 201 250 197 241 q 211 241 225 240 q 239 240 254 240 l 266 240 q 283 240 298 243 z m 802 252 l 669 253 l 669 240 l 801 245 z m 200 202 l 197 187 q 209 187 222 186 q 235 186 248 186 q 278 186 298 191 l 298 198 q 288 201 276 202 q 264 203 249 203 q 237 203 224 202 q 212 202 200 202 z m 675 202 q 674 199 665 199 q 658 199 661 191 q 668 190 686 189 q 703 188 731 188 q 766 188 801 191 l 801 199 q 777 203 743 203 q 726 203 709 202 q 692 202 675 202 z m 200 150 l 200 135 l 212 135 l 224 135 q 262 135 298 141 q 290 146 276 148 q 263 150 248 150 q 224 150 200 150 z m 631 150 l 618 135 q 630 135 658 134 q 686 133 701 133 q 721 133 738 134 q 755 136 774 146 q 757 149 732 150 q 707 151 702 151 q 684 151 666 150 q 648 150 631 150 z m 76 108 l 76 100 q 123 100 233 99 q 343 98 403 98 q 517 98 584 100 q 651 103 739 111 q 581 111 412 110 q 244 109 76 108 z m 557 527 q 594 508 594 465 q 594 457 594 449 q 591 441 582 428 q 572 414 543 404 q 514 395 477 395 q 454 395 411 399 q 368 403 351 403 q 339 403 333 402 q 333 418 332 435 q 332 452 332 469 q 332 497 334 506 q 335 514 341 530 z m 608 246 q 608 219 597 198 q 586 178 562 168 l 335 164 l 333 293 l 343 301 q 362 297 388 297 q 405 297 442 300 q 479 303 498 303 q 540 303 567 292 q 594 280 608 246 z m 416 236 q 404 231 404 213 q 404 197 405 182 q 421 178 440 176 q 458 174 475 174 q 504 174 551 179 q 568 184 578 200 q 588 216 586 231 z m 409 466 l 408 410 l 538 414 q 551 420 562 430 q 573 440 573 451 q 573 458 567 466 z"},"%":{"x_min":0,"x_max":617,"ha":617,"o":"m 553 731 l 587 731 q 553 623 507 526 q 461 428 376 262 q 291 97 255 14 l 231 0 l 42 6 q 39 15 48 32 q 57 50 57 56 q 57 66 42 73 l 4 73 q 0 77 0 82 q 0 86 6 94 q 12 102 14 107 q 10 100 14 94 q 19 89 28 87 q 43 90 59 90 q 73 90 104 87 q 135 84 150 84 q 182 84 200 94 q 219 105 225 135 l 535 770 q 518 780 498 784 q 478 787 448 787 q 425 787 404 786 q 382 785 361 784 q 311 689 252 568 q 193 448 134 327 q 74 206 28 121 l 28 145 l 353 800 l 553 794 q 558 786 550 768 q 542 749 542 745 q 542 735 553 731 z m 481 722 l 183 117 l 70 117 q 106 205 158 314 q 210 424 288 580 q 367 735 377 756 l 487 756 z m 401 688 l 401 674 q 405 675 412 674 q 418 674 425 674 q 439 674 443 684 q 435 689 422 689 q 408 688 401 688 z m 408 621 q 401 626 389 626 q 377 626 370 622 q 363 619 366 612 q 384 611 392 611 q 403 611 408 615 z m 336 559 l 336 543 q 353 544 364 544 q 374 545 380 553 q 373 559 359 559 q 347 559 336 559 z m 342 495 q 327 495 319 495 q 308 495 304 492 q 300 490 304 481 q 319 481 326 481 q 339 481 346 487 q 347 490 342 495 z m 312 429 l 270 429 l 270 419 l 312 419 z m 236 357 q 244 360 258 356 q 271 353 272 353 q 280 353 284 361 q 268 367 256 367 q 240 367 236 357 z m 211 303 l 211 289 q 215 290 222 290 q 228 289 235 289 q 249 289 255 299 q 247 304 233 304 q 218 303 211 303 z m 221 237 l 177 237 l 177 227 q 194 227 202 227 q 215 227 221 231 z m 143 165 q 155 160 169 160 q 185 160 191 169 q 179 175 163 175 q 147 175 143 165 z m 182 700 q 184 690 195 690 q 201 690 208 690 q 216 691 219 691 l 222 598 q 217 600 210 600 q 204 601 195 601 q 183 601 155 598 q 127 594 120 594 q 101 594 90 603 q 80 612 80 635 q 68 637 60 638 q 51 639 45 638 l 43 731 q 72 731 118 732 q 165 734 176 734 z m 164 722 q 160 722 154 722 q 148 722 145 722 q 127 722 112 721 q 96 720 73 718 q 66 719 62 719 l 56 719 l 56 651 q 77 651 92 650 q 106 650 119 649 q 138 649 152 652 q 166 654 179 659 l 169 659 z m 154 684 l 151 666 l 72 667 q 72 670 72 680 q 71 689 71 691 q 71 705 81 706 q 87 705 92 705 q 97 705 109 706 q 121 707 128 707 q 140 707 147 702 q 154 698 154 684 z m 142 682 q 140 681 133 681 q 122 682 117 682 q 105 682 102 675 l 142 675 z m 182 700 q 184 690 195 690 q 201 690 208 690 q 216 691 219 691 l 222 598 q 217 600 210 600 q 204 601 195 601 q 183 601 155 598 q 127 594 120 594 q 101 594 90 603 q 80 612 80 635 q 68 637 60 638 q 51 639 45 638 l 43 731 q 72 731 118 732 q 165 734 176 734 z m 164 722 q 160 722 154 722 q 148 722 145 722 q 127 722 112 721 q 96 720 73 718 q 66 719 62 719 l 56 719 l 56 651 q 77 651 92 650 q 106 650 119 649 q 138 649 152 652 q 166 654 179 659 l 169 659 z m 154 684 l 151 666 l 72 667 q 72 670 72 680 q 71 689 71 691 q 71 705 81 706 q 87 705 92 705 q 97 705 109 706 q 121 707 128 707 q 140 707 147 702 q 154 698 154 684 z m 142 682 q 140 681 133 681 q 122 682 117 682 q 105 682 102 675 l 142 675 z m 542 170 q 544 160 555 160 q 561 160 568 160 q 576 161 579 161 l 582 68 q 577 70 570 70 q 564 71 555 71 q 543 71 515 68 q 487 64 480 64 q 461 64 450 73 q 440 82 440 105 q 428 107 420 108 q 411 109 405 108 l 403 201 q 432 201 478 202 q 525 204 536 204 z m 524 192 q 520 192 514 192 q 508 192 505 192 q 487 192 472 191 q 456 190 433 188 q 426 189 422 189 l 416 189 l 416 121 q 437 121 452 120 q 466 120 479 119 q 498 119 512 122 q 526 124 539 129 l 529 129 z m 514 154 l 511 136 l 432 137 q 432 140 432 150 q 431 159 431 161 q 431 175 441 176 q 447 175 452 175 q 457 175 469 176 q 481 177 488 177 q 500 177 507 172 q 514 168 514 154 z m 502 152 q 500 151 493 151 q 482 152 477 152 q 465 152 462 145 l 502 145 z m 542 170 q 544 160 555 160 q 561 160 568 160 q 576 161 579 161 l 582 68 q 577 70 570 70 q 564 71 555 71 q 543 71 515 68 q 487 64 480 64 q 461 64 450 73 q 440 82 440 105 q 428 107 420 108 q 411 109 405 108 l 403 201 q 432 201 478 202 q 525 204 536 204 z m 524 192 q 520 192 514 192 q 508 192 505 192 q 487 192 472 191 q 456 190 433 188 q 426 189 422 189 l 416 189 l 416 121 q 437 121 452 120 q 466 120 479 119 q 498 119 512 122 q 526 124 539 129 l 529 129 z m 514 154 l 511 136 l 432 137 q 432 140 432 150 q 431 159 431 161 q 431 175 441 176 q 447 175 452 175 q 457 175 469 176 q 481 177 488 177 q 500 177 507 172 q 514 168 514 154 z m 502 152 q 500 151 493 151 q 482 152 477 152 q 465 152 462 145 l 502 145 z"},"m":{"x_min":0,"x_max":1286,"ha":1286,"o":"m 474 639 q 485 619 498 600 q 512 582 536 582 q 546 582 555 586 l 563 586 q 598 516 634 447 l 738 638 l 1197 637 q 1201 630 1201 615 q 1201 600 1204 594 q 1208 588 1214 586 q 1220 584 1227 584 q 1243 585 1250 585 q 1252 575 1253 554 q 1254 534 1254 523 l 1254 473 l 1139 470 q 1133 433 1131 392 q 1129 352 1129 303 q 1129 274 1129 245 q 1129 216 1130 187 q 1137 177 1172 176 q 1208 175 1208 158 q 1208 148 1203 138 q 1201 130 1209 125 q 1217 120 1226 122 l 1253 122 l 1253 6 l 786 8 q 784 12 784 20 q 783 28 783 34 q 783 51 780 57 q 777 63 764 62 l 734 62 q 731 67 730 72 q 729 78 729 85 l 729 97 q 729 107 726 116 q 712 106 686 53 q 660 0 630 0 q 612 0 587 13 q 578 35 572 50 q 566 65 546 62 l 508 62 q 500 78 442 194 q 385 311 345 380 q 339 356 337 330 q 335 303 335 272 q 335 250 335 228 q 335 207 336 186 q 341 182 350 180 q 359 178 366 178 q 381 179 389 179 q 398 179 402 178 q 404 162 406 144 q 408 126 424 123 l 458 123 l 458 9 l 58 10 q 56 14 54 39 q 52 64 30 64 l 3 64 q 1 72 0 88 q 0 103 0 113 q 0 128 0 144 q 0 159 1 175 l 115 178 q 121 214 123 254 q 125 294 125 340 l 125 355 l 125 370 l 125 382 q 125 400 124 419 q 124 438 124 457 l 124 468 q 119 475 110 478 q 102 481 93 481 q 74 480 66 480 q 58 480 54 481 q 54 500 52 510 q 50 521 39 526 l 2 530 l 5 640 z m 16 629 q 13 606 13 581 q 13 564 14 556 q 15 549 21 538 l 71 538 q 87 538 103 537 q 119 536 135 533 l 130 167 q 114 167 99 167 q 84 167 70 168 q 50 168 41 166 q 32 165 14 159 q 11 139 11 116 q 11 95 14 75 l 394 79 l 390 162 q 375 162 360 162 q 344 161 328 161 q 305 161 296 162 q 287 164 271 170 l 272 525 q 275 533 280 536 q 284 540 288 538 l 516 74 q 529 74 542 74 q 556 73 570 73 q 602 73 622 78 l 853 536 q 856 537 860 534 q 865 531 869 528 l 868 174 q 857 167 841 164 q 825 161 811 161 q 799 161 788 161 q 777 161 766 162 q 752 162 745 161 l 745 78 l 1187 77 l 1185 160 l 1073 160 l 1065 173 l 1066 523 q 1075 530 1086 532 q 1097 535 1115 535 q 1125 535 1136 534 q 1147 534 1158 534 q 1172 534 1178 535 q 1185 541 1188 551 q 1190 561 1190 577 q 1190 591 1188 602 q 1187 612 1186 623 l 754 627 q 730 591 678 492 q 627 392 604 357 q 533 492 463 628 z m 849 359 l 841 359 q 830 335 800 276 q 769 218 759 180 l 849 185 z m 604 310 q 636 360 689 465 q 742 570 758 600 l 1166 599 l 1166 558 q 1152 553 1134 553 q 1121 553 1102 556 q 1082 558 1081 558 q 1068 558 1060 554 q 1051 549 1044 535 l 1046 149 q 1056 144 1072 142 q 1089 140 1105 140 q 1119 140 1133 140 q 1147 140 1161 141 q 1169 136 1169 127 q 1167 111 1165 96 l 1114 96 l 1071 96 l 1032 96 l 999 96 l 969 96 l 944 96 l 923 96 l 902 96 l 884 96 l 869 96 l 857 96 l 845 96 q 828 96 810 96 q 793 96 776 97 l 767 97 l 767 142 l 878 142 l 886 154 l 888 550 q 877 558 859 558 q 850 558 842 555 l 611 98 l 527 98 l 299 557 q 294 560 283 560 q 272 560 261 560 l 250 544 l 249 156 l 257 143 l 366 142 q 370 136 370 129 q 371 122 371 117 l 371 98 l 38 99 q 33 107 33 119 q 34 133 34 140 q 62 140 104 142 q 147 143 149 143 q 155 199 157 257 q 159 315 159 382 l 159 403 l 159 421 l 159 436 l 159 451 l 159 463 q 159 481 158 500 q 158 519 158 538 l 158 549 q 147 556 134 558 q 122 561 103 561 l 55 561 l 40 561 l 40 606 l 452 606 z m 1155 577 l 787 578 l 787 566 l 1155 566 z m 238 530 l 195 530 l 195 518 l 238 518 z m 356 530 l 359 518 q 366 519 378 519 q 390 519 413 516 q 436 513 447 513 q 462 513 468 514 q 475 516 486 521 q 475 525 458 527 q 440 529 425 529 l 382 529 q 370 530 365 530 z m 765 529 l 766 518 q 771 513 779 513 q 784 513 792 516 q 801 519 806 520 q 803 529 786 529 q 775 529 765 529 z m 929 528 l 929 517 q 959 512 988 512 q 1017 512 1036 520 q 1028 524 1014 526 q 999 528 987 528 l 943 528 z m 238 475 q 234 477 225 478 q 216 480 210 480 q 195 480 195 468 l 238 468 z m 501 480 q 494 479 488 479 q 481 479 478 479 q 467 479 456 479 q 444 479 433 480 q 413 480 402 478 q 390 475 383 467 q 393 465 414 464 q 434 464 447 464 q 479 464 509 467 l 509 472 z m 734 466 l 779 466 l 779 474 q 773 476 766 478 q 758 479 752 479 q 735 479 734 466 z m 932 478 l 926 466 q 947 464 956 463 q 964 462 982 462 q 1002 462 1012 463 q 1021 464 1036 470 q 1026 475 1012 477 q 997 479 983 479 q 971 479 958 478 q 945 478 932 478 z m 238 426 l 195 426 l 195 415 l 238 415 z m 410 426 l 410 414 q 437 411 447 410 q 457 410 479 410 q 502 410 512 412 q 523 413 536 418 q 526 422 508 424 q 491 426 478 426 l 427 426 z m 754 425 q 735 426 725 426 q 708 426 707 414 q 719 412 723 412 q 734 412 741 414 q 748 415 757 417 q 758 420 756 422 q 755 424 754 425 z m 929 425 l 926 414 q 956 409 987 409 q 1015 409 1035 416 q 1033 420 1032 424 z m 432 369 q 443 365 460 363 q 476 361 492 361 q 508 361 528 362 q 548 364 558 365 q 549 369 534 371 q 518 373 501 373 q 488 373 480 373 q 473 373 432 369 z m 238 372 l 195 372 l 195 361 l 238 361 z m 730 371 l 683 371 l 683 360 q 687 361 695 361 l 710 361 q 724 361 730 365 z m 926 370 l 926 359 l 974 359 q 990 359 1005 360 q 1020 361 1035 364 q 1027 368 1014 370 q 1000 372 986 372 q 976 372 956 371 q 935 370 926 370 z m 73 579 l 73 571 q 139 571 294 569 q 449 567 460 567 l 460 575 q 393 575 240 577 q 86 579 73 579 z m 238 319 q 233 321 224 322 q 215 324 209 324 q 192 324 195 312 l 238 312 z m 462 322 l 459 311 q 492 306 526 306 q 549 306 560 307 q 570 308 585 314 q 573 319 556 321 q 539 323 522 323 q 507 323 492 322 q 477 322 462 322 z m 661 307 q 678 306 686 306 q 703 306 707 318 q 698 320 690 322 q 682 323 674 323 q 664 323 660 320 q 657 316 661 307 z m 1027 321 l 1014 321 q 1004 321 994 321 q 984 321 974 322 q 956 322 945 320 q 934 318 926 310 q 956 305 985 305 q 1004 305 1012 306 q 1021 307 1035 313 z m 481 265 l 489 257 l 680 262 l 680 270 q 653 266 624 266 q 603 266 581 267 q 559 268 538 269 q 524 269 515 269 q 506 269 481 265 z m 238 270 l 194 270 l 195 258 q 210 257 218 257 q 230 257 238 262 z m 1032 268 l 929 269 l 929 256 l 1032 256 z m 194 208 l 238 208 l 238 216 q 228 218 220 220 q 212 221 210 221 q 194 221 194 208 z m 653 218 l 511 218 l 511 207 l 653 207 z m 929 218 l 925 206 l 1035 211 q 1026 215 1010 217 q 993 219 980 219 q 967 219 954 218 q 941 218 929 218 z m 210 170 q 209 167 204 167 q 200 167 198 167 q 191 167 194 159 q 203 155 217 155 q 230 155 238 159 l 238 167 q 232 165 223 168 q 214 171 210 170 z m 535 158 q 543 156 560 155 q 577 154 587 154 l 619 154 q 630 152 630 166 q 613 168 604 169 q 594 170 577 170 q 547 170 535 158 z m 936 168 q 935 165 928 165 q 921 165 925 157 q 937 154 957 153 q 977 152 980 152 q 1006 152 1034 157 q 1025 164 1012 167 q 999 170 987 170 q 980 170 963 169 q 946 168 936 168 z m 69 118 l 72 106 l 363 109 l 363 113 q 296 113 191 116 q 86 118 69 118 z m 603 117 q 598 116 590 116 q 583 116 576 117 q 562 117 557 109 l 603 109 z m 806 116 l 806 103 l 1157 107 q 1079 109 956 112 q 833 116 806 116 z"},"#":{"x_min":0,"x_max":555,"ha":555,"o":"m 426 560 q 425 557 425 551 q 425 529 444 516 q 463 503 503 503 q 509 503 523 504 l 522 397 l 97 398 q 91 402 91 411 q 91 414 92 420 q 93 426 93 429 q 93 437 87 442 q 81 447 62 449 l 0 449 l 0 557 l 27 565 q 79 562 134 560 q 189 559 263 559 l 284 559 l 302 559 l 317 559 l 332 559 l 344 559 q 362 559 380 559 q 399 559 417 560 z m 405 546 l 27 549 l 27 461 l 404 464 z m 360 527 q 365 524 367 518 q 369 512 369 506 l 369 492 l 369 483 l 62 483 q 63 486 63 492 q 63 497 62 502 q 62 506 62 511 q 62 519 64 524 q 67 528 77 531 z m 346 498 l 133 501 l 142 490 q 168 490 194 490 q 220 490 247 490 l 259 490 q 308 490 346 494 z m 426 370 q 425 367 425 361 q 425 339 444 326 q 463 313 503 313 q 509 313 523 314 l 522 207 l 97 208 q 91 212 91 221 q 91 224 92 230 q 93 236 93 239 q 93 247 87 252 q 81 257 62 259 l 0 259 l 0 367 l 27 375 q 79 372 134 370 q 189 369 263 369 l 284 369 l 302 369 l 317 369 l 332 369 l 344 369 q 362 369 380 369 q 399 369 417 370 z m 405 356 l 27 359 l 27 271 l 404 274 z m 360 337 q 365 334 367 328 q 369 322 369 316 l 369 302 l 369 293 l 62 293 q 63 296 63 302 q 63 307 62 312 q 62 316 62 321 q 62 329 64 334 q 67 338 77 341 z m 346 308 l 133 311 l 142 300 q 168 300 194 300 q 220 300 247 300 l 259 300 q 308 300 346 304 z m 83 252 q 84 270 84 288 q 84 307 83 325 l 83 337 l 83 352 l 83 367 l 83 385 l 83 406 q 82 480 80 535 q 79 590 76 642 l 83 669 l 191 670 l 192 608 q 193 589 198 583 q 204 577 212 577 q 215 577 221 578 q 227 579 230 579 q 239 579 243 573 l 247 148 l 140 146 q 141 160 141 166 q 140 206 127 225 q 114 244 92 244 q 87 244 83 243 z m 179 265 l 179 643 l 91 642 l 97 264 z m 110 592 q 113 602 118 604 q 122 607 130 607 q 135 607 140 606 q 144 606 149 606 q 155 606 158 607 l 160 300 l 151 300 l 137 300 q 131 300 125 302 q 119 304 116 309 z m 149 323 q 152 361 152 410 l 152 422 q 152 449 152 475 q 151 501 151 527 l 140 536 l 145 323 z m 273 253 q 274 271 274 290 q 274 308 273 326 l 273 338 l 273 353 l 273 368 l 273 386 l 273 407 q 272 481 270 536 q 269 591 266 643 l 273 670 l 381 671 l 382 609 q 383 590 388 584 q 394 578 402 578 q 405 578 411 579 q 417 580 420 580 q 429 580 433 574 l 437 149 l 330 147 q 331 161 331 167 q 330 207 317 226 q 304 245 282 245 q 277 245 273 244 z m 369 267 l 369 644 l 281 643 l 287 265 z m 300 593 q 303 603 308 606 q 312 608 320 608 q 325 608 330 608 q 334 608 339 608 q 345 608 348 609 l 350 302 l 341 302 l 327 301 q 321 301 315 303 q 309 305 306 310 z m 339 325 q 342 363 342 412 l 342 424 q 342 451 342 477 q 341 503 341 529 l 330 537 l 335 325 z"},",":{"x_min":0,"x_max":375,"ha":375,"o":"m 286 199 l 351 187 l 232 -39 q 191 -51 140 -51 q 90 -51 49 -39 q 49 -32 57 -14 q 65 5 65 9 q 65 21 50 26 l 0 26 q 11 85 28 146 q 45 206 66 258 q 116 269 182 269 q 210 269 242 268 q 273 266 308 262 z m 97 247 q 69 207 53 150 q 37 92 27 47 q 47 41 64 41 q 80 41 107 44 q 134 48 142 48 q 158 48 166 46 l 270 241 q 263 241 254 240 q 246 240 243 240 q 222 240 181 244 q 140 248 121 248 q 105 248 97 247 z m 221 215 q 221 189 200 152 q 178 114 158 80 q 136 75 121 72 q 106 70 88 70 q 76 70 65 73 q 65 103 78 141 q 91 179 104 215 q 109 214 119 214 q 134 214 160 216 q 186 219 191 219 q 209 219 221 215 z m 162 138 q 152 138 147 138 q 134 138 135 127 l 162 127 z"},"n":{"x_min":0,"x_max":1080,"ha":1080,"o":"m 421 639 q 441 614 457 597 q 473 580 496 580 q 506 580 517 584 l 707 296 q 714 311 717 334 q 720 356 720 379 q 720 406 718 422 q 716 437 711 466 q 704 468 674 469 q 644 470 644 490 q 644 496 647 507 q 644 515 636 518 q 628 520 616 520 q 602 520 596 523 l 597 630 l 613 638 l 999 633 q 999 619 1000 604 q 1002 588 1015 583 l 1050 583 q 1053 559 1054 551 q 1054 543 1054 526 q 1054 494 1046 473 q 1040 471 1027 470 q 1014 469 1007 469 q 987 469 967 469 q 945 467 930 457 l 929 0 l 661 1 q 644 26 636 38 q 627 50 614 55 l 576 55 l 343 393 l 335 382 l 335 178 q 340 174 348 172 q 357 170 364 170 q 380 171 388 171 q 397 171 401 170 q 403 166 404 144 q 405 121 419 116 l 454 116 q 456 106 457 86 q 458 67 458 55 l 458 6 l 54 7 q 56 12 54 21 q 51 30 48 40 q 48 45 52 49 q 38 46 30 46 q 13 46 6 56 q 0 67 0 85 q 0 97 1 110 q 2 123 3 136 q 3 143 1 153 q -2 164 6 169 q 15 174 25 172 q 30 173 41 173 q 53 173 65 172 q 77 171 89 170 q 105 170 114 175 q 123 180 124 194 l 122 462 q 118 466 111 468 q 104 471 91 471 l 79 471 q 66 471 61 472 q 56 474 53 482 q 53 496 53 503 q 53 521 40 525 l 2 525 l 2 635 l 10 640 z m 34 629 q 22 626 18 616 q 13 607 13 592 q 13 581 16 560 q 18 540 18 536 q 31 536 45 536 q 59 536 74 537 q 97 537 110 536 q 122 534 136 528 l 132 160 l 20 160 q 12 144 12 125 q 12 117 14 96 q 17 76 17 68 l 392 71 q 392 81 392 92 q 392 102 393 113 q 393 130 392 139 q 390 148 384 159 q 372 159 360 158 q 349 158 337 158 q 317 158 300 160 q 284 162 270 168 l 275 519 q 325 450 372 380 q 418 311 488 206 q 557 101 581 66 l 861 66 l 870 530 l 985 537 q 986 543 987 562 q 988 580 988 581 q 988 602 985 622 l 613 619 q 610 610 609 593 q 608 576 608 574 q 608 550 612 534 q 627 534 643 534 q 659 534 675 535 q 697 535 706 534 q 715 532 730 526 q 730 443 728 338 q 727 234 726 170 q 676 235 624 314 q 572 394 518 478 q 465 561 421 623 z m 715 140 q 719 136 729 136 q 738 136 742 135 l 754 150 l 754 542 q 743 549 730 552 q 718 554 699 554 l 649 554 l 634 554 q 631 562 631 570 q 631 585 631 600 l 966 599 l 966 556 q 958 554 942 554 q 926 553 916 553 q 900 553 884 553 q 869 553 854 554 l 846 542 l 845 93 l 834 85 l 592 90 l 286 551 q 281 555 273 555 q 264 554 256 554 q 252 517 250 464 q 248 410 248 359 q 248 324 249 252 q 250 179 250 144 q 261 139 278 137 q 296 135 312 135 q 325 135 338 135 q 352 135 365 136 q 369 130 369 116 q 369 101 370 94 l 47 87 q 35 92 35 110 q 35 118 36 124 q 37 130 39 137 q 45 138 57 138 q 65 138 82 137 q 100 136 109 136 q 126 136 137 138 q 148 141 159 149 l 152 552 q 145 556 135 558 q 125 560 117 560 q 104 560 84 558 q 65 555 62 555 q 51 555 37 558 q 33 565 33 572 q 33 575 36 587 q 40 599 40 605 l 405 604 z m 72 578 l 72 566 l 418 566 l 418 574 q 358 574 220 576 q 81 578 72 578 z m 950 575 l 673 576 l 670 565 l 946 561 l 958 569 z m 194 517 l 237 517 l 237 525 q 223 529 210 529 q 194 529 194 517 z m 451 524 l 341 527 l 341 516 q 352 514 366 513 q 381 512 396 512 q 406 512 418 512 q 430 513 450 516 z m 793 523 q 793 513 802 512 q 812 511 819 511 q 832 511 834 518 q 830 523 824 525 q 819 527 812 527 q 807 527 803 526 q 799 525 793 523 z m 486 470 q 469 478 451 478 q 439 478 420 476 q 402 473 397 473 q 387 473 382 474 l 382 466 q 402 461 433 461 q 446 461 459 461 q 472 461 486 462 z m 237 475 l 194 475 q 194 462 209 462 q 223 462 237 462 z m 793 474 l 793 461 l 812 461 q 826 461 834 466 q 831 474 817 474 q 805 474 793 474 z m 202 424 q 196 422 194 418 q 192 413 198 410 q 215 408 223 408 q 236 408 240 418 q 235 425 223 425 q 212 424 202 424 z m 420 423 l 420 409 l 519 409 q 509 425 479 425 q 469 425 457 424 q 445 423 434 422 q 424 422 420 423 z m 788 411 q 791 410 798 409 q 805 408 812 408 q 825 408 834 411 q 826 419 811 419 q 798 419 788 411 z m 193 360 q 210 359 218 359 q 230 359 239 363 q 235 369 236 371 q 232 369 222 370 q 213 372 208 372 q 194 372 193 360 z m 554 366 l 455 370 l 455 359 q 476 355 505 355 q 520 355 536 355 q 549 358 554 359 z m 792 358 q 804 354 814 354 q 829 354 834 362 q 830 366 824 368 q 817 370 807 370 q 789 370 792 358 z m 198 317 l 198 306 q 214 305 222 305 q 232 305 239 309 q 236 317 221 317 q 209 317 198 317 z m 486 316 l 489 305 l 590 305 l 590 313 q 581 315 564 315 q 547 315 537 316 z m 792 315 l 795 304 q 811 304 819 304 q 830 304 834 307 q 831 316 815 316 q 799 315 792 315 z m 193 256 l 239 256 l 239 264 q 225 268 210 268 q 193 268 193 256 z m 524 266 l 519 255 q 542 251 572 251 q 587 251 603 251 q 616 254 622 255 q 615 262 605 264 q 595 267 579 267 q 566 267 556 266 q 545 266 537 266 z m 834 262 q 825 265 814 265 q 797 265 787 258 q 794 250 809 250 q 820 250 826 252 q 832 254 834 254 z m 198 213 l 198 202 q 213 201 220 201 q 233 201 239 206 q 235 213 222 213 q 210 213 198 213 z m 554 212 l 557 201 l 658 200 l 658 209 q 650 211 634 211 q 617 211 607 212 z m 830 211 q 814 212 805 212 q 791 212 792 200 q 807 200 814 200 q 826 200 834 205 q 835 207 833 208 q 831 210 830 211 z m 239 160 q 227 164 216 164 q 201 164 193 155 q 200 147 214 147 q 227 147 239 152 z m 691 158 q 668 162 635 162 q 615 162 606 160 q 597 159 584 154 q 593 150 607 148 q 621 146 635 146 q 663 146 691 151 z m 787 154 q 794 146 809 146 q 820 146 826 148 q 832 150 834 150 q 831 162 821 162 q 816 162 804 158 q 792 154 787 154 z m 74 111 l 74 103 q 146 103 218 102 q 290 102 362 102 l 362 106 q 296 106 196 108 q 95 111 74 111 z m 834 104 q 805 104 750 108 q 694 113 688 113 q 660 113 650 112 q 639 110 619 105 l 834 96 z"},"h":{"x_min":0,"x_max":1054,"ha":1054,"o":"m 960 639 q 968 633 968 618 q 968 606 968 594 q 981 598 993 598 q 1010 598 1016 587 q 1023 576 1023 557 q 1023 548 1022 533 q 1020 518 1019 501 q 1019 489 1022 481 q 1014 477 1000 475 q 985 473 974 473 l 953 473 q 933 473 922 470 q 910 468 900 458 l 907 181 q 938 178 958 174 q 977 171 977 150 q 977 143 974 132 q 988 135 997 135 q 1015 135 1022 126 q 1028 116 1028 97 q 1028 88 1024 63 q 1021 38 1021 26 q 1021 15 1023 10 l 584 7 q 587 16 587 24 q 587 44 572 53 q 557 62 535 60 l 530 170 q 542 174 559 174 q 578 173 587 173 q 601 173 610 176 q 619 178 626 185 q 627 206 627 217 q 627 229 622 235 q 617 241 603 238 l 409 235 q 401 227 401 209 q 401 191 406 178 q 416 175 428 172 q 440 168 446 170 q 451 165 451 153 q 450 143 450 138 q 450 125 462 122 l 498 122 q 503 110 504 99 q 505 88 505 69 q 505 59 504 38 q 503 18 503 8 q 416 8 263 4 q 110 1 64 1 q 59 7 59 18 q 60 30 60 36 q 60 51 45 53 l 10 58 l 7 167 q 18 169 39 170 q 60 171 69 171 l 118 171 l 124 182 l 122 456 q 115 468 94 468 q 75 467 57 467 q 58 470 58 474 q 58 477 58 478 q 58 501 42 514 q 27 528 5 524 q 5 540 3 580 q 1 621 1 627 l 11 635 l 442 634 q 441 630 441 626 q 441 622 441 620 q 441 599 456 590 q 471 580 498 580 q 495 571 495 560 q 495 548 498 526 q 500 503 500 500 q 500 483 494 474 q 488 464 471 464 q 467 464 455 466 q 450 465 441 465 q 432 465 424 466 q 407 466 402 460 q 396 455 396 445 q 396 442 398 432 q 395 420 402 411 q 409 402 422 402 l 618 409 q 621 422 622 432 q 624 441 624 444 q 624 463 612 470 l 580 470 q 578 495 575 511 q 572 527 550 523 l 528 523 q 526 534 525 553 q 524 572 524 584 l 524 634 q 627 634 780 636 q 933 639 960 639 z m 949 625 l 550 626 l 539 622 l 542 534 q 554 534 566 534 q 579 534 592 535 q 620 535 638 526 l 634 394 l 346 391 l 334 399 l 330 516 q 335 528 346 532 q 356 536 371 536 q 380 536 388 536 q 396 535 403 535 q 420 535 429 539 l 426 622 l 27 622 q 20 615 18 606 q 15 596 15 580 q 15 566 16 555 q 17 544 19 532 q 32 532 46 532 q 60 532 75 533 q 110 533 116 532 q 121 531 138 524 l 137 161 q 111 158 82 157 q 53 156 23 156 l 26 66 l 435 71 l 433 160 l 341 163 q 337 175 335 192 q 333 209 333 226 q 333 248 334 260 q 335 272 338 296 l 630 303 l 642 292 l 637 162 q 624 162 612 162 q 599 162 587 163 q 563 163 546 159 q 545 151 545 142 q 545 132 545 127 q 545 114 545 100 q 545 86 546 71 q 579 71 649 70 q 719 69 754 69 q 831 69 864 70 q 897 72 955 78 q 959 95 959 115 q 959 135 956 158 q 943 162 918 162 l 897 162 q 876 162 864 164 q 851 165 838 170 l 835 526 l 842 538 q 856 538 870 538 q 884 537 899 537 q 916 537 934 537 q 948 540 954 541 z m 934 560 l 821 558 l 821 507 l 821 462 l 821 423 l 821 389 l 821 359 l 821 332 l 821 308 l 821 287 l 821 269 l 821 254 l 821 242 l 821 230 q 821 212 820 194 q 820 177 820 160 l 820 151 q 829 147 846 145 q 863 143 876 143 q 896 143 912 143 q 927 143 937 142 q 938 140 939 136 q 940 131 940 122 l 940 102 q 903 97 846 95 q 789 93 736 93 l 715 93 l 697 93 l 680 93 l 665 93 l 653 93 q 631 93 610 93 q 589 93 568 94 l 565 136 l 655 143 l 656 314 l 642 326 l 322 318 l 314 307 l 322 141 l 414 136 q 416 131 416 119 q 416 103 417 95 q 351 95 198 93 q 46 91 45 91 q 43 98 42 106 q 41 113 41 117 q 41 125 44 133 q 48 141 64 137 q 70 138 82 138 q 91 138 101 138 q 111 137 121 137 q 133 137 142 139 q 152 141 159 148 l 152 546 q 142 551 124 553 q 107 555 91 555 q 77 555 64 554 q 50 554 38 554 q 35 559 35 571 q 35 582 35 593 l 46 600 l 410 596 l 410 558 q 399 554 382 554 q 360 555 350 555 q 337 555 327 552 q 317 548 312 539 l 319 372 l 650 371 l 656 382 l 656 550 q 649 554 636 556 q 623 558 612 558 l 570 558 l 558 558 l 558 599 q 634 599 760 602 q 886 606 927 606 q 934 600 934 587 q 933 575 933 569 q 933 563 934 560 z m 596 572 q 626 568 653 567 q 680 566 716 566 q 765 566 840 568 q 915 571 922 571 l 922 576 q 893 576 830 577 q 768 578 736 578 q 692 578 660 577 q 629 576 596 572 z m 73 570 l 73 566 l 398 565 l 398 573 q 317 573 198 572 q 80 570 73 570 z m 802 538 l 699 538 l 699 526 l 743 526 q 758 526 773 527 q 788 528 802 531 z m 194 536 l 194 525 q 207 525 221 524 q 235 524 249 524 q 278 524 301 528 q 292 533 276 535 q 261 537 245 537 q 232 537 219 536 q 206 536 194 536 z m 702 489 l 699 478 l 802 478 l 802 486 q 793 488 775 488 q 757 488 746 489 z m 300 482 l 206 486 q 202 484 197 480 q 192 477 198 471 l 251 471 q 266 471 282 471 q 295 474 300 475 z m 698 436 l 698 424 q 711 420 726 420 q 740 420 760 422 q 781 425 785 425 q 796 425 802 424 l 802 431 q 791 434 774 435 q 757 436 742 436 z m 201 433 q 193 427 198 418 q 211 418 224 418 q 238 417 253 417 q 272 417 281 418 q 290 420 303 425 q 294 430 279 432 q 264 434 249 434 q 237 434 225 434 q 213 433 201 433 z m 698 382 l 698 371 q 710 371 724 370 q 737 370 751 370 q 774 370 785 372 q 796 373 805 379 q 795 381 782 382 q 769 383 756 383 q 741 383 726 382 q 712 382 698 382 z m 198 381 l 201 365 l 303 368 l 303 376 q 292 379 276 380 q 259 381 242 381 z m 805 344 l 198 342 l 197 331 q 342 331 555 334 q 768 336 804 336 z m 697 298 l 802 298 q 780 306 747 306 q 718 306 697 298 z m 206 303 q 203 299 198 299 q 192 299 195 291 q 205 289 224 288 q 244 287 254 287 l 290 287 q 302 289 302 298 z m 802 251 l 790 251 q 781 251 760 254 q 740 256 733 256 q 721 256 715 255 q 709 254 696 249 q 701 244 699 241 l 752 241 q 767 241 783 241 q 796 244 802 245 z m 198 250 l 198 238 l 302 242 q 295 246 282 248 q 269 250 256 250 l 213 250 z m 802 202 q 795 202 776 203 q 758 204 747 204 q 727 204 718 202 q 709 201 697 195 q 706 190 716 189 q 725 188 742 188 q 758 188 773 189 q 788 190 802 191 z m 195 190 q 216 185 249 185 q 265 185 274 186 q 283 187 301 190 l 301 196 q 287 198 268 200 q 250 201 241 201 q 227 201 216 199 q 204 197 195 190 z m 699 150 l 699 138 q 713 138 726 138 q 740 137 754 137 q 767 137 780 138 q 793 139 806 142 q 786 155 754 155 q 735 155 721 153 q 707 151 699 150 z m 195 139 q 208 132 230 132 q 239 132 262 134 q 284 136 287 136 q 299 136 306 135 l 306 144 q 280 147 251 147 q 230 147 220 146 q 210 144 195 139 z m 603 109 l 603 102 l 926 105 l 926 113 q 857 113 815 114 q 773 115 737 116 q 662 116 603 109 z m 80 107 q 79 104 82 100 q 86 97 86 96 l 406 103 q 376 109 345 111 q 314 113 280 113 q 231 113 156 110 q 82 107 80 107 z"},"z":{"x_min":0,"x_max":881,"ha":881,"o":"m 235 370 q 194 370 132 368 q 70 367 63 367 q 59 373 59 389 q 59 407 55 414 q 49 418 35 418 q 15 418 9 422 l 6 637 l 105 637 l 192 637 l 269 637 l 335 637 l 394 637 l 445 637 l 490 637 l 529 637 l 562 637 l 592 637 l 619 637 l 640 637 l 660 637 l 678 637 l 693 637 l 705 637 l 717 637 q 734 637 751 637 q 768 637 786 638 l 795 638 q 798 632 798 624 q 797 613 797 608 q 797 592 809 588 l 848 585 l 847 497 q 771 434 710 386 q 648 338 579 286 q 510 233 442 182 q 466 170 505 170 q 524 170 556 172 q 589 175 594 175 q 607 175 613 174 q 618 185 620 204 q 622 223 622 240 q 622 254 622 268 q 621 282 621 297 q 635 299 663 299 q 691 299 708 300 q 752 300 794 297 q 796 273 799 256 q 802 238 818 238 q 827 238 836 242 l 847 242 l 846 0 l 54 2 q 49 10 49 23 q 50 37 50 43 q 29 57 0 57 l 0 172 l 237 359 z m 26 629 l 18 618 l 20 433 l 166 436 q 167 443 167 457 q 167 465 166 474 q 166 482 166 491 q 166 506 168 516 q 171 527 179 537 l 478 531 q 418 479 332 413 q 247 347 162 282 q 78 218 11 164 l 16 68 l 781 69 l 786 273 l 778 289 l 635 286 q 635 269 635 252 q 635 236 636 219 q 636 196 634 186 q 633 175 627 158 l 316 163 q 375 216 435 262 q 495 308 596 383 q 696 458 740 493 l 756 516 l 759 511 q 773 518 778 530 q 784 543 784 561 q 784 578 782 592 q 780 607 778 627 z m 237 359 l 363 463 q 340 467 310 467 q 294 467 278 466 q 263 466 248 466 q 240 452 238 425 q 235 398 235 370 z m 255 144 q 314 144 452 141 q 590 138 646 138 q 655 159 655 204 q 655 250 659 266 l 758 266 l 758 88 l 38 90 q 36 101 34 115 q 31 129 31 140 q 31 152 35 159 q 112 214 164 254 q 215 294 346 397 q 476 500 540 550 q 507 554 450 556 q 394 558 354 558 q 321 558 254 557 q 187 556 152 556 q 149 545 148 530 q 147 514 147 498 l 147 455 q 128 453 118 452 q 107 451 89 451 q 71 451 60 454 q 49 456 39 464 l 45 606 l 759 605 l 759 535 q 689 478 598 410 q 506 342 416 274 q 327 207 255 144 z m 132 534 q 128 533 116 534 q 104 535 98 535 q 80 535 78 523 l 135 523 q 135 532 132 534 z m 724 528 l 578 528 l 567 517 l 710 512 z m 132 479 q 110 480 99 480 q 80 480 78 468 l 135 468 q 135 478 132 479 z m 509 474 l 498 462 l 644 462 q 655 462 655 474 z m 752 578 l 78 576 l 78 571 l 751 570 z m 589 421 l 454 424 q 453 421 441 420 q 429 419 432 408 l 578 408 z m 374 370 l 366 358 q 386 358 418 356 q 450 355 451 355 q 471 355 488 357 q 505 359 520 366 q 507 368 480 369 q 453 370 438 370 z m 306 318 q 300 318 296 314 q 292 310 294 306 q 319 306 344 305 q 368 304 393 303 q 410 303 423 304 q 436 305 451 309 l 451 317 l 433 317 l 418 317 l 404 317 l 392 317 q 374 317 356 317 q 337 317 318 318 z m 236 268 l 228 255 l 374 254 l 385 262 q 364 265 336 266 q 308 268 273 268 z m 159 206 q 172 204 199 203 q 226 202 241 202 l 305 202 l 316 213 q 301 213 264 215 q 228 217 225 217 q 205 217 189 215 q 173 213 159 206 z m 750 212 l 709 215 q 708 212 703 212 q 698 212 696 212 q 693 212 692 210 q 691 209 693 204 q 697 203 706 202 q 714 201 722 201 q 738 201 750 204 z m 102 164 l 94 153 q 112 150 140 149 q 167 148 170 148 q 190 148 211 148 q 228 151 236 152 q 240 151 244 154 q 247 158 247 163 z m 750 162 q 745 161 733 162 q 721 163 715 163 q 697 163 693 151 l 750 151 z m 750 108 l 105 114 q 101 111 91 111 q 72 111 69 102 q 226 102 470 100 q 714 97 750 97 z"},"B":{"x_min":0,"x_max":1161,"ha":1161,"o":"m 1034 709 q 1057 701 1074 676 q 1092 643 1101 628 q 1104 607 1104 588 q 1104 480 1016 412 q 1020 385 1070 346 q 1121 306 1123 285 q 1125 264 1126 256 q 1126 249 1126 244 q 1126 180 1096 128 q 1066 75 1016 47 q 966 19 914 10 q 861 2 790 2 l 712 2 l 628 2 l 556 2 l 493 2 l 439 2 l 391 2 l 349 2 l 313 2 l 282 2 l 255 2 l 231 2 l 210 2 l 192 2 l 177 2 l 162 2 l 150 2 q 131 2 112 2 q 94 2 75 3 l 65 3 q 60 9 60 22 q 62 41 62 50 q 62 71 44 71 q 38 71 34 70 l 0 70 l 0 212 l 136 215 l 146 229 l 147 573 q 132 583 118 586 q 104 589 85 589 l 66 589 q 67 594 67 602 q 67 626 53 640 q 39 654 14 654 l 2 654 l 6 792 l 889 794 q 924 794 972 754 q 1021 715 1034 709 z m 902 776 q 728 776 601 777 q 474 778 291 780 q 108 782 35 782 q 26 774 22 763 q 19 752 19 736 q 19 726 19 716 q 19 706 20 696 q 20 684 19 678 q 28 671 39 668 q 50 664 64 664 q 75 664 100 666 q 125 669 132 669 q 146 669 152 668 q 159 666 170 660 l 165 202 l 18 192 l 24 88 l 779 86 l 811 86 q 898 86 938 101 q 977 116 1005 147 q 1023 177 1035 209 q 1047 241 1047 272 q 1047 304 1030 338 q 1014 371 977 400 q 940 430 898 436 q 944 463 960 474 q 976 485 992 510 q 1006 528 1013 554 q 1020 581 1020 607 q 1020 629 1018 641 q 1017 653 1009 682 q 1001 710 970 738 q 939 765 902 776 z m 959 501 q 931 482 908 472 q 885 461 860 461 q 849 461 837 464 q 823 458 822 444 q 821 431 821 422 q 836 412 898 406 q 960 399 982 369 q 1003 346 1015 319 q 1027 292 1027 265 q 1027 259 1022 234 q 1018 208 998 178 q 978 147 944 129 l 873 115 l 42 117 l 42 169 q 69 173 106 173 q 124 173 142 172 q 160 172 179 172 l 189 188 l 190 683 q 179 687 162 690 q 144 693 115 693 q 98 693 82 692 q 65 692 49 692 q 39 700 39 710 q 39 713 42 723 q 45 733 45 739 q 45 745 43 749 q 255 749 466 750 q 678 751 889 752 q 923 746 954 718 q 986 690 997 658 q 1002 631 1002 610 q 1002 576 992 549 q 982 522 959 501 z m 96 715 l 96 707 q 132 707 169 707 q 206 707 243 708 q 306 708 345 706 q 384 705 430 701 q 430 692 419 692 q 406 692 403 687 l 402 471 q 428 471 484 468 q 540 465 569 465 q 618 465 654 472 q 690 479 723 497 q 744 515 752 540 q 760 564 760 596 q 749 653 712 674 q 675 694 616 694 q 588 694 544 692 q 501 689 495 689 q 482 689 467 690 q 452 690 430 697 l 430 701 l 916 713 z m 374 674 q 361 678 341 678 q 328 678 300 675 q 272 672 257 672 q 251 672 245 672 q 237 674 233 674 l 233 664 l 375 664 z m 750 681 l 759 668 q 781 668 829 666 q 877 664 878 664 q 910 664 924 666 q 939 667 966 673 q 943 679 917 681 q 891 683 860 683 q 842 683 805 682 q 768 681 750 681 z m 830 620 q 829 615 821 615 q 816 615 812 614 q 807 614 810 606 q 854 600 901 600 q 946 600 985 606 q 968 616 950 620 q 931 623 905 623 q 886 623 867 622 q 848 621 830 620 z m 248 599 q 284 596 300 594 q 315 593 319 593 q 340 593 352 596 q 363 598 375 607 q 352 609 328 611 q 305 613 299 613 q 278 613 266 610 q 255 608 248 599 z m 834 555 q 833 550 825 549 q 817 548 820 539 l 971 539 l 971 549 q 952 554 936 555 q 920 556 892 556 q 877 556 862 556 q 848 555 834 555 z m 252 546 l 249 532 q 265 532 281 532 q 297 531 313 531 q 328 531 344 532 q 360 533 374 536 q 363 543 349 546 q 335 548 312 548 q 302 548 282 547 q 261 546 252 546 z m 374 481 l 266 485 q 265 480 257 480 q 252 480 247 480 q 245 478 248 471 q 278 465 312 465 q 345 465 374 471 z m 773 492 l 769 478 q 774 479 784 479 q 791 479 810 478 q 828 477 838 477 q 855 477 868 480 q 882 484 891 492 z m 803 430 l 260 431 q 259 428 251 427 q 243 426 247 418 l 797 416 z m 250 381 l 246 365 q 261 361 279 361 q 291 361 315 364 q 339 367 351 367 q 358 367 372 365 l 372 375 q 356 380 341 381 q 326 382 302 382 q 289 382 276 382 q 263 381 250 381 z m 402 400 l 396 191 l 406 178 l 708 187 l 746 214 q 779 250 779 293 q 779 305 773 326 q 767 346 750 362 q 734 379 709 393 z m 807 381 l 807 367 q 852 362 861 362 q 870 362 884 362 q 913 362 922 364 q 931 365 954 371 q 938 378 918 380 q 898 382 873 382 q 856 382 840 382 q 823 381 807 381 z m 372 314 q 363 314 336 317 q 309 320 295 320 q 274 320 263 316 q 252 313 246 301 q 264 301 282 300 q 300 300 318 300 q 349 300 372 304 z m 1002 315 l 836 316 l 836 300 l 1001 306 z m 250 253 l 246 234 q 262 234 278 234 q 294 233 311 233 q 330 233 344 234 q 358 235 372 239 l 372 247 q 356 252 341 253 q 326 254 302 254 q 289 254 276 254 q 263 253 250 253 z m 844 253 q 843 248 838 248 q 833 248 830 249 q 823 249 826 239 q 863 235 914 235 q 930 235 949 236 q 968 236 1001 239 l 1001 249 q 985 252 966 253 q 947 254 923 254 q 903 254 884 254 q 864 253 844 253 z m 250 187 l 250 169 l 265 169 l 280 169 q 331 169 372 176 q 359 183 336 186 q 314 188 306 188 q 292 188 278 188 q 264 187 250 187 z m 789 188 l 773 169 q 798 169 824 168 q 850 167 876 166 q 905 166 927 170 q 949 173 968 182 q 943 187 921 188 q 899 189 864 189 q 845 189 826 188 q 808 188 789 188 z m 95 135 l 95 125 q 238 125 330 124 q 423 123 503 122 q 632 122 724 126 q 817 129 924 139 q 821 139 668 138 q 514 137 374 136 q 234 136 95 135 z m 696 659 q 719 647 731 626 q 743 606 743 581 q 743 565 737 548 q 715 518 678 506 q 641 494 594 494 q 562 494 502 498 q 442 503 440 503 q 424 503 416 502 q 416 514 415 540 q 414 567 414 581 q 414 606 416 625 q 419 644 426 663 z m 760 308 q 760 275 746 248 q 732 221 702 210 l 419 205 l 416 366 l 429 376 q 436 374 451 372 q 466 371 485 371 q 508 371 555 375 q 602 379 625 379 q 676 379 710 364 q 743 350 760 308 z m 520 295 q 505 289 505 267 q 505 247 506 228 q 553 218 595 218 q 612 218 639 220 q 666 222 689 224 q 710 230 722 250 q 735 269 732 289 z m 511 582 l 510 512 l 672 517 q 689 525 702 538 q 716 550 716 564 q 716 574 709 582 z"},"K":{"x_min":0,"x_max":1257,"ha":1257,"o":"m 579 799 q 584 793 584 780 q 583 764 583 757 q 583 745 588 738 q 593 731 607 731 q 624 733 641 735 q 646 744 646 767 q 646 790 651 799 l 1152 797 q 1151 793 1151 785 q 1151 729 1207 729 l 1219 729 q 1218 723 1218 711 q 1218 693 1221 664 q 1224 634 1224 631 q 1224 608 1219 590 q 1188 597 1157 597 q 1084 597 1008 550 q 931 503 861 458 q 879 422 908 403 q 938 384 980 376 l 1079 219 q 1088 215 1109 215 l 1133 215 l 1146 215 q 1146 185 1148 172 q 1150 160 1164 153 l 1208 153 l 1211 10 q 1203 11 1192 11 q 1182 11 1176 11 q 1151 11 1086 6 q 1021 0 1002 0 q 944 0 904 15 q 864 30 836 72 q 762 72 722 146 q 681 219 646 287 q 631 293 614 295 q 597 297 576 297 q 554 297 542 296 q 530 295 506 292 q 504 279 502 266 q 500 253 500 249 q 500 238 504 229 q 507 220 516 216 l 582 216 q 587 208 587 194 l 587 178 q 587 158 601 154 l 649 148 l 649 5 l 80 3 q 66 7 66 27 q 67 40 67 46 q 67 64 53 68 l 5 74 q 2 87 1 111 q 0 135 0 139 q 0 156 0 174 q 0 191 1 208 q 6 210 18 212 q 31 213 45 213 q 56 213 67 212 q 78 212 89 212 q 110 212 124 216 q 139 219 152 231 l 149 579 q 143 585 133 587 q 123 589 113 589 l 80 589 l 68 589 q 66 594 64 624 q 62 653 40 657 l 2 657 l 3 800 z m 20 784 q 10 771 10 750 q 10 743 12 728 q 14 713 14 705 q 14 693 10 685 l 20 671 q 35 671 51 671 q 67 671 83 672 q 117 672 132 670 q 147 667 163 660 l 168 211 l 158 197 l 19 198 q 17 184 16 166 q 14 148 14 140 q 14 104 29 84 l 567 91 l 568 196 l 425 202 q 418 220 416 238 q 413 257 413 285 q 413 297 414 322 q 415 347 415 360 q 425 371 440 375 q 454 379 472 379 q 487 379 502 378 q 517 377 532 376 q 544 376 550 377 q 615 368 659 297 q 692 234 722 177 q 752 120 799 102 q 846 84 917 84 q 945 84 1003 88 q 1061 92 1088 92 q 1101 92 1114 92 q 1125 90 1130 90 l 1126 201 q 1096 192 1072 192 q 1000 192 954 270 q 909 349 869 420 q 839 451 790 456 q 740 461 708 464 q 868 570 1036 662 l 1138 672 q 1137 678 1137 689 q 1137 703 1140 722 q 1142 741 1142 744 q 1142 754 1140 763 q 1137 772 1132 781 l 665 779 l 664 683 q 674 673 694 670 q 713 668 720 668 l 747 668 q 774 668 789 663 q 733 624 652 579 q 571 534 497 493 q 475 490 454 487 q 443 487 434 490 q 424 494 415 503 q 416 513 416 524 q 416 536 416 542 q 416 557 416 570 q 415 582 415 592 q 415 614 417 633 q 419 652 426 670 q 444 670 463 670 q 482 669 501 669 q 538 669 565 673 l 565 685 q 565 695 566 710 q 567 724 569 742 q 569 768 555 783 z m 654 645 q 654 636 654 627 q 654 617 660 612 q 665 616 684 622 q 702 629 702 645 q 697 650 690 650 q 685 650 676 646 q 667 643 663 643 q 660 643 654 645 z m 507 584 l 507 527 q 532 535 556 548 q 579 560 602 578 q 589 583 578 584 q 567 585 547 585 q 537 585 527 584 q 517 584 507 584 z m 535 755 q 541 745 541 727 l 541 709 l 541 697 q 535 696 523 696 q 505 696 487 697 q 469 698 451 699 q 428 699 414 696 q 400 692 388 680 l 392 469 l 507 465 q 560 501 626 537 q 692 573 762 611 q 831 649 879 683 l 865 697 l 694 697 l 694 751 l 1108 754 q 1114 744 1114 726 l 1114 708 l 1114 696 l 1036 692 l 670 478 q 670 476 666 464 q 663 451 664 444 q 676 436 693 432 q 710 429 731 429 q 740 429 750 429 q 760 429 770 430 q 798 430 818 424 q 837 419 851 400 q 869 379 924 272 q 979 166 1063 166 q 1079 166 1102 171 l 1102 113 l 812 120 q 769 149 724 232 q 678 316 649 354 q 620 391 554 401 l 397 401 q 392 386 390 368 q 388 351 388 332 q 388 315 390 270 q 392 225 392 220 q 391 204 391 196 l 391 183 q 431 175 452 172 q 473 169 501 169 q 520 169 540 172 q 544 165 544 147 l 544 127 l 544 115 l 43 116 q 44 120 44 128 q 43 144 43 152 q 43 170 57 174 l 186 173 l 196 203 l 187 688 q 170 695 152 698 q 133 700 105 700 q 89 700 74 700 q 58 699 44 699 l 44 756 z m 245 674 l 241 660 q 269 656 284 655 q 300 654 318 654 q 330 654 345 654 q 360 655 378 663 q 366 669 349 671 q 332 673 314 673 l 271 673 q 259 674 254 674 z m 886 658 q 906 657 917 657 q 925 657 932 659 q 938 661 942 668 q 922 673 910 673 q 890 673 886 658 z m 1100 720 l 742 721 l 742 707 l 1100 710 z m 378 602 q 363 605 346 606 q 329 607 310 607 q 290 607 272 606 q 255 606 241 606 l 241 592 q 256 592 271 592 q 286 591 302 591 q 327 591 343 592 q 359 594 378 598 z m 770 590 l 782 590 l 797 590 q 813 590 820 593 q 826 596 832 604 q 831 604 820 604 q 808 604 796 605 q 781 605 777 602 q 773 599 770 590 z m 527 721 l 88 722 l 88 708 l 527 711 z m 661 529 l 665 525 q 669 524 677 524 q 704 524 719 539 q 707 544 696 544 q 673 544 661 529 z m 245 540 l 245 526 q 261 526 278 526 q 295 525 313 525 q 329 525 346 526 q 362 527 378 530 q 368 536 351 538 q 334 540 317 540 l 263 540 z m 378 472 l 254 479 q 252 474 244 473 q 236 472 240 463 q 269 459 313 459 q 346 459 378 462 z m 647 477 q 641 476 628 476 q 618 476 608 476 q 598 476 589 477 q 567 477 561 474 q 555 471 552 462 q 568 458 600 458 q 610 458 622 458 q 634 459 651 462 q 651 474 647 477 z m 650 431 l 254 431 q 252 427 244 427 q 236 427 240 418 q 311 412 371 412 q 429 412 534 416 q 639 421 660 421 z m 852 374 l 669 380 l 661 370 q 679 365 701 363 q 723 361 745 361 q 772 361 798 362 q 825 363 852 364 z m 244 375 l 244 361 q 262 361 280 360 q 298 360 317 360 q 353 360 378 364 q 363 371 338 374 q 313 376 304 376 q 289 376 274 376 q 259 375 244 375 z m 378 308 q 362 310 341 312 q 320 314 303 314 q 284 314 268 310 q 251 307 240 299 l 378 299 z m 732 312 l 736 298 l 889 298 l 889 308 q 873 311 854 312 q 835 313 811 313 q 791 313 772 312 q 752 312 732 312 z m 780 241 q 794 235 811 233 q 828 231 849 231 q 873 231 887 232 q 901 233 927 236 q 915 243 894 247 q 874 251 855 251 q 812 251 780 241 z m 377 245 l 244 245 l 244 232 q 260 232 277 232 q 294 231 312 231 q 333 231 348 232 q 362 233 377 237 z m 240 174 q 253 168 270 166 q 286 164 305 164 q 320 164 340 166 q 361 168 377 170 l 377 179 q 344 185 306 185 q 268 185 240 174 z m 817 183 l 821 169 l 998 173 q 977 180 956 182 q 934 185 902 185 q 888 185 860 184 q 831 183 817 183 z m 1092 137 q 1056 137 1021 137 q 986 137 952 138 q 919 138 887 138 q 858 135 844 134 q 867 129 894 127 q 922 125 949 125 q 974 125 1032 127 q 1090 129 1092 129 z m 530 139 l 90 140 l 90 126 l 530 125 z"},"R":{"x_min":0,"x_max":1227,"ha":1227,"o":"m 1165 587 q 1168 569 1168 551 q 1168 462 1107 396 q 1099 390 1064 361 q 1030 332 1010 324 q 1025 292 1040 260 q 1062 223 1092 214 l 1130 214 l 1130 195 q 1130 177 1134 166 q 1137 155 1150 150 l 1192 150 l 1197 2 q 1168 5 1139 5 q 1108 5 1058 2 q 1009 0 1002 0 q 936 0 892 15 q 847 30 814 75 q 741 75 698 149 q 655 223 617 291 q 609 291 588 294 q 567 297 556 297 q 540 297 530 293 q 519 289 513 277 q 512 252 512 241 q 512 222 526 215 l 551 215 q 570 215 588 212 q 606 208 606 184 q 606 176 603 167 q 605 159 609 155 q 613 151 626 151 q 642 152 650 152 q 657 152 660 151 l 664 3 l 75 5 q 76 23 76 33 q 76 55 70 66 q 63 76 41 73 l 13 73 q 10 88 9 112 q 8 137 8 141 q 8 158 8 176 q 8 193 9 210 q 29 215 46 216 q 63 217 92 217 q 107 217 122 216 q 137 216 153 216 q 156 245 157 290 q 158 334 158 341 q 158 381 156 477 q 154 573 154 580 q 147 586 136 588 q 126 590 116 590 l 82 590 l 72 590 q 71 613 69 628 q 67 644 52 652 l 10 652 q 10 676 6 718 q 1 760 1 763 q 1 774 1 785 q 4 796 5 800 l 930 794 q 1007 771 1074 715 q 1142 659 1165 587 z m 28 786 q 22 775 20 762 q 18 748 18 732 q 18 719 20 701 q 22 683 24 672 q 35 672 59 673 q 83 674 95 674 q 119 674 137 672 q 155 669 172 662 l 177 210 q 169 203 158 200 q 147 196 134 196 q 125 196 100 200 q 76 203 65 203 q 55 203 44 200 q 32 197 26 185 q 21 173 21 154 q 21 142 24 119 q 27 96 27 87 l 568 85 q 576 93 580 108 q 584 123 584 140 q 584 172 574 199 q 564 197 551 196 q 538 195 526 195 q 503 195 484 197 q 464 199 431 205 l 425 350 q 427 366 438 372 q 450 379 468 379 q 483 379 498 378 q 513 377 528 376 q 540 376 545 377 q 604 361 640 296 q 675 230 706 174 q 738 119 786 102 q 834 84 902 84 q 928 84 955 85 q 982 86 1009 87 q 1037 87 1064 84 q 1079 78 1088 78 q 1105 78 1110 92 q 1116 107 1116 131 q 1116 140 1116 149 q 1115 158 1115 167 q 1115 179 1116 184 q 1110 199 1088 199 q 1075 199 1065 198 q 1055 198 1047 198 l 1036 198 q 978 198 934 278 q 890 357 872 372 q 949 386 1011 424 q 1073 463 1089 530 q 1092 548 1093 557 q 1094 566 1094 584 q 1094 614 1088 636 q 1083 658 1069 678 q 1042 724 1000 752 q 959 780 911 780 z m 929 750 q 981 730 1017 702 q 1053 674 1065 630 q 1069 610 1069 584 q 1069 550 1060 522 q 1052 494 1031 472 q 993 422 885 408 q 777 393 771 391 q 774 370 810 364 q 846 357 856 342 q 875 325 924 246 q 974 167 1037 167 q 1058 167 1082 174 q 1088 163 1088 144 l 1088 124 l 1088 112 q 1061 115 1032 115 q 1001 115 970 114 q 939 113 908 112 q 858 112 822 119 q 786 126 756 147 q 733 175 678 280 q 624 385 541 401 q 535 400 523 400 q 513 400 492 401 q 471 402 461 402 q 432 402 422 400 q 413 397 401 388 q 401 372 400 338 q 399 304 399 287 q 399 264 400 236 q 402 208 411 176 l 555 171 l 554 113 l 65 111 q 50 115 50 132 q 50 141 51 152 q 52 164 51 169 q 66 173 87 173 q 95 173 112 172 q 129 171 138 171 q 163 171 178 175 q 192 179 205 192 l 196 686 q 179 693 162 696 q 146 698 120 698 q 109 698 86 697 q 63 696 52 696 q 45 707 45 720 q 45 728 47 736 q 49 745 52 758 z m 96 724 l 96 710 l 959 712 q 837 712 684 714 q 530 717 349 720 q 168 724 96 724 z m 408 689 q 405 673 404 649 q 403 625 403 621 q 403 593 407 541 q 411 489 411 469 q 438 472 467 472 q 494 472 549 469 q 604 466 630 466 q 685 466 726 475 q 767 484 801 510 q 814 524 820 542 q 827 560 827 580 q 827 586 826 594 q 825 602 825 606 q 802 657 758 676 q 714 695 649 695 q 620 695 552 690 q 484 685 463 685 q 445 685 428 685 q 414 688 408 689 z m 382 669 q 372 672 360 673 q 348 674 334 674 q 320 674 286 672 q 252 670 249 670 l 249 662 q 282 656 319 656 q 339 656 350 657 q 361 658 383 661 z m 836 658 q 880 648 940 648 q 996 648 1038 657 q 988 663 934 663 q 889 663 836 658 z m 253 608 l 249 594 l 382 593 l 383 603 q 370 606 349 607 q 328 608 308 608 z m 878 600 l 888 586 l 1052 589 q 1035 596 1010 599 q 986 602 960 602 q 946 602 918 601 q 890 600 878 600 z m 273 546 q 270 541 261 541 q 255 541 250 540 q 245 540 248 532 q 263 530 284 528 q 306 526 323 526 q 343 526 358 528 q 374 530 386 536 q 371 546 348 546 q 339 546 322 544 q 305 542 296 542 q 282 542 273 546 z m 1038 533 l 888 538 l 870 524 q 925 519 967 519 q 989 519 1012 519 q 1030 522 1038 523 z m 252 478 l 248 464 l 386 464 l 386 474 q 371 477 346 478 q 322 479 319 479 q 302 479 286 478 q 269 478 252 478 z m 822 470 l 812 456 l 973 455 q 977 455 983 460 q 989 464 989 470 z m 253 432 l 253 416 q 336 416 421 415 q 506 414 591 413 q 692 413 763 416 q 834 419 921 430 z m 386 372 q 355 376 344 376 q 333 377 326 377 q 293 377 248 369 q 262 363 282 360 q 302 357 321 357 q 353 357 386 362 z m 675 367 l 675 353 q 688 351 700 350 q 713 348 721 348 q 733 348 742 350 q 750 352 757 359 q 749 365 740 367 q 730 369 718 369 q 711 369 696 368 q 682 367 675 367 z m 256 310 l 252 296 l 386 296 l 386 304 q 369 309 353 310 q 337 311 311 311 q 297 311 284 310 q 270 310 256 310 z m 720 310 l 724 296 l 871 299 q 857 306 836 309 q 815 312 792 312 q 780 312 756 311 q 731 310 720 310 z m 762 248 l 757 232 q 766 230 778 229 q 790 228 799 228 q 822 228 863 232 q 904 237 911 237 q 897 243 876 245 q 856 247 835 247 l 788 247 q 776 248 771 248 z m 386 242 l 252 243 l 256 229 q 274 229 293 228 q 312 228 331 228 q 348 228 366 228 q 380 231 386 232 z m 256 180 l 252 166 q 269 166 287 166 q 305 165 323 165 q 341 165 358 166 q 376 167 392 170 q 385 177 386 180 z m 783 189 l 787 175 l 965 178 l 965 184 q 942 188 920 189 q 897 190 867 190 q 846 190 825 190 q 804 189 783 189 z m 1072 136 l 828 143 l 818 137 q 844 129 873 126 q 902 122 940 122 q 962 122 1006 124 q 1050 126 1072 126 z m 540 137 l 105 138 l 99 124 l 540 123 z m 747 660 q 798 638 805 588 q 802 554 785 528 q 768 503 737 496 l 431 503 l 436 665 z m 528 583 q 517 574 517 552 q 517 542 518 532 q 519 521 521 511 l 737 517 q 760 528 772 537 q 785 546 785 563 q 785 571 781 578 z"},"T":{"x_min":0,"x_max":1287,"ha":1287,"o":"m 1176 798 q 1175 784 1175 776 q 1175 757 1180 746 q 1185 734 1200 732 l 1244 732 l 1243 329 l 1032 326 q 1027 330 1025 336 q 1023 342 1023 349 l 1023 364 q 1023 375 1020 381 q 1018 387 1008 392 l 960 392 l 956 573 q 939 580 922 582 q 904 585 877 585 q 862 585 847 584 q 832 584 817 584 q 802 521 802 448 q 802 413 807 333 q 812 253 812 221 q 868 221 886 208 q 903 194 903 166 q 903 158 902 153 q 909 149 927 149 l 947 149 l 959 149 l 959 5 q 861 5 763 5 q 665 5 567 6 q 469 6 371 7 q 367 11 365 37 q 363 63 347 68 l 303 69 q 300 83 299 106 q 298 130 298 133 q 298 145 299 170 q 300 195 300 208 q 307 211 316 212 q 325 213 337 213 q 346 213 366 212 q 385 211 394 211 q 416 211 431 217 q 446 223 453 240 q 449 279 448 316 q 447 353 447 405 q 447 447 447 490 q 447 532 448 575 q 409 587 369 587 q 344 587 327 584 q 310 580 294 571 l 294 328 l 75 328 q 70 336 70 350 l 70 365 q 70 385 55 390 q 37 389 27 389 q 20 389 14 391 q 7 393 3 400 l 0 777 l 8 797 l 157 797 l 286 797 l 397 797 l 494 797 l 578 797 l 653 797 l 719 797 l 776 797 l 827 797 l 871 797 l 910 797 l 943 797 l 973 797 l 998 797 l 1020 797 l 1041 797 l 1059 797 l 1074 797 l 1086 797 l 1098 797 q 1115 797 1132 797 q 1149 797 1167 798 z m 1148 784 q 904 784 746 782 q 589 781 368 779 q 147 777 24 777 l 31 408 l 204 408 l 205 657 q 228 662 256 664 q 285 666 314 666 q 340 666 400 664 q 460 662 462 662 l 467 198 l 323 198 q 321 183 319 166 q 317 150 317 135 q 317 120 319 106 q 321 93 327 83 q 403 83 500 85 q 597 87 694 89 q 792 91 873 91 l 868 197 q 857 197 833 196 q 809 195 797 195 q 773 195 755 198 q 737 200 720 207 l 711 622 l 721 666 q 759 666 815 668 q 871 671 877 671 q 904 671 928 669 q 951 667 974 661 l 984 412 l 1155 411 l 1156 770 z m 1132 756 q 1136 717 1137 682 q 1138 646 1138 598 l 1138 577 l 1138 559 l 1138 544 l 1138 532 l 1138 520 q 1138 502 1138 484 q 1137 466 1137 449 l 1137 440 q 1129 438 1112 436 q 1094 435 1074 435 q 1057 435 1040 435 q 1024 435 1008 436 l 998 450 l 998 679 l 984 693 q 947 693 908 694 q 870 695 832 696 q 793 696 760 694 q 727 692 697 686 l 700 177 l 850 167 l 850 115 l 341 116 l 341 168 q 350 172 358 173 q 366 174 377 174 q 390 174 413 171 q 436 168 446 168 q 463 168 475 174 q 487 181 495 198 q 495 283 490 470 q 486 656 486 686 q 460 689 412 690 q 365 691 319 691 l 195 691 l 185 677 l 185 438 q 168 433 152 432 q 136 431 110 431 q 96 431 82 431 q 69 431 55 432 l 47 448 l 42 739 l 52 753 z m 1108 723 q 983 723 796 721 q 610 719 422 717 q 234 715 100 715 l 100 705 q 236 705 425 707 q 614 709 802 711 q 990 713 1118 713 z m 98 674 l 98 664 q 113 658 132 658 q 151 658 166 664 l 166 668 q 158 675 137 675 q 117 674 98 674 z m 550 656 l 544 642 l 673 642 l 673 652 q 659 655 637 656 q 615 657 612 657 q 596 657 580 656 q 565 656 550 656 z m 1113 676 l 1051 676 q 1051 661 1073 661 q 1093 661 1113 662 z m 1051 604 q 1063 600 1084 600 q 1103 600 1116 604 q 1105 614 1081 614 q 1060 614 1051 604 z m 160 612 q 156 611 147 611 q 130 612 122 612 q 114 612 107 610 q 100 608 98 596 l 166 602 q 162 608 160 612 z m 673 590 l 544 590 q 553 581 567 578 q 581 574 602 574 q 618 574 640 576 q 663 579 673 580 z m 166 544 q 161 547 156 548 q 150 549 143 549 q 132 549 120 544 q 108 540 98 534 q 113 530 135 530 q 154 530 166 534 z m 550 527 l 544 513 q 557 510 574 509 q 590 508 612 508 q 648 508 673 512 l 673 522 q 661 525 641 526 q 621 527 602 527 z m 1055 546 l 1054 532 l 1067 532 l 1086 532 q 1105 532 1116 538 q 1110 547 1090 547 q 1072 546 1055 546 z m 1054 470 l 1116 470 l 1116 480 q 1102 482 1091 484 q 1080 485 1078 485 q 1054 485 1054 470 z m 165 482 l 102 483 l 101 469 l 165 469 z m 673 460 l 549 461 l 553 447 l 673 447 z m 543 389 q 574 378 614 378 q 657 378 677 393 q 650 397 636 398 q 622 399 606 399 q 587 399 572 397 q 556 395 543 389 z m 553 331 l 549 317 q 565 317 581 316 q 597 316 614 316 q 630 316 646 317 q 662 318 677 321 q 668 327 653 329 q 638 331 622 331 l 570 331 z m 676 263 q 646 269 610 269 q 591 269 580 268 q 569 267 549 264 q 565 249 606 249 q 621 249 642 252 q 664 254 676 255 z m 553 202 l 549 188 l 676 187 l 676 197 q 664 200 644 201 q 624 202 606 202 z m 405 140 l 395 126 l 830 125 l 830 135 q 732 135 578 138 q 424 140 405 140 z"},"P":{"x_min":0,"x_max":1218,"ha":1218,"o":"m 940 792 q 1028 765 1098 709 q 1169 653 1189 573 q 1192 553 1192 534 q 1192 492 1178 450 q 1163 409 1136 370 q 1086 305 1012 281 q 939 257 840 257 q 802 257 726 261 q 650 265 616 265 q 596 265 574 264 q 551 264 517 257 q 506 241 506 234 q 506 228 511 218 q 525 207 538 207 q 546 207 559 210 q 572 212 575 212 q 585 212 594 208 q 593 193 593 185 q 593 166 598 155 q 603 144 619 144 q 625 144 628 145 l 656 145 l 662 0 l 71 1 q 71 37 68 48 q 64 58 51 64 l 9 64 l 3 209 l 148 213 l 149 576 q 143 582 133 584 q 123 586 113 586 l 86 586 q 71 586 62 590 q 62 598 62 606 q 62 614 63 626 q 63 636 60 642 q 58 647 48 649 l 0 655 l 0 800 z m 20 784 q 10 767 10 746 q 10 734 15 708 q 20 682 20 669 q 35 669 50 669 q 65 669 81 670 q 115 670 128 668 q 142 667 165 662 l 172 223 l 164 195 q 148 195 132 195 q 116 195 100 196 q 72 196 55 195 q 38 194 19 189 l 23 78 q 141 78 347 82 q 553 87 579 87 l 576 194 q 563 194 536 193 q 510 192 497 192 q 476 192 458 194 q 439 196 424 202 l 424 255 q 424 284 426 302 q 427 320 431 339 l 884 342 q 943 347 986 362 q 1028 377 1060 414 q 1087 442 1100 482 q 1114 523 1114 565 q 1114 590 1109 622 q 1090 684 1042 724 q 994 765 930 778 z m 1006 719 q 1046 688 1068 647 q 1091 606 1091 557 q 1091 531 1084 507 q 1067 465 1040 432 q 1014 399 977 386 q 913 373 848 368 q 782 364 695 364 q 645 364 529 366 q 413 368 406 368 q 400 346 398 322 q 395 297 395 264 q 395 219 400 174 q 416 171 443 170 q 470 169 473 169 q 491 169 509 169 q 527 169 545 170 q 551 159 551 140 l 551 122 l 551 111 l 47 112 l 47 165 q 60 168 74 169 q 87 170 101 170 q 115 170 129 170 q 143 169 158 169 q 170 170 176 170 l 188 170 l 196 185 l 194 683 q 181 691 169 694 q 157 698 142 698 q 132 698 111 695 q 90 692 78 692 q 59 692 44 697 q 38 707 38 724 q 38 737 38 751 l 920 753 z m 93 721 l 93 707 l 968 709 q 843 709 688 712 q 532 714 349 718 q 166 721 93 721 z m 407 692 l 397 678 l 407 436 q 421 439 436 440 q 452 441 473 441 q 504 441 578 436 q 652 430 673 430 q 742 430 790 450 q 839 471 866 526 q 870 539 870 558 q 870 587 860 612 q 849 637 826 657 q 785 678 738 686 q 692 694 632 694 q 603 694 534 692 q 466 690 461 690 q 447 690 434 690 q 416 692 407 692 z m 256 658 q 255 654 247 654 q 239 654 242 644 q 260 642 280 640 q 300 638 317 638 q 336 638 352 640 q 369 642 383 648 q 372 654 356 656 q 340 658 324 658 l 273 658 z m 875 657 l 871 647 q 890 641 912 639 q 934 637 960 637 q 988 637 1004 638 q 1020 639 1050 642 l 1050 652 q 1027 656 1006 657 q 986 658 957 658 q 936 658 916 658 q 895 657 875 657 z m 383 585 q 347 592 310 592 q 278 592 242 586 q 255 580 272 578 q 289 576 310 576 q 332 576 346 577 q 360 578 383 581 z m 1074 584 q 1029 590 988 590 q 949 590 905 584 q 922 578 942 576 q 961 574 986 574 q 1006 574 1029 576 q 1052 578 1074 580 z m 241 513 q 276 507 313 507 q 350 507 383 513 l 383 523 q 365 525 341 526 q 317 528 306 528 q 284 528 268 525 q 252 522 241 513 z m 919 526 l 915 512 l 972 512 q 1011 512 1044 507 l 1068 521 q 1053 524 1030 525 q 1006 526 983 526 z m 242 455 q 248 450 246 445 q 263 445 280 444 q 298 444 316 444 q 336 444 352 445 q 367 446 383 450 l 383 460 q 365 460 347 460 q 329 460 312 461 q 299 461 284 460 q 268 460 242 455 z m 885 459 l 880 449 q 912 446 936 444 q 960 443 965 443 q 988 443 1007 446 q 1026 450 1040 459 z m 256 396 l 245 382 q 365 382 478 384 q 592 386 734 388 q 877 391 939 391 z m 382 329 l 251 330 l 245 316 l 382 315 z m 269 267 q 267 262 254 262 q 242 262 245 251 q 278 246 312 246 q 358 246 386 257 q 376 263 362 265 q 347 267 333 267 l 284 267 z m 382 198 l 251 199 l 251 185 q 269 185 288 184 q 306 184 325 184 q 343 184 361 184 q 376 187 382 188 z m 100 145 l 92 131 l 535 130 l 535 138 q 461 138 306 142 q 152 145 100 145 z m 778 657 q 825 637 842 588 q 843 582 843 570 q 843 519 812 488 q 779 469 733 462 q 687 454 629 454 q 579 454 526 456 q 473 458 439 460 l 425 468 l 431 662 z m 518 581 q 512 561 512 531 q 512 502 518 478 l 774 484 q 795 491 810 510 q 824 528 824 550 q 824 562 818 574 z"},"|":{"x_min":0,"x_max":259,"ha":259,"o":"m 92 -210 l 92 728 l 168 728 l 168 -210 z"},"t":{"x_min":0,"x_max":1030,"ha":1030,"o":"m 941 638 l 941 621 q 941 606 944 596 q 948 587 960 586 l 995 586 l 994 263 l 826 261 q 818 267 818 281 q 818 300 816 305 q 814 310 806 314 l 768 314 l 765 458 q 751 464 736 466 q 722 468 704 468 q 691 468 678 468 q 666 467 654 467 q 642 419 642 359 q 642 329 646 269 q 650 209 650 177 q 694 177 708 166 q 722 155 722 132 l 722 122 q 727 119 740 119 l 757 119 l 767 119 l 767 4 q 689 4 610 4 q 532 4 454 4 q 375 5 297 6 q 294 9 292 30 q 290 51 278 54 l 242 55 q 240 63 240 78 q 239 94 239 104 q 239 119 239 134 q 239 150 240 166 q 244 168 252 170 q 260 171 271 171 q 278 171 294 170 q 309 169 316 169 q 333 169 344 174 q 356 179 362 192 q 359 221 358 269 q 357 317 357 324 q 357 358 357 392 q 357 426 358 460 q 328 470 294 470 q 260 470 235 457 l 235 262 l 60 262 q 56 267 56 281 q 56 302 54 306 q 53 310 44 312 q 29 312 21 312 q 8 312 2 320 l 0 622 l 6 638 z m 918 627 q 773 627 622 626 q 471 624 320 623 q 168 622 19 622 l 25 326 l 163 326 l 164 526 q 185 530 205 531 q 225 532 253 532 q 273 532 312 531 q 352 530 370 530 l 374 158 l 258 158 q 256 142 255 134 q 254 125 254 109 q 254 93 255 86 q 256 78 262 66 q 352 66 499 70 q 646 73 698 73 l 694 158 q 679 158 664 158 q 649 157 633 157 q 610 157 601 158 q 592 160 576 166 l 569 498 l 577 533 q 599 533 640 535 q 681 537 700 537 q 731 537 744 536 q 756 534 779 529 l 787 330 l 924 329 l 925 616 z m 906 605 q 909 575 910 530 q 911 485 911 478 l 911 463 l 911 448 l 911 436 q 911 417 910 398 q 910 380 910 361 l 910 352 q 902 350 886 350 q 869 349 859 349 l 806 349 l 798 360 l 798 543 l 787 554 q 767 554 724 555 q 681 556 659 556 q 624 556 603 555 q 582 554 558 549 l 560 142 l 680 134 l 680 92 l 273 93 l 273 134 q 286 139 303 139 q 316 139 336 136 q 357 134 358 134 q 373 134 382 138 q 390 143 396 158 q 396 187 392 333 q 389 479 389 549 q 368 551 320 552 q 272 553 245 553 l 156 553 l 148 542 l 148 350 q 136 347 118 346 q 99 345 96 345 q 83 345 70 345 q 57 345 44 346 l 38 358 l 34 591 l 42 602 q 186 602 330 602 q 473 603 652 604 q 830 605 906 605 z m 886 578 q 726 578 607 576 q 488 575 317 574 q 146 572 80 572 l 80 564 q 250 564 370 565 q 491 566 662 568 q 833 570 894 570 z m 78 539 l 78 531 q 89 527 106 527 q 122 527 133 531 q 129 536 121 538 q 113 540 103 540 q 86 539 78 539 z m 440 525 l 435 514 l 538 514 l 538 522 q 530 524 514 524 q 498 524 489 525 z m 890 541 l 841 541 q 841 529 859 529 q 864 529 875 530 q 886 531 890 530 z m 841 483 q 844 482 850 481 q 855 480 867 480 q 881 480 893 483 q 889 487 881 489 q 873 491 865 491 q 847 491 841 483 z m 128 490 q 125 489 117 489 q 104 490 98 490 q 80 490 78 477 l 133 482 q 129 488 128 490 z m 538 472 l 435 472 q 448 459 481 459 q 491 459 502 460 q 512 461 538 464 z m 133 435 q 125 439 115 439 q 104 439 96 436 q 88 434 78 427 q 92 424 108 424 q 122 424 133 427 z m 440 422 l 435 410 q 443 408 460 408 q 476 407 487 407 q 514 407 538 410 l 538 418 q 528 420 508 421 q 489 422 477 422 z m 844 437 l 843 426 q 860 425 869 425 q 884 425 893 430 q 888 437 872 437 q 858 437 844 437 z m 843 376 l 893 376 l 893 384 q 877 388 861 388 q 843 388 843 376 z m 132 386 l 82 386 l 81 375 l 132 375 z m 538 368 l 439 369 l 442 358 l 538 358 z m 434 311 q 458 302 491 302 q 524 302 542 314 q 512 319 484 319 q 465 319 456 318 q 448 317 434 311 z m 442 265 l 439 254 q 452 254 466 254 q 480 253 495 253 q 522 253 542 257 q 536 261 523 263 q 510 265 498 265 l 456 265 z m 541 210 q 534 212 520 214 q 506 215 488 215 q 475 215 466 215 q 457 215 439 211 q 452 199 485 199 q 504 199 518 201 q 533 203 541 204 z m 442 162 l 439 150 l 541 150 l 541 158 q 531 160 512 161 q 492 162 480 162 z m 324 112 l 316 101 l 664 100 l 664 108 q 606 108 468 110 q 331 112 324 112 z"},"M":{"x_min":0,"x_max":1608,"ha":1608,"o":"m 593 799 q 617 757 634 743 q 650 729 670 729 q 682 729 694 733 l 704 733 q 748 646 793 559 l 923 798 l 1496 796 q 1501 788 1501 768 q 1501 749 1506 742 q 1510 734 1516 732 q 1522 730 1532 730 q 1547 730 1563 731 q 1566 715 1567 690 q 1568 664 1568 661 q 1568 643 1568 626 q 1567 608 1567 591 l 1424 588 q 1417 543 1414 498 q 1412 452 1412 386 q 1412 348 1412 310 q 1412 272 1413 234 q 1421 222 1466 220 q 1510 218 1510 196 q 1510 187 1504 172 q 1501 161 1510 156 q 1519 150 1532 152 l 1566 152 l 1566 8 l 983 10 q 981 14 978 46 q 976 78 955 78 l 917 78 q 911 88 911 106 l 911 127 q 911 136 908 145 q 891 133 858 66 q 825 0 787 0 q 765 0 734 16 q 730 21 720 52 q 711 82 683 78 l 635 78 q 605 138 558 233 q 511 328 490 370 q 468 412 431 475 q 424 443 422 396 q 419 350 419 337 q 419 311 419 284 q 419 258 420 232 q 427 226 436 224 q 446 222 457 222 q 475 223 484 223 q 496 223 502 222 q 504 217 506 188 q 508 158 530 154 l 573 154 l 573 11 l 72 12 q 68 41 65 60 q 62 80 38 80 l 4 80 q 2 89 0 106 q -1 124 -1 144 q -1 156 0 181 q 1 206 1 219 l 144 223 q 151 270 154 316 q 156 362 156 430 l 156 450 l 156 468 l 156 483 l 156 495 l 156 507 q 156 524 156 541 q 155 558 155 576 l 155 585 q 150 593 142 597 q 133 601 115 601 q 92 600 82 600 q 72 600 67 601 q 68 605 68 616 q 68 632 64 642 q 60 652 49 657 l 2 663 l 6 800 z m 20 786 q 18 762 17 750 q 16 738 16 727 q 16 710 18 697 q 20 684 26 673 l 80 673 q 110 673 128 672 q 147 671 169 666 l 162 209 q 150 209 126 210 q 103 211 92 211 q 70 211 54 209 q 38 207 18 199 q 16 186 15 172 q 14 159 14 146 q 14 132 14 123 q 14 114 18 94 l 492 99 l 488 202 q 477 202 452 201 q 428 200 416 200 q 392 200 374 202 q 356 205 339 212 l 340 656 q 342 663 348 669 q 354 675 360 672 l 645 92 q 659 92 674 92 q 689 91 704 91 q 728 91 744 92 q 760 94 778 98 l 1066 670 q 1070 671 1076 666 q 1083 662 1086 660 l 1085 217 q 1071 208 1053 204 q 1035 201 1013 201 q 999 201 984 201 q 970 201 956 202 q 939 202 931 201 l 931 98 l 1484 96 l 1481 200 l 1341 200 l 1331 216 l 1332 654 q 1342 662 1358 666 q 1375 669 1394 669 q 1407 669 1421 668 q 1435 668 1449 668 q 1465 668 1472 669 q 1480 677 1484 689 q 1487 701 1487 720 q 1487 740 1485 756 q 1483 771 1482 779 l 943 784 q 914 740 850 616 q 786 492 755 446 q 725 492 696 554 q 667 616 638 679 q 608 742 579 785 z m 1061 449 l 1051 449 q 1045 436 1004 356 q 962 275 949 225 l 1061 231 z m 755 388 q 783 433 821 504 q 859 575 896 650 q 933 724 947 750 l 1458 749 l 1458 697 q 1448 693 1440 692 q 1431 691 1419 691 q 1408 691 1384 694 q 1361 698 1351 698 q 1335 698 1324 692 q 1314 686 1305 669 l 1307 186 q 1324 179 1340 176 q 1357 174 1383 174 q 1394 174 1417 175 q 1440 176 1451 176 q 1461 170 1461 158 q 1458 139 1456 120 l 1393 120 l 1339 120 l 1291 120 l 1249 120 l 1213 120 l 1180 120 l 1153 120 l 1129 120 l 1108 120 l 1090 120 l 1074 120 l 1059 120 l 1047 120 q 1028 120 1009 120 q 990 120 971 121 l 959 121 l 959 177 l 1098 177 l 1108 192 l 1110 688 q 1097 698 1076 698 q 1066 698 1052 694 l 764 122 l 659 122 l 374 696 q 368 700 353 700 q 339 700 326 700 l 312 680 l 311 195 l 321 179 l 458 178 q 464 168 464 150 l 464 132 l 464 122 l 48 124 q 42 132 42 149 q 42 162 42 175 q 66 175 122 177 q 178 179 186 179 q 193 248 196 312 q 198 375 198 468 l 198 495 l 198 519 l 198 540 l 198 558 l 198 573 l 198 588 l 198 600 q 198 618 198 637 q 197 656 197 675 l 197 686 q 184 694 166 698 q 149 701 129 701 q 115 701 102 700 q 88 700 74 700 q 58 700 50 701 l 50 758 l 565 757 z m 1444 721 l 984 722 l 984 708 l 1444 707 z m 298 662 l 244 662 l 244 648 l 298 648 z m 445 662 l 449 648 q 456 649 470 649 q 486 649 518 646 q 549 642 559 642 q 578 642 586 643 q 593 644 608 651 q 590 658 567 661 q 544 664 520 664 q 507 664 482 663 q 456 662 445 662 z m 956 661 l 957 647 q 963 641 972 641 q 979 641 991 646 q 1003 650 1008 650 q 1004 660 985 660 l 967 660 q 959 660 956 661 z m 1161 660 l 1161 646 q 1187 642 1202 641 q 1217 640 1233 640 q 1251 640 1267 642 q 1283 645 1295 650 q 1283 656 1266 658 q 1250 660 1233 660 l 1179 660 z m 298 594 q 288 596 276 598 q 265 600 263 600 q 244 600 244 585 l 298 585 z m 626 600 q 619 599 610 599 q 602 599 597 599 q 583 599 570 599 q 556 599 543 600 q 516 600 502 598 q 489 595 479 584 q 495 582 516 581 q 537 580 558 580 q 577 580 597 580 q 624 583 636 584 l 636 590 z m 918 583 l 974 583 l 974 593 q 964 595 952 597 q 941 599 939 599 q 918 599 918 583 z m 1165 598 l 1157 582 q 1181 580 1193 579 q 1205 578 1227 578 q 1247 578 1264 580 q 1281 583 1295 588 q 1278 595 1256 598 q 1234 600 1227 600 q 1218 600 1198 599 q 1177 598 1165 598 z m 298 533 l 244 533 l 244 519 l 298 519 z m 513 532 l 513 518 q 533 516 557 514 q 581 512 601 512 q 622 512 640 514 q 658 516 670 522 q 652 529 633 532 q 614 534 586 534 q 574 534 549 533 q 524 532 513 532 z m 942 531 q 941 531 930 531 q 918 531 906 532 q 885 532 884 517 q 898 515 904 515 q 912 515 925 517 q 938 519 946 521 q 947 523 946 526 q 945 528 942 531 z m 1161 531 l 1157 517 q 1175 515 1195 513 q 1215 511 1232 511 q 1260 511 1270 512 q 1279 514 1294 520 q 1290 529 1290 530 z m 540 461 q 556 455 574 453 q 592 451 615 451 q 640 451 654 452 q 668 453 697 456 q 685 462 668 464 q 650 466 626 466 q 583 466 540 461 z m 298 465 l 244 465 l 244 451 l 297 451 z m 912 464 l 854 464 l 854 450 l 866 450 l 884 450 q 902 450 912 456 z m 1157 463 l 1157 449 q 1172 449 1187 448 q 1202 448 1218 448 q 1243 448 1259 450 q 1275 451 1294 455 q 1281 461 1257 463 q 1233 465 1229 465 q 1217 465 1192 464 q 1168 463 1157 463 z m 91 724 l 91 714 q 202 714 375 712 q 548 709 575 709 l 575 719 q 463 719 292 722 q 122 724 91 724 z m 297 399 q 289 401 276 403 q 263 405 261 405 q 240 405 244 390 l 297 390 z m 578 403 l 574 389 q 592 387 616 385 q 641 383 660 383 q 682 383 700 385 q 717 387 731 393 q 713 400 695 402 q 677 405 650 405 q 638 405 614 404 q 590 403 578 403 z m 826 384 q 846 383 857 383 q 868 383 874 386 q 881 388 884 398 q 873 400 863 402 q 853 403 843 403 q 823 403 823 392 q 823 389 826 384 z m 1284 401 q 1279 400 1267 400 q 1258 400 1239 401 q 1220 402 1211 402 q 1193 402 1180 399 q 1166 396 1157 387 q 1174 385 1194 383 q 1213 381 1230 381 q 1249 381 1265 383 q 1281 385 1294 391 z m 601 331 l 611 321 l 850 327 l 850 337 q 833 334 808 333 q 783 332 781 332 q 762 332 718 334 q 673 336 669 336 q 653 336 636 335 q 619 334 601 331 z m 297 338 l 243 338 l 244 322 q 262 322 271 322 q 287 322 297 328 z m 1290 335 l 1161 336 l 1161 320 l 1290 320 z m 243 260 l 297 260 l 297 270 q 288 272 276 274 q 265 276 263 276 q 243 276 243 260 z m 816 273 l 639 273 l 639 259 l 816 259 z m 1161 272 l 1156 258 l 1294 264 q 1281 270 1264 272 q 1248 274 1229 274 q 1218 274 1195 273 q 1172 272 1161 272 z m 263 213 q 262 208 254 208 q 249 208 244 208 q 240 207 243 199 q 255 193 271 193 q 285 193 297 199 l 297 209 q 289 207 278 210 q 267 214 263 213 z m 669 198 q 680 195 696 194 q 713 193 729 193 l 774 193 q 778 192 783 196 q 788 201 788 207 q 773 209 752 210 q 732 212 722 212 q 700 212 689 210 q 678 207 669 198 z m 1170 210 q 1168 206 1160 205 q 1152 204 1156 196 q 1188 190 1225 190 q 1261 190 1293 196 q 1280 206 1266 210 q 1253 213 1233 213 q 1219 213 1195 212 q 1171 210 1170 210 z m 86 147 l 90 132 l 454 136 l 454 141 q 394 141 271 144 q 148 147 86 147 z m 754 146 q 750 145 742 145 q 726 146 718 146 q 701 146 696 136 l 754 136 z m 1007 145 l 1007 129 l 1446 134 l 1446 138 q 1372 138 1218 142 q 1064 145 1007 145 z"},"g":{"x_min":0,"x_max":936,"ha":936,"o":"m 817 582 l 816 394 q 808 390 790 390 q 782 390 774 390 q 765 389 759 386 l 854 379 q 857 371 857 364 q 856 354 856 349 q 856 335 868 329 l 906 326 l 906 215 l 822 209 l 815 4 l 788 4 l 766 4 l 748 4 l 733 4 l 718 4 l 706 4 q 687 4 668 4 q 650 4 632 5 l 621 5 q 618 28 616 40 q 613 51 605 51 q 601 51 572 38 q 543 25 484 12 q 425 0 369 0 q 310 0 260 12 q 211 25 150 64 q 88 104 44 178 q -1 252 -1 342 q -1 361 4 407 q 9 453 41 512 q 73 570 126 594 q 179 619 234 628 q 288 638 347 638 q 476 638 585 599 q 593 602 593 613 q 593 622 593 632 q 615 632 660 636 q 705 639 721 639 q 742 639 763 636 l 771 590 z m 612 626 l 604 580 q 541 603 474 616 q 408 629 339 629 q 264 629 203 612 q 142 595 93 554 q 53 516 34 462 q 16 408 16 345 q 16 307 24 267 q 32 227 46 195 q 86 122 156 94 q 227 66 323 66 q 361 66 414 71 q 467 76 484 78 q 500 79 534 93 q 567 107 581 107 l 583 70 q 620 66 638 65 q 657 64 678 64 q 692 64 710 64 q 728 65 750 72 l 754 272 l 830 277 q 837 284 840 294 q 842 304 842 320 q 842 345 835 366 l 467 365 l 467 278 l 554 270 q 551 240 531 214 q 511 188 481 172 q 436 160 395 160 q 359 160 329 170 q 299 181 277 206 q 255 232 244 268 q 232 305 232 344 q 232 398 249 444 q 261 472 284 492 q 307 512 338 527 q 370 534 407 534 q 464 534 513 516 q 562 497 603 458 l 743 458 q 748 477 750 502 q 751 526 751 542 q 751 563 750 588 q 748 613 747 626 q 729 629 711 629 q 699 629 674 627 q 649 625 635 625 q 626 626 621 626 z m 517 459 q 482 467 449 467 q 412 467 381 456 q 350 444 327 418 q 303 374 303 316 q 303 238 342 183 q 376 175 410 175 q 435 175 458 181 q 480 187 496 202 q 512 216 520 226 q 528 237 528 249 q 528 255 527 258 q 516 258 508 258 q 499 257 493 257 q 477 257 468 258 q 458 260 449 266 q 449 281 448 296 q 448 311 448 327 q 448 349 450 358 q 451 367 457 383 q 512 383 568 384 q 623 385 678 386 l 657 386 q 624 413 590 431 q 557 449 517 459 z m 733 485 q 723 481 704 479 q 686 477 673 477 q 657 477 642 477 q 626 477 611 478 q 569 514 516 536 q 463 557 409 557 q 356 557 309 535 q 261 504 237 456 q 213 408 213 351 q 213 337 213 323 q 216 311 220 282 q 224 252 252 210 q 279 167 326 149 q 362 138 401 138 q 434 138 464 146 q 493 155 516 172 q 544 196 560 226 q 576 255 576 288 q 570 292 558 294 q 547 296 537 296 l 510 296 q 497 296 486 299 l 486 342 l 819 345 q 823 338 823 326 q 822 310 822 304 q 816 302 784 300 q 751 297 735 285 l 735 91 l 607 88 l 594 145 q 547 115 482 99 q 418 83 349 83 q 284 83 227 96 q 170 110 122 138 q 78 174 56 226 q 34 279 34 340 q 34 373 40 406 q 40 460 78 508 q 115 556 169 581 q 218 592 266 598 q 314 604 365 604 q 442 604 504 590 q 567 576 619 542 q 626 549 626 571 q 626 580 626 590 q 627 599 634 606 l 733 602 z m 665 572 q 673 564 689 564 q 704 564 717 569 l 717 575 q 704 580 686 580 q 670 580 665 572 z m 268 527 q 262 526 248 526 q 239 526 218 527 q 198 528 188 528 q 168 528 157 526 q 146 523 138 514 q 148 514 172 513 q 196 512 209 512 q 230 512 244 514 q 259 517 271 524 z m 556 536 l 559 525 q 572 520 589 520 q 605 520 610 528 q 602 536 584 536 q 570 536 556 536 z m 718 536 q 697 537 686 537 q 668 537 666 525 l 718 525 z m 717 499 l 611 499 l 614 489 l 717 488 z m 108 476 l 101 463 q 117 463 135 462 q 153 461 172 460 q 189 460 202 462 q 215 464 225 470 q 209 474 187 475 q 165 476 138 476 z m 249 570 l 525 570 q 504 575 480 577 q 457 579 433 579 q 395 579 325 574 q 255 570 249 570 z m 103 426 q 101 423 90 422 q 79 421 82 411 l 206 410 l 206 422 q 184 422 152 424 q 120 426 103 426 z m 202 368 q 165 373 128 373 q 95 373 73 366 q 83 362 103 360 q 123 358 138 358 q 155 358 174 360 q 192 361 202 362 z m 198 319 q 188 319 166 320 q 145 321 134 321 q 111 321 100 320 q 90 318 74 312 q 85 308 102 306 q 118 304 135 304 q 152 304 172 306 q 192 307 202 308 l 202 316 z m 808 318 l 527 318 l 527 304 l 808 307 z m 631 282 l 612 271 q 645 266 675 266 q 695 266 704 268 q 713 269 726 274 q 719 278 706 280 q 692 282 681 282 l 642 282 z m 84 268 q 79 265 82 260 q 85 254 89 252 q 98 252 120 251 q 143 250 155 250 q 175 250 188 252 q 202 255 214 262 q 196 265 172 266 q 147 268 117 268 z m 110 217 q 101 214 98 214 q 97 210 97 206 q 133 203 175 203 q 208 203 240 206 q 227 213 208 216 q 189 219 173 219 q 164 219 143 218 q 122 217 110 217 z m 604 228 l 597 214 l 726 217 l 726 225 q 718 226 692 227 q 667 228 666 228 z m 130 165 l 122 157 q 137 152 162 150 q 186 148 210 148 q 226 148 243 148 q 260 148 277 149 l 286 149 l 286 157 q 271 162 248 164 q 224 166 201 166 q 183 166 165 166 q 147 165 130 165 z m 550 153 q 554 149 561 149 q 575 149 581 159 q 576 163 569 163 q 556 163 550 153 z m 631 168 q 639 164 651 162 q 663 160 675 160 q 699 160 726 165 l 726 171 q 699 176 673 176 q 646 176 631 168 z m 240 111 l 232 108 q 287 95 356 95 q 420 95 474 107 q 452 109 408 110 q 365 111 343 111 z m 642 111 q 659 108 664 108 q 670 107 682 107 q 710 107 726 119 q 711 121 702 122 q 694 123 679 123 q 664 123 656 120 q 648 118 642 111 z"}}}
